<svg width="28" height="39" viewBox="0 0 28 39" fill="none" xmlns="http://www.w3.org/2000/svg">
<path fill-rule="evenodd" clip-rule="evenodd" d="M15.0396 37.2015L15.0186 37.205L14.8943 37.2663L14.8593 37.2733L14.8348 37.2663L14.7106 37.2033C14.6919 37.1986 14.6779 37.2021 14.6686 37.2138L14.6616 37.2313L14.6318 37.9803L14.6406 38.0153L14.6581 38.038L14.8401 38.1675L14.8663 38.1745L14.8873 38.1675L15.0693 38.038L15.0903 38.01L15.0973 37.9803L15.0676 37.233C15.0629 37.2143 15.0536 37.2038 15.0396 37.2015ZM15.5016 37.0038L15.4771 37.0073L15.1551 37.17L15.1376 37.1875L15.1323 37.2068L15.1638 37.9593L15.1726 37.9803L15.1866 37.9943L15.5383 38.1553C15.5605 38.1611 15.5774 38.1564 15.5891 38.1413L15.5961 38.1168L15.5366 37.0423C15.5307 37.0201 15.5191 37.0073 15.5016 37.0038ZM14.2503 37.0073C14.2426 37.0026 14.2334 37.0011 14.2246 37.003C14.2158 37.005 14.2081 37.0103 14.2031 37.0178L14.1926 37.0423L14.1331 38.1168C14.1342 38.1378 14.1441 38.1518 14.1628 38.1588L14.1891 38.1553L14.5408 37.9925L14.5583 37.9785L14.5636 37.9593L14.5951 37.2068L14.5898 37.1858L14.5723 37.1683L14.2503 37.0073Z" fill="#262626"/>
<path d="M8.75 22.75V21H10.5V22.75H8.75Z" fill="#262626"/>
<path fill-rule="evenodd" clip-rule="evenodd" d="M24.5 0C25.4283 0 26.3185 0.368749 26.9749 1.02513C27.6313 1.6815 28 2.57174 28 3.5V31.5C28 32.4283 27.6313 33.3185 26.9749 33.9749C26.3185 34.6312 25.4283 35 24.5 35H3.5C2.57174 35 1.6815 34.6312 1.02513 33.9749C0.368749 33.3185 0 32.4283 0 31.5V3.5C0 2.57174 0.368749 1.6815 1.02513 1.02513C1.6815 0.368749 2.57174 0 3.5 0H24.5ZM11.375 17.5H7.875C7.17881 17.5 6.51113 17.7766 6.01884 18.2688C5.52656 18.7611 5.25 19.4288 5.25 20.125V23.625C5.25 24.3212 5.52656 24.9889 6.01884 25.4812C6.51113 25.9734 7.17881 26.25 7.875 26.25H11.375C12.0712 26.25 12.7389 25.9734 13.2312 25.4812C13.7234 24.9889 14 24.3212 14 23.625V20.125C14 19.4288 13.7234 18.7611 13.2312 18.2688C12.7389 17.7766 12.0712 17.5 11.375 17.5ZM21 20.125H17.5C17.054 20.1255 16.6249 20.2963 16.3006 20.6025C15.9763 20.9087 15.7811 21.3272 15.7549 21.7724C15.7288 22.2177 15.8737 22.6562 16.16 22.9982C16.4462 23.3403 16.8523 23.5601 17.2952 23.6128L17.5 23.625H21C21.446 23.6245 21.8751 23.4537 22.1994 23.1475C22.5237 22.8413 22.7189 22.4228 22.7451 21.9776C22.7712 21.5323 22.6263 21.0938 22.34 20.7518C22.0538 20.4097 21.6477 20.1899 21.2048 20.1372L21 20.125ZM10.7345 8.33525L8.26 10.8097L7.6405 10.1903C7.47907 10.0231 7.28597 9.88979 7.07246 9.79807C6.85895 9.70636 6.62932 9.65808 6.39695 9.65606C6.16459 9.65404 5.93415 9.69832 5.71908 9.78631C5.50401 9.8743 5.30862 10.0042 5.14431 10.1686C4.98 10.3329 4.85005 10.5283 4.76206 10.7433C4.67407 10.9584 4.62979 11.1888 4.63181 11.4212C4.63383 11.6536 4.68211 11.8832 4.77382 12.0967C4.86554 12.3102 4.99886 12.5033 5.166 12.6648L6.713 14.2118C6.91614 14.4149 7.15731 14.5761 7.42275 14.6861C7.68818 14.7961 7.97269 14.8527 8.26 14.8527C8.54732 14.8527 8.83182 14.7961 9.09725 14.6861C9.36269 14.5761 9.60386 14.4149 9.807 14.2118L13.209 10.8097C13.5278 10.4797 13.7042 10.0376 13.7002 9.5788C13.6962 9.11995 13.5121 8.68103 13.1877 8.35657C12.8632 8.0321 12.4243 7.84806 11.9655 7.84407C11.5066 7.84008 11.0646 8.01647 10.7345 8.33525ZM21 10.5H17.5C17.054 10.5005 16.6249 10.6713 16.3006 10.9775C15.9763 11.2837 15.7811 11.7022 15.7549 12.1474C15.7288 12.5927 15.8737 13.0312 16.16 13.3732C16.4462 13.7153 16.8523 13.9351 17.2952 13.9878L17.5 14H21C21.446 13.9995 21.8751 13.8287 22.1994 13.5225C22.5237 13.2163 22.7189 12.7978 22.7451 12.3526C22.7712 11.9073 22.6263 11.4688 22.34 11.1268C22.0538 10.7847 21.6477 10.5649 21.2048 10.5122L21 10.5Z" fill="#262626"/>
</svg>
