<svg width="30" height="30" viewBox="0 0 30 30" fill="none" xmlns="http://www.w3.org/2000/svg">
<path fill-rule="evenodd" clip-rule="evenodd" d="M0 10.9467V19.0533C0 22.8767 2.10369e-07 24.7867 1.27412 25.975C2.43 27.0533 4.22823 27.1517 7.62 27.1617C7.44176 26.0367 7.40471 24.695 7.39412 23.115C7.39412 22.9542 7.42768 22.795 7.49288 22.6465C7.55809 22.4979 7.65366 22.363 7.77412 22.2494C7.89459 22.1358 8.03759 22.0457 8.19495 21.9843C8.3523 21.9229 8.52093 21.8914 8.69118 21.8917C8.86151 21.8897 9.03059 21.9194 9.18876 21.9792C9.34693 22.0389 9.49109 22.1275 9.61302 22.2398C9.73494 22.3522 9.83223 22.4861 9.89933 22.634C9.96644 22.7819 10.002 22.9408 10.0041 23.1017C10.0147 24.875 10.0624 26.1317 10.2512 27.085C10.4329 28.005 10.7224 28.535 11.1459 28.9317C11.6276 29.3817 12.3035 29.6733 13.5812 29.8317C14.8941 29.9983 16.6341 30 19.1312 30H20.8694C23.3665 30 25.1065 29.9967 26.4212 29.8333C27.6971 29.6733 28.3729 29.38 28.8529 28.9317C29.3347 28.4817 29.6488 27.8517 29.82 26.6617C29.9965 25.4383 30 23.8133 30 21.4867V8.51333C30 6.185 29.9965 4.56333 29.82 3.33833C29.6488 2.14833 29.3347 1.51667 28.8547 1.06833C28.3729 0.618333 27.6971 0.326667 26.4194 0.168333C25.1082 1.11759e-07 23.3682 0 20.8712 0H19.1329C16.6359 0 14.8959 0.00333318 13.5812 0.166667C12.3053 0.326667 11.6294 0.62 11.1476 1.06833C10.7241 1.46333 10.4347 1.995 10.2529 2.915C10.0641 3.86833 10.0165 5.125 10.0059 6.89833C10.0038 7.05921 9.9682 7.21812 9.9011 7.36599C9.83399 7.51387 9.7367 7.64781 9.61478 7.76017C9.49286 7.87253 9.3487 7.96111 9.19053 8.02085C9.03236 8.08059 8.86328 8.11031 8.69294 8.10833C8.52269 8.10855 8.35407 8.07707 8.19671 8.01569C8.03936 7.95431 7.89636 7.86424 7.77589 7.75062C7.65542 7.637 7.55985 7.50206 7.49465 7.35353C7.42944 7.205 7.39588 7.04579 7.39588 6.885C7.40647 5.305 7.44353 3.96333 7.62176 2.83833C4.23 2.84833 2.43353 2.94667 1.27588 4.025C0.00176479 5.21333 0 7.125 0 10.9467ZM4.29706 15.86C4.17604 15.7478 4.07992 15.614 4.0143 15.4663C3.94868 15.3187 3.91488 15.1601 3.91488 15C3.91488 14.8399 3.94868 14.6813 4.0143 14.5337C4.07992 14.386 4.17604 14.2522 4.29706 14.14L7.77353 10.8967C8.01974 10.6681 8.3512 10.5399 8.69647 10.5399C9.04175 10.5399 9.3732 10.6681 9.61941 10.8967C9.74043 11.0088 9.83655 11.1427 9.90217 11.2903C9.96779 11.438 10.0016 11.5965 10.0016 11.7567C10.0016 11.9168 9.96779 12.0753 9.90217 12.223C9.83655 12.3707 9.74043 12.5045 9.61941 12.6167L8.36647 13.7833H20.8712C21.5912 13.7833 22.1771 14.3283 22.1771 15C22.1771 15.6717 21.5912 16.2167 20.8712 16.2167H8.36471L9.61765 17.3833C9.73866 17.4955 9.83479 17.6293 9.90041 17.777C9.96603 17.9247 9.99983 18.0832 9.99983 18.2433C9.99983 18.4035 9.96603 18.562 9.90041 18.7097C9.83479 18.8573 9.73866 18.9912 9.61765 19.1033C9.37144 19.3319 9.03998 19.4601 8.69471 19.4601C8.34943 19.4601 8.01798 19.3319 7.77176 19.1033L4.29706 15.86Z" fill="#262626"/>
</svg>
