<svg width="28" height="28" viewBox="0 0 28 28" fill="none" xmlns="http://www.w3.org/2000/svg">
<path fill-rule="evenodd" clip-rule="evenodd" d="M16.6221 0.2128C16.0768 -6.25849e-08 15.3842 0 14.0004 0C12.6166 0 11.9255 -6.25849e-08 11.3787 0.2128C11.019 0.352444 10.6919 0.558294 10.4162 0.818505C10.1405 1.07872 9.92174 1.38815 9.77243 1.729C9.63391 2.0412 9.58085 2.4066 9.55875 2.9372C9.54823 3.3215 9.43506 3.69696 9.22987 4.0283C9.02467 4.35964 8.73419 4.63599 8.3857 4.8314C8.03017 5.01914 7.6305 5.1186 7.22374 5.12056C6.81698 5.12252 6.41628 5.02691 6.05876 4.8426C5.56066 4.5934 5.19961 4.4562 4.84298 4.4114C4.06278 4.31469 3.2739 4.51387 2.64719 4.9658C2.17856 5.3046 1.83225 5.8702 1.14109 7C0.448463 8.1298 0.103623 8.694 0.0255175 9.247C-0.07764 9.9834 0.13457 10.7282 0.614989 11.3176C0.833094 11.5864 1.14109 11.8118 1.61709 12.0946C2.32004 12.5104 2.77098 13.2188 2.77098 14C2.77098 14.7812 2.32004 15.4896 1.61856 15.904C1.14109 16.1882 0.833094 16.4136 0.613515 16.6824C0.377088 16.9739 0.203463 17.3068 0.10257 17.6621C0.00167632 18.0174 -0.024507 18.3881 0.0255175 18.753C0.103623 19.3046 0.448463 19.8702 1.14109 21C1.83372 22.1298 2.17856 22.694 2.64719 23.0342C3.27203 23.4864 4.06192 23.6852 4.84298 23.5886C5.19961 23.5438 5.56066 23.4066 6.05876 23.1574C6.41646 22.9728 6.81743 22.8771 7.22448 22.8791C7.63153 22.881 8.03146 22.9806 8.38717 23.1686C9.10338 23.5606 9.5278 24.2816 9.55875 25.0628C9.58085 25.5948 9.63391 25.9588 9.77243 26.271C10.0731 26.957 10.6507 27.503 11.3787 27.7872C11.924 28 12.6166 28 14.0004 28C15.3842 28 16.0768 28 16.6221 27.7872C16.9818 27.6476 17.309 27.4417 17.5846 27.1815C17.8603 26.9213 18.0791 26.6118 18.2284 26.271C18.3669 25.9588 18.42 25.5948 18.4421 25.0628C18.4716 24.2816 18.8975 23.5592 19.6151 23.1686C19.9707 22.9809 20.3703 22.8814 20.7771 22.8794C21.1839 22.8775 21.5846 22.9731 21.9421 23.1574C22.4402 23.4066 22.8012 23.5438 23.1579 23.5886C23.9389 23.6866 24.7288 23.4864 25.3536 23.0342C25.8223 22.6954 26.1686 22.1298 26.8597 21C27.5524 19.8702 27.8972 19.306 27.9753 18.753C28.0251 18.388 27.9987 18.0172 27.8976 17.6619C27.7964 17.3067 27.6225 16.9738 27.3858 16.6824C27.1677 16.4136 26.8597 16.1882 26.3837 15.9054C25.6808 15.4896 25.2299 14.7812 25.2299 14C25.2299 13.2188 25.6808 12.5104 26.3823 12.096C26.8597 11.8118 27.1677 11.5864 27.3873 11.3176C27.6237 11.0261 27.7974 10.6932 27.8983 10.3379C27.9992 9.98261 28.0253 9.61191 27.9753 9.247C27.8972 8.6954 27.5524 8.1298 26.8597 7C26.1671 5.8702 25.8223 5.306 25.3536 4.9658C24.7269 4.51387 23.9381 4.31469 23.1579 4.4114C22.8012 4.4562 22.4402 4.5934 21.9421 4.8426C21.5844 5.02716 21.1834 5.1229 20.7764 5.12095C20.3693 5.11899 19.9694 5.01939 19.6137 4.8314C19.2655 4.63582 18.9753 4.35939 18.7703 4.02806C18.5654 3.69673 18.4525 3.32137 18.4421 2.9372C18.42 2.4052 18.3669 2.0412 18.2284 1.729C18.0791 1.38815 17.8603 1.07872 17.5846 0.818505C17.309 0.558294 16.9818 0.352444 16.6221 0.2128ZM14.0004 18.2C16.4615 18.2 18.4554 16.3198 18.4554 14C18.4554 11.6802 16.46 9.8 14.0004 9.8C11.5408 9.8 9.54549 11.6802 9.54549 14C9.54549 16.3198 11.5408 18.2 14.0004 18.2Z" fill="#262626"/>
</svg>
