<svg width="30" height="33" viewBox="0 0 30 33" fill="none" xmlns="http://www.w3.org/2000/svg">
<path d="M22.5 12H9V9H22.5V12ZM7.5 9H4.5V12H7.5V9ZM7.5 4.5H4.5V7.5H7.5V4.5ZM12 4.5H9V7.5H12V4.5ZM16.5 24V27H18C18.825 27 19.5 27.675 19.5 28.5H30V31.5H19.5C19.5 32.325 18.825 33 18 33H12C11.175 33 10.5 32.325 10.5 31.5H0V28.5H10.5C10.5 27.675 11.175 27 12 27H13.5V24H3C1.335 24 0 22.665 0 21V3C0 2.20435 0.31607 1.44129 0.87868 0.87868C1.44129 0.316071 2.20435 0 3 0H27C28.665 0 30 1.335 30 3V21C30 22.665 28.665 24 27 24H16.5ZM27 21V3H3V21H27ZM13.5 7.5H25.5V4.5H13.5V7.5ZM4.5 16.5H13.5V13.5H4.5V16.5ZM16.5 19.5H25.5V16.5H16.5V19.5Z" fill="#262626"/>
</svg>
