<svg width="37" height="33" viewBox="0 0 37 33" fill="none" xmlns="http://www.w3.org/2000/svg">
<path d="M15.8333 7.12638C15.8331 5.91363 16.1424 4.72088 16.732 3.6611C17.3216 2.60131 18.172 1.70956 19.2025 1.07028C20.2331 0.431002 21.4098 0.0653613 22.6212 0.00798075C23.8326 -0.0493998 25.0386 0.203379 26.125 0.74238C27.2113 0.204021 28.417 -0.0482457 29.628 0.00945412C30.839 0.0671539 32.0152 0.432912 33.0454 1.07211C34.0756 1.71131 34.9256 2.60282 35.5151 3.66225C36.1045 4.72168 36.4139 5.91401 36.4139 7.12638C36.4139 8.33875 36.1045 9.53108 35.5151 10.5905C34.9256 11.6499 34.0756 12.5414 33.0454 13.1806C32.0152 13.8198 30.839 14.1856 29.628 14.2433C28.417 14.301 27.2113 14.0487 26.125 13.5104C25.0386 14.0494 23.8326 14.3022 22.6212 14.2448C21.4098 14.1874 20.2331 13.8218 19.2025 13.1825C18.172 12.5432 17.3216 11.6515 16.732 10.5917C16.1424 9.53188 15.8331 8.33913 15.8333 7.12638ZM28.8958 11.0657C29.0257 11.0784 29.1576 11.0847 29.2917 11.0847C29.8274 11.0836 30.3574 10.9736 30.8495 10.7616C31.3415 10.5496 31.7854 10.2399 32.1542 9.8513C32.523 9.46268 32.8091 9.00323 32.9952 8.50078C33.1812 7.99834 33.2633 7.46335 33.2365 6.92825C33.2097 6.39314 33.0745 5.86904 32.8391 5.38772C32.6038 4.90639 32.2732 4.47785 31.8674 4.12806C31.4615 3.77826 30.9889 3.5145 30.4781 3.35275C29.9673 3.191 29.429 3.13463 28.8958 3.18705C29.6704 4.35481 30.0835 5.72506 30.0833 7.12638C30.0835 8.5277 29.6704 9.89795 28.8958 11.0657ZM13.3554 19.3972C13.0954 19.3965 12.8379 19.4471 12.5975 19.546C12.357 19.6449 12.1384 19.7902 11.9542 19.9735L8.70833 23.2194V29.293H17.6178L26.8058 26.9972L32.3982 24.6095C32.5886 24.5066 32.7344 24.337 32.8075 24.1331C32.8806 23.9293 32.8759 23.7057 32.7943 23.5052C32.7126 23.3046 32.5598 23.1413 32.3652 23.0465C32.1705 22.9517 31.9477 22.932 31.7395 22.9914L31.7078 22.9993L21.5555 25.3347H15.8333V22.168H20.7812C21.1487 22.168 21.5011 22.0221 21.7609 21.7623C22.0207 21.5025 22.1667 21.1501 22.1667 20.7826C22.1667 20.4152 22.0207 20.0628 21.7609 19.803C21.5011 19.5432 21.1487 19.3972 20.7812 19.3972H13.3554ZM25.3128 21.2212L30.9368 19.9276C31.5357 19.7701 32.1629 19.752 32.77 19.8746C33.377 19.9972 33.948 20.2573 34.4389 20.6349C34.9298 21.0126 35.3276 21.4977 35.6019 22.053C35.8761 22.6083 36.0194 23.2191 36.0208 23.8385C36.0202 24.5903 35.8105 25.3271 35.4151 25.9666C35.0197 26.6061 34.4543 27.123 33.782 27.4595L33.7393 27.4817L27.8176 30.0071L18.0072 32.4597H0V20.9805H6.4695L9.7185 17.7315C10.1972 17.2545 10.7652 16.8764 11.39 16.6188C12.0149 16.3613 12.6843 16.2293 13.3602 16.2305H20.7812C21.4161 16.2305 22.0439 16.3632 22.6244 16.6201C23.2049 16.8771 23.7252 17.2526 24.152 17.7226C24.5787 18.1926 24.9024 18.7466 25.1023 19.3491C25.3022 19.9517 25.3739 20.5893 25.3128 21.2212ZM5.54167 24.1472H3.16667V29.293H5.54167V24.1472Z" fill="#262626"/>
</svg>
