<svg width="32" height="34" viewBox="0 0 32 34" fill="none" xmlns="http://www.w3.org/2000/svg">
<path d="M8.10699 0C8.03557 0.61356 7.99985 1.23498 7.99985 1.85711C7.99985 5.55418 9.25697 9.02126 11.3641 11.1641C10.9284 13.2569 9.76411 14.814 8.22128 16.0497C11.6855 23.321 20.0782 23.4067 23.6567 16.3068C22.0567 15.0426 20.9353 13.4355 20.5639 11.2284C22.7139 9.09269 23.9996 5.59275 23.9996 1.85711C23.9996 1.23498 23.9567 0.61356 23.8853 0H8.10699ZM4.63991 18.2068C3.1278 18.9211 1.52354 19.5354 0 20.1425C0 25.8567 6.85702 33.8565 15.9997 33.8565C25.1424 33.8565 31.9994 25.8567 31.9994 20.1425C30.3423 19.5925 28.7566 19.0354 27.3138 18.4068C26.6709 21.2425 25.1995 23.3996 23.2853 24.871C23.421 25.171 23.4996 25.5067 23.4996 25.8567C23.4996 27.1495 22.4353 28.2138 21.1425 28.2138C20.7496 28.2138 20.3853 28.1138 20.0568 27.9423C19.8925 30.2852 18.1854 32.2137 15.9997 32.2137C13.814 32.2137 12.1069 30.2852 11.9426 27.9423C11.6141 28.1138 11.2498 28.2138 10.8569 28.2138C9.56411 28.2138 8.49984 27.1495 8.49984 25.8567C8.49984 25.5067 8.57841 25.171 8.72127 24.871C6.75702 23.3639 5.2499 21.1425 4.63991 18.2068ZM15.9997 24.2138C14.514 24.2138 13.214 25.6567 13.214 27.5709C13.214 29.4852 14.514 30.928 15.9997 30.928C17.4854 30.928 18.7854 29.4852 18.7854 27.5709C18.7854 25.6567 17.4854 24.2138 15.9997 24.2138ZM10.8569 24.7853C10.257 24.7853 9.78553 25.2567 9.78553 25.8567C9.78553 26.4566 10.257 26.9281 10.8569 26.9281C11.4569 26.9281 11.9284 26.4566 11.9284 25.8567C11.9284 25.2567 11.4569 24.7853 10.8569 24.7853ZM21.1425 24.7853C20.5425 24.7853 20.0711 25.2567 20.0711 25.8567C20.0711 26.4566 20.5425 26.9281 21.1425 26.9281C21.7425 26.9281 22.2139 26.4566 22.2139 25.8567C22.2139 25.2567 21.7425 24.7853 21.1425 24.7853Z" fill="#262626"/>
</svg>
