<svg width="42" height="42" viewBox="0 0 42 42" fill="none" xmlns="http://www.w3.org/2000/svg">
<path d="M27.4281 41.1421C26.1709 41.1421 25.0952 40.6949 24.2007 39.8004C23.3062 38.9059 22.8582 37.8294 22.8567 36.5708V27.4281C22.8567 26.1709 23.3047 25.0952 24.2007 24.2007C25.0967 23.3062 26.1725 22.8582 27.4281 22.8567H36.5708C37.8279 22.8567 38.9044 23.3047 39.8004 24.2007C40.6964 25.0967 41.1436 26.1725 41.1421 27.4281V36.5708C41.1421 37.8279 40.6949 38.9044 39.8004 39.8004C38.9059 40.6964 37.8294 41.1436 36.5708 41.1421H27.4281ZM27.4281 18.2854C26.1709 18.2854 25.0952 17.8381 24.2007 16.9437C23.3062 16.0492 22.8582 14.9727 22.8567 13.714V4.57134C22.8567 3.31422 23.3047 2.23843 24.2007 1.34398C25.0967 0.449516 26.1725 0.00152378 27.4281 0H36.5708C37.8279 0 38.9044 0.447992 39.8004 1.34398C40.6964 2.23996 41.1436 3.31575 41.1421 4.57134V13.714C41.1421 14.9712 40.6949 16.0477 39.8004 16.9437C38.9059 17.8397 37.8294 18.2869 36.5708 18.2854H27.4281ZM4.57134 18.2854C3.31422 18.2854 2.23843 17.8381 1.34398 16.9437C0.449516 16.0492 0.00152378 14.9727 0 13.714V4.57134C0 3.31422 0.447992 2.23843 1.34398 1.34398C2.23996 0.449516 3.31575 0.00152378 4.57134 0H13.714C14.9712 0 16.0477 0.447992 16.9437 1.34398C17.8397 2.23996 18.2869 3.31575 18.2854 4.57134V13.714C18.2854 14.9712 17.8381 16.0477 16.9437 16.9437C16.0492 17.8397 14.9727 18.2869 13.714 18.2854H4.57134ZM4.57134 41.1421C3.31422 41.1421 2.23843 40.6949 1.34398 39.8004C0.449516 38.9059 0.00152378 37.8294 0 36.5708V27.4281C0 26.1709 0.447992 25.0952 1.34398 24.2007C2.23996 23.3062 3.31575 22.8582 4.57134 22.8567H13.714C14.9712 22.8567 16.0477 23.3047 16.9437 24.2007C17.8397 25.0967 18.2869 26.1725 18.2854 27.4281V36.5708C18.2854 37.8279 17.8381 38.9044 16.9437 39.8004C16.0492 40.6964 14.9727 41.1436 13.714 41.1421H4.57134Z" fill="#262626"/>
</svg>
