<svg width="33" height="36" viewBox="0 0 33 36" fill="none" xmlns="http://www.w3.org/2000/svg">
<path d="M32.8326 31.792L29.2184 2.87823C29.1191 2.08344 28.7328 1.3523 28.1323 0.822272C27.5318 0.292241 26.7584 -0.000174357 25.9574 7.79971e-08H6.90059C6.09961 -0.000174357 5.32616 0.292241 4.72564 0.822272C4.12512 1.3523 3.7389 2.08344 3.63958 2.87823L0.0253582 31.792C-0.0324177 32.2543 0.00880051 32.7237 0.146277 33.1689C0.283754 33.614 0.514345 34.0249 0.822746 34.3742C1.13115 34.7234 1.51031 35.0031 1.93506 35.1946C2.35981 35.3862 2.82043 35.4852 3.28637 35.4851H9.97103C10.7003 35.4873 11.4095 35.2461 11.9862 34.7998C12.5629 34.3534 12.9742 33.7274 13.1548 33.0208L16.429 20.371L19.6999 33.011C19.8803 33.719 20.2917 34.3467 20.8689 34.7948C21.4461 35.2429 22.1562 35.4858 22.8869 35.4851H29.5716C30.0375 35.4852 30.4982 35.3862 30.9229 35.1946C31.3477 35.0031 31.7268 34.7234 32.0352 34.3742C32.3436 34.0249 32.5742 33.614 32.7117 33.1689C32.8492 32.7237 32.8904 32.2543 32.8326 31.792ZM25.3775 3.94278L25.706 6.57131H7.15194L7.4805 3.94278H25.3775ZM9.4634 31.5423H4.03057L5.87054 16.8225C7.28455 16.4285 8.54557 15.6144 9.48667 14.4879C10.4278 13.3614 11.0046 11.9756 11.1407 10.5141H14.4576V12.2341L9.4634 31.5423ZM23.3962 31.5423L18.4004 12.2341V10.5141H21.7172C21.8533 11.9755 22.43 13.3611 23.3712 14.4874C24.3123 15.6136 25.5734 16.4274 26.9874 16.8209L28.8274 31.5423H23.3962Z" fill="#262626"/>
</svg>
