<svg width="47" height="47" viewBox="0 0 47 47" fill="none" xmlns="http://www.w3.org/2000/svg">
<g clip-path="url(#clip0_1234_1047)">
<path d="M39.7756 37.9069C39.7646 37.885 39.7555 37.8613 39.7446 37.8395L31.6321 20.5599L35.1529 15.0374C35.1638 15.021 35.1747 15.0047 35.1838 14.9883C35.5235 14.4221 35.703 13.7743 35.703 13.114C35.703 12.4538 35.5235 11.806 35.1838 11.2398C35.1583 11.1961 35.1292 11.1524 35.1 11.1105L31.3279 5.72647V2.18567C31.3279 1.606 31.0977 1.05006 30.6878 0.640169C30.2779 0.230276 29.7219 0 29.1423 0C28.5626 0 28.0067 0.230276 27.5968 0.640169C27.1869 1.05006 26.9566 1.606 26.9566 2.18567V5.64632L26.1588 6.64263C25.8176 7.0694 25.3846 7.41392 24.8922 7.65068C24.3997 7.88745 23.8602 8.01038 23.3138 8.01038C22.7674 8.01038 22.2279 7.88745 21.7354 7.65068C21.243 7.41392 20.8101 7.0694 20.4688 6.64263L19.671 5.64632V2.18567C19.671 1.606 19.4407 1.05006 19.0308 0.640169C18.621 0.230276 18.065 0 17.4853 0C16.9057 0 16.3497 0.230276 15.9398 0.640169C15.5299 1.05006 15.2997 1.606 15.2997 2.18567V5.72647L11.5312 11.1105C11.5021 11.1524 11.4729 11.1961 11.4474 11.2398C11.1077 11.806 10.9283 12.4538 10.9283 13.114C10.9283 13.7743 11.1077 14.4221 11.4474 14.9883C11.4474 15.0047 11.4675 15.021 11.4784 15.0374L14.9955 20.5599L6.883 37.8395C6.87207 37.8613 6.86297 37.885 6.85204 37.9069C6.61453 38.4609 6.51823 39.0653 6.57177 39.6657C6.62531 40.2661 6.82702 40.8439 7.15881 41.3471C7.49061 41.8504 7.94211 42.2635 8.47284 42.5494C9.00358 42.8352 9.59695 42.9848 10.1998 42.9849H36.4278C37.0308 42.9851 37.6244 42.8357 38.1554 42.55C38.6864 42.2643 39.1381 41.8512 39.4701 41.3479C39.8021 40.8446 40.004 40.2667 40.0576 39.6661C40.1112 39.0656 40.015 38.4611 39.7774 37.9069H39.7756ZM23.3138 12.3855C24.371 12.3876 25.4181 12.1794 26.3941 11.7729C27.37 11.3664 28.2553 10.7697 28.9984 10.0177L31.1841 13.1323L27.9438 18.2139H18.6838L15.449 13.1359L17.6347 10.0213C18.3774 10.772 19.262 11.3676 20.2369 11.7735C21.2119 12.1794 22.2578 12.3874 23.3138 12.3855ZM11.3491 38.6136L18.8732 22.5853H27.7544L35.2785 38.6136H11.3491Z" fill="#262626"/>
</g>
<defs>
<clipPath id="clip0_1234_1047">
<rect width="46.6277" height="46.6277" fill="white"/>
</clipPath>
</defs>
</svg>
