<svg width="41" height="40" viewBox="0 0 41 40" fill="none" xmlns="http://www.w3.org/2000/svg">
<path fill-rule="evenodd" clip-rule="evenodd" d="M27.2562 4.16393e-07C28.0091 3.65539e-05 28.7349 0.280481 29.2922 0.786645C29.8495 1.29281 30.1983 1.9884 30.2706 2.73778L30.2847 3.02852V3.19407C33.1765 4.36381 35.6677 6.34587 37.4573 8.90081C39.2469 11.4557 40.2585 14.4742 40.3697 17.5916L40.3798 18.1711V22.2091C40.3798 22.7096 40.1939 23.1923 39.8581 23.5635C39.5224 23.9347 39.0607 24.168 38.5627 24.218C37.3055 24.3446 36.0739 24.4388 34.8679 24.5007C29.1036 30.061 24.5548 32.3042 20.0665 32.3042C17.7568 32.3042 15.6287 31.7065 13.5734 30.905C12.5281 30.487 11.4946 30.04 10.4742 29.5644L8.33405 28.5771L7.25791 28.0925C5.97181 27.5211 5.14199 27.4141 4.57667 27.4262L4.26978 27.4404L3.25624 27.5655C3.1087 27.5811 2.96041 27.5885 2.81205 27.5878C2.39881 27.5914 1.98909 27.5116 1.60745 27.353C1.22582 27.1945 0.880137 26.9605 0.591144 26.6651C0.403385 26.4773 0.254524 26.2542 0.153086 26.0088C0.0516483 25.7634 -0.000373084 25.5003 2.01409e-06 25.2348C0.000377113 24.9692 0.0531413 24.7063 0.155272 24.4612C0.257403 24.216 0.406894 23.9934 0.595182 23.8061L0.780931 23.6446L8.07965 17.9672C8.13229 13.8055 9.78934 9.8248 12.7053 6.85505C15.6213 3.88531 19.571 2.15578 23.731 2.02709L24.3993 2.01901C24.6082 1.42829 24.9951 0.916891 25.5068 0.555285C26.0184 0.19368 26.6297 -0.000328049 27.2562 4.16393e-07ZM11.1041 20.7272L7.19331 23.7718C7.71287 23.9212 8.28021 24.1312 8.89533 24.4018L9.76956 24.7955L12.897 26.231C13.6259 26.5601 14.3305 26.865 15.0392 27.1416C16.8644 27.8543 18.4614 28.2661 20.0645 28.2661C22.3742 28.2661 25.0676 27.404 28.7301 24.5269C23.2707 24.2645 18.0354 23.2025 12.2671 21.1511L11.1041 20.7272ZM31.1529 8.22949C31.5204 9.13804 31.8414 10.0971 32.1079 11.0844C32.8852 13.9675 33.2264 17.2686 32.7136 20.5414C33.9244 20.5138 35.1342 20.4532 36.3418 20.3597V18.1711C36.3418 16.2188 35.87 14.2955 34.9665 12.5648C34.0631 10.8342 32.7547 9.34553 31.1529 8.22949ZM24.2277 6.05703C21.2489 6.05677 18.3744 7.15404 16.1535 9.13919C13.9326 11.1243 12.521 13.8582 12.1883 16.8184C18.0475 19.0433 23.2202 20.1861 28.6251 20.4788C29.1662 17.7128 28.9219 14.7792 28.2092 12.1343C27.5146 9.55396 26.4264 7.42794 25.3886 6.11154C25.0027 6.07481 24.6153 6.05662 24.2277 6.05703Z" fill="#262626"/>
</svg>
