<svg width="55" height="55" viewBox="0 0 55 55" fill="none" xmlns="http://www.w3.org/2000/svg">
<g clip-path="url(#clip0_1234_1098)">
<path fill-rule="evenodd" clip-rule="evenodd" d="M18.7139 7.91675C20.1826 7.91675 21.3909 9.03887 21.528 10.4724L21.5417 10.7465V24.1082C22.0886 24.4239 22.551 24.8671 22.8896 25.4001C23.2282 25.933 23.4329 26.54 23.4863 27.1691L23.5 27.5001V45.1251C23.5 45.6047 23.3239 46.0677 23.0051 46.4261C22.6864 46.7846 22.2472 47.0136 21.7708 47.0697L21.5417 47.0834H9.79171C9.31205 47.0834 8.84909 46.9072 8.49065 46.5885C8.1322 46.2698 7.9032 45.8306 7.84708 45.3542L7.83337 45.1251V27.5001C7.83337 26.1625 8.50508 24.9797 9.52929 24.2747L9.79171 24.1082V16.8389C9.79171 14.4726 10.7317 12.2032 12.4049 10.53C14.0782 8.85676 16.3476 7.91675 18.7139 7.91675ZM19.5834 29.4584H11.75V33.3751H19.5834V29.4584ZM17.625 11.9509C16.5709 12.1872 15.6213 12.7578 14.9176 13.5775C14.214 14.3972 13.794 15.4223 13.7201 16.5001L13.7084 16.8389V23.5834H17.625V11.9509ZM33.2917 23.5834C31.2142 23.5834 29.2217 24.4087 27.7527 25.8777C26.2837 27.3468 25.4584 29.3392 25.4584 31.4167V45.1251C25.4584 45.6445 25.6647 46.1426 26.032 46.5098C26.3992 46.8771 26.8973 47.0834 27.4167 47.0834H39.1667C39.6861 47.0834 40.1842 46.8771 40.5515 46.5098C40.9187 46.1426 41.125 45.6445 41.125 45.1251V31.4167C41.125 29.3392 40.2997 27.3468 38.8307 25.8777C37.3617 24.4087 35.3692 23.5834 33.2917 23.5834Z" fill="#262626"/>
</g>
<defs>
<clipPath id="clip0_1234_1098">
<rect width="54.8561" height="54.8561" fill="white"/>
</clipPath>
</defs>
</svg>
