<svg width="36" height="30" viewBox="0 0 36 30" fill="none" xmlns="http://www.w3.org/2000/svg">
<path d="M4.35748 25.9386V13.5769L2.68132 14.8759C2.29022 15.1553 1.87118 15.267 1.4242 15.2111C0.977224 15.1553 0.614056 14.9318 0.334696 14.5407C0.0553365 14.1496 -0.0491441 13.7305 0.0212546 13.2836C0.0916532 12.8366 0.307878 12.4734 0.669928 12.1941L15.7135 0.670463C16.0208 0.446976 16.3493 0.27936 16.699 0.167616C17.0488 0.0558718 17.4047 0 17.7668 0C18.1288 0 18.4853 0.0558718 18.8361 0.167616C19.187 0.27936 19.515 0.446976 19.8201 0.670463L34.9055 12.1941C35.2687 12.4734 35.4782 12.8366 35.534 13.2836C35.5899 13.7305 35.4782 14.1496 35.1988 14.5407C34.9194 14.9038 34.5563 15.1134 34.1093 15.1692C33.6623 15.2251 33.2573 15.1134 32.8941 14.834L31.176 13.5769V25.9386C31.176 26.8605 30.8481 27.6499 30.1921 28.307C29.5362 28.964 28.7467 29.292 27.8237 29.2909H7.7098C6.78791 29.2909 5.999 28.9629 5.34306 28.307C4.68712 27.651 4.3586 26.8616 4.35748 25.9386ZM11.0621 19.2339C11.537 19.2339 11.9354 19.073 12.2572 18.7512C12.579 18.4294 12.7394 18.0316 12.7383 17.5578C12.7372 17.084 12.5762 16.6862 12.2555 16.3643C11.9348 16.0425 11.537 15.8816 11.0621 15.8816C10.5872 15.8816 10.1894 16.0425 9.86869 16.3643C9.54799 16.6862 9.38707 17.084 9.38596 17.5578C9.38484 18.0316 9.54575 18.4299 9.86869 18.7529C10.1916 19.0758 10.5894 19.2362 11.0621 19.2339ZM17.7668 19.2339C18.2417 19.2339 18.64 19.073 18.9619 18.7512C19.2837 18.4294 19.444 18.0316 19.4429 17.5578C19.4418 17.084 19.2809 16.6862 18.9602 16.3643C18.6395 16.0425 18.2417 15.8816 17.7668 15.8816C17.2918 15.8816 16.894 16.0425 16.5733 16.3643C16.2526 16.6862 16.0917 17.084 16.0906 17.5578C16.0895 18.0316 16.2504 18.4299 16.5733 18.7529C16.8963 19.0758 17.2941 19.2362 17.7668 19.2339ZM24.4714 19.2339C24.9463 19.2339 25.3447 19.073 25.6665 18.7512C25.9883 18.4294 26.1487 18.0316 26.1476 17.5578C26.1464 17.084 25.9855 16.6862 25.6648 16.3643C25.3441 16.0425 24.9463 15.8816 24.4714 15.8816C23.9965 15.8816 23.5987 16.0425 23.278 16.3643C22.9573 16.6862 22.7964 17.084 22.7952 17.5578C22.7941 18.0316 22.955 18.4299 23.278 18.7529C23.6009 19.0758 23.9987 19.2362 24.4714 19.2339Z" fill="#262626"/>
</svg>
