<svg width="45" height="45" viewBox="0 0 45 45" fill="none" xmlns="http://www.w3.org/2000/svg">
<path d="M22.3996 3.67503C19.4351 3.67503 16.7997 2.80005 16.7997 2.80005V2.97505C16.7997 4.46023 17.3897 5.88459 18.4399 6.93477C19.49 7.98495 20.9144 8.57494 22.3996 8.57494C23.8848 8.57494 25.3091 7.98495 26.3593 6.93477C27.4095 5.88459 27.9995 4.46023 27.9995 2.97505V2.80005C27.9995 2.80005 25.364 3.67503 22.3996 3.67503Z" fill="#262626"/>
<path d="M30.7995 3.84985C30.3191 8.02878 26.7054 11.2872 22.3996 11.2872C18.0938 11.2872 14.4802 8.02878 13.9998 3.84985L1.40002 8.22477L2.975 18.1996L8.37452 18.8488C8.99401 18.9276 8.99576 18.9276 8.99576 19.5654L8.39989 41.9991H36.3994L35.8035 19.5654C35.7851 18.9529 35.7851 18.9529 36.4248 18.8488L41.8243 18.1996L43.3992 8.22477L30.7995 3.84985Z" fill="#262626"/>
</svg>
