<svg width="44" height="44" viewBox="0 0 44 44" fill="none" xmlns="http://www.w3.org/2000/svg">
<path d="M35.6399 5.48334L8.2249 5.48518C7.49781 5.48523 6.80052 5.77412 6.28642 6.28828C5.77232 6.80245 5.48353 7.49978 5.48358 8.22687L5.48542 35.6419C5.48547 36.369 5.77436 37.0663 6.28852 37.5804C6.80269 38.0945 7.50002 38.3833 8.22711 38.3832L35.6421 38.3814C36.3692 38.3813 37.0665 38.0924 37.5806 37.5783C38.0947 37.0641 38.3835 36.3668 38.3834 35.6397L38.3816 8.22466C38.3816 7.49757 38.0927 6.80028 37.5785 6.28618C37.0643 5.77208 36.367 5.48329 35.6399 5.48334Z" stroke="#09A046" stroke-width="3" stroke-linecap="round" stroke-linejoin="round"/>
<path d="M19.1925 28.3299L23.7619 31.9849L31.072 22.8461M12.7947 13.709L31.0714 13.7078M12.7952 21.0197L20.1058 21.0192" stroke="#09A046" stroke-width="3" stroke-linecap="round" stroke-linejoin="round"/>
</svg>
