<svg width="27" height="26" viewBox="0 0 27 26" fill="none" xmlns="http://www.w3.org/2000/svg">
<path d="M26.1875 12.8321H9.19938M3.203 12.8321H0.75M3.203 12.8321C3.203 12.0371 3.51881 11.2747 4.08095 10.7126C4.64309 10.1504 5.40551 9.83462 6.2005 9.83462C6.99549 9.83462 7.75791 10.1504 8.32005 10.7126C8.88219 11.2747 9.198 12.0371 9.198 12.8321C9.198 13.6271 8.88219 14.3895 8.32005 14.9517C7.75791 15.5138 6.99549 15.8296 6.2005 15.8296C5.40551 15.8296 4.64309 15.5138 4.08095 14.9517C3.51881 14.3895 3.203 13.6271 3.203 12.8321ZM26.1875 21.9168H18.284M18.284 21.9168C18.284 22.7119 17.9674 23.4752 17.4052 24.0375C16.8429 24.5997 16.0803 24.9156 15.2851 24.9156C14.4901 24.9156 13.7277 24.5984 13.1656 24.0363C12.6034 23.4742 12.2876 22.7117 12.2876 21.9168M18.284 21.9168C18.284 21.1216 17.9674 20.3597 17.4052 19.7974C16.8429 19.2351 16.0803 18.9192 15.2851 18.9192C14.4901 18.9192 13.7277 19.2351 13.1656 19.7972C12.6034 20.3593 12.2876 21.1218 12.2876 21.9168M12.2876 21.9168H0.75M26.1875 3.7475H21.9181M15.9218 3.7475H0.75M15.9218 3.7475C15.9218 2.95251 16.2376 2.19009 16.7997 1.62795C17.3618 1.06581 18.1243 0.75 18.9192 0.75C19.3129 0.75 19.7027 0.827533 20.0663 0.978171C20.43 1.12881 20.7605 1.3496 21.0388 1.62795C21.3171 1.90629 21.5379 2.23673 21.6886 2.60041C21.8392 2.96408 21.9167 3.35386 21.9167 3.7475C21.9167 4.14114 21.8392 4.53092 21.6886 4.89459C21.5379 5.25827 21.3171 5.58871 21.0388 5.86705C20.7605 6.1454 20.43 6.36619 20.0663 6.51683C19.7027 6.66747 19.3129 6.745 18.9192 6.745C18.1243 6.745 17.3618 6.42919 16.7997 5.86705C16.2376 5.30491 15.9218 4.54249 15.9218 3.7475Z" stroke="#262626" stroke-width="1.5" stroke-miterlimit="10" stroke-linecap="round"/>
</svg>
