<svg width="44" height="44" viewBox="0 0 44 44" fill="none" xmlns="http://www.w3.org/2000/svg">
<g clip-path="url(#clip0_2556_1910)">
<path d="M18.2774 10.054C18.277 8.65409 18.634 7.27726 19.3145 6.05389C19.995 4.83051 20.9765 3.80108 22.166 3.06307C23.3556 2.32506 24.7138 1.90291 26.1122 1.83658C27.5105 1.77025 28.9026 2.06194 30.1567 2.68403C31.4106 2.06251 32.8023 1.77122 34.2002 1.83773C35.5981 1.90424 36.9559 2.32635 38.1451 3.06411C39.3343 3.80188 40.3156 4.83088 40.996 6.05376C41.6765 7.27664 42.0337 8.65293 42.0338 10.0524C42.0339 11.4519 41.6769 12.8282 40.9966 14.0512C40.3163 15.2741 39.3351 16.3033 38.146 17.0412C36.9569 17.7791 35.5992 18.2014 34.2013 18.2681C32.8034 18.3348 31.4117 18.0437 30.1577 17.4223C28.9037 18.0446 27.5116 18.3365 26.1133 18.2704C24.7149 18.2042 23.3566 17.7822 22.167 17.0444C20.9773 16.3065 19.9957 15.2772 19.315 14.054C18.6343 12.8307 18.2772 11.4539 18.2774 10.054ZM33.3559 14.6002C33.5058 14.6148 33.6581 14.6221 33.8128 14.6221C34.4313 14.6207 35.043 14.4938 35.611 14.2491C36.179 14.0043 36.6913 13.6468 37.117 13.1981C37.5428 12.7495 37.873 12.2192 38.0877 11.6392C38.3024 11.0592 38.3971 10.4416 38.3661 9.82393C38.3351 9.20625 38.179 8.60129 37.9073 8.0457C37.6356 7.49012 37.254 6.99547 36.7855 6.59173C36.317 6.18799 35.7714 5.88356 35.1818 5.69689C34.5922 5.51022 33.9708 5.44519 33.3553 5.50574C34.2495 6.85365 34.7265 8.43532 34.7264 10.0529C34.7267 11.6704 34.25 13.2522 33.3559 14.6002ZM15.418 24.2186C15.1179 24.2179 14.8206 24.2762 14.5431 24.3904C14.2656 24.5046 14.0133 24.6723 13.8006 24.884L10.0541 28.631L10.0546 35.6419L20.3389 35.6412L30.9446 32.9904L37.3998 30.2338C37.6196 30.115 37.7879 29.9191 37.8723 29.6839C37.9566 29.4486 37.9512 29.1905 37.8569 28.959C37.7627 28.7275 37.5863 28.539 37.3616 28.4295C37.1369 28.3201 36.8797 28.2975 36.6393 28.366L36.6028 28.3751L24.884 31.0717L18.2788 31.0722L18.2785 27.4168L23.99 27.4165C24.4141 27.4164 24.8209 27.2479 25.1208 26.948C25.4207 26.648 25.5891 26.2413 25.5891 25.8171C25.5891 25.393 25.4205 24.9862 25.1206 24.6864C24.8207 24.3865 24.4139 24.218 23.9898 24.218L15.418 24.2186ZM29.2207 26.3232L35.7125 24.8295C36.4039 24.6477 37.1278 24.6267 37.8286 24.7682C38.5293 24.9096 39.1884 25.2098 39.7551 25.6457C40.3218 26.0816 40.7811 26.6415 41.0977 27.2825C41.4143 27.9235 41.5797 28.6285 41.5814 29.3435C41.5807 30.2113 41.3387 31.0619 40.8824 31.8001C40.426 32.5382 39.7734 33.135 38.9974 33.5235L38.948 33.5491L32.1128 36.4647L20.7887 39.2965L0.00263868 39.2979L0.0017487 26.0473L7.4696 26.0468L11.2197 22.2962C11.7723 21.7454 12.4279 21.3089 13.1491 21.0116C13.8704 20.7143 14.6431 20.5619 15.4232 20.5633L23.9895 20.5627C24.7223 20.5626 25.447 20.7157 26.1171 21.0122C26.7872 21.3088 27.3879 21.7422 27.8805 22.2847C28.3731 22.8272 28.7469 23.4667 28.9777 24.1622C29.2085 24.8577 29.2913 25.5938 29.2207 26.3232ZM6.39883 29.7022L3.65733 29.7024L3.65773 35.6423L6.39923 35.6421L6.39883 29.7022Z" fill="#1B89CD"/>
</g>
<defs>
<clipPath id="clip0_2556_1910">
<rect y="0.00294615" width="43.864" height="43.864" rx="5" fill="white"/>
</clipPath>
</defs>
</svg>
