<svg width="293" height="199" viewBox="0 0 293 199" fill="none" xmlns="http://www.w3.org/2000/svg">
<g filter="url(#filter0_d_1232_846)">
<rect x="2" y="2" width="285" height="191" rx="10" fill="url(#paint0_linear_1232_846)"/>
<rect x="2.5" y="2.5" width="284" height="190" rx="9.5" stroke="#777777" stroke-opacity="0.3"/>
</g>
<path d="M257.757 86.0001H221V52.0001" stroke="white" stroke-width="5" stroke-linecap="square"/>
<path d="M227.126 72.7778L237.336 63.3333L245.504 70.8889C246.362 70.0937 248.667 67.9668 251.048 65.77L254.291 62.778L254.299 62.7704L257.765 59.5744M249.588 59.5555H257.756V67.1111" stroke="white" stroke-width="5" stroke-linecap="square"/>
<path d="M30.904 151.728H26.248L25.448 154H23.544L27.528 142.864H29.64L33.624 154H31.704L30.904 151.728ZM30.392 150.24L28.584 145.072L26.76 150.24H30.392ZM37.9643 152.368L40.4603 145.184H42.3962L39.0363 154H36.8602L33.5162 145.184H35.4682L37.9643 152.368ZM51.055 149.376C51.055 149.707 51.0337 150.005 50.991 150.272H44.255C44.3083 150.976 44.5697 151.541 45.039 151.968C45.5083 152.395 46.0843 152.608 46.767 152.608C47.7483 152.608 48.4417 152.197 48.847 151.376H50.815C50.5483 152.187 50.063 152.853 49.359 153.376C48.6657 153.888 47.8017 154.144 46.767 154.144C45.9243 154.144 45.167 153.957 44.495 153.584C43.8337 153.2 43.311 152.667 42.927 151.984C42.5537 151.291 42.367 150.491 42.367 149.584C42.367 148.677 42.5483 147.883 42.911 147.2C43.2843 146.507 43.8017 145.973 44.463 145.6C45.135 145.227 45.903 145.04 46.767 145.04C47.599 145.04 48.3403 145.221 48.991 145.584C49.6417 145.947 50.1483 146.459 50.511 147.12C50.8737 147.771 51.055 148.523 51.055 149.376ZM49.151 148.8C49.1403 148.128 48.9003 147.589 48.431 147.184C47.9617 146.779 47.3803 146.576 46.687 146.576C46.0577 146.576 45.519 146.779 45.071 147.184C44.623 147.579 44.3563 148.117 44.271 148.8H49.151ZM53.874 146.464C54.1407 146.016 54.4927 145.669 54.93 145.424C55.378 145.168 55.906 145.04 56.514 145.04V146.928H56.05C55.3353 146.928 54.7913 147.109 54.418 147.472C54.0553 147.835 53.874 148.464 53.874 149.36V154H52.05V145.184H53.874V146.464ZM56.7826 149.552C56.7826 148.667 56.964 147.883 57.3266 147.2C57.7 146.517 58.2013 145.989 58.8306 145.616C59.4706 145.232 60.1746 145.04 60.9426 145.04C61.636 145.04 62.2386 145.179 62.7506 145.456C63.2733 145.723 63.6893 146.059 63.9986 146.464V145.184H65.8386V154H63.9986V152.688C63.6893 153.104 63.268 153.451 62.7346 153.728C62.2013 154.005 61.5933 154.144 60.9106 154.144C60.1533 154.144 59.46 153.952 58.8306 153.568C58.2013 153.173 57.7 152.629 57.3266 151.936C56.964 151.232 56.7826 150.437 56.7826 149.552ZM63.9986 149.584C63.9986 148.976 63.8706 148.448 63.6146 148C63.3693 147.552 63.044 147.211 62.6386 146.976C62.2333 146.741 61.796 146.624 61.3266 146.624C60.8573 146.624 60.42 146.741 60.0146 146.976C59.6093 147.2 59.2786 147.536 59.0226 147.984C58.7773 148.421 58.6546 148.944 58.6546 149.552C58.6546 150.16 58.7773 150.693 59.0226 151.152C59.2786 151.611 59.6093 151.963 60.0146 152.208C60.4306 152.443 60.868 152.56 61.3266 152.56C61.796 152.56 62.2333 152.443 62.6386 152.208C63.044 151.973 63.3693 151.632 63.6146 151.184C63.8706 150.725 63.9986 150.192 63.9986 149.584ZM70.9864 145.04C71.669 145.04 72.2717 145.179 72.7944 145.456C73.3277 145.723 73.7437 146.059 74.0424 146.464V145.184H75.8824V154.144C75.8824 154.955 75.7117 155.675 75.3704 156.304C75.029 156.944 74.533 157.445 73.8824 157.808C73.2424 158.171 72.4744 158.352 71.5784 158.352C70.3837 158.352 69.3917 158.069 68.6024 157.504C67.813 156.949 67.365 156.192 67.2584 155.232H69.0664C69.205 155.691 69.4984 156.059 69.9464 156.336C70.405 156.624 70.949 156.768 71.5784 156.768C72.3144 156.768 72.9064 156.544 73.3544 156.096C73.813 155.648 74.0424 154.997 74.0424 154.144V152.672C73.733 153.088 73.3117 153.44 72.7784 153.728C72.2557 154.005 71.6584 154.144 70.9864 154.144C70.2184 154.144 69.5144 153.952 68.8744 153.568C68.245 153.173 67.7437 152.629 67.3704 151.936C67.0077 151.232 66.8264 150.437 66.8264 149.552C66.8264 148.667 67.0077 147.883 67.3704 147.2C67.7437 146.517 68.245 145.989 68.8744 145.616C69.5144 145.232 70.2184 145.04 70.9864 145.04ZM74.0424 149.584C74.0424 148.976 73.9144 148.448 73.6584 148C73.413 147.552 73.0877 147.211 72.6824 146.976C72.277 146.741 71.8397 146.624 71.3704 146.624C70.901 146.624 70.4637 146.741 70.0584 146.976C69.653 147.2 69.3224 147.536 69.0664 147.984C68.821 148.421 68.6984 148.944 68.6984 149.552C68.6984 150.16 68.821 150.693 69.0664 151.152C69.3224 151.611 69.653 151.963 70.0584 152.208C70.4744 152.443 70.9117 152.56 71.3704 152.56C71.8397 152.56 72.277 152.443 72.6824 152.208C73.0877 151.973 73.413 151.632 73.6584 151.184C73.9144 150.725 74.0424 150.192 74.0424 149.584ZM85.5581 149.376C85.5581 149.707 85.5368 150.005 85.4941 150.272H78.7581C78.8115 150.976 79.0728 151.541 79.5421 151.968C80.0115 152.395 80.5875 152.608 81.2701 152.608C82.2515 152.608 82.9448 152.197 83.3501 151.376H85.3181C85.0515 152.187 84.5661 152.853 83.8621 153.376C83.1688 153.888 82.3048 154.144 81.2701 154.144C80.4275 154.144 79.6701 153.957 78.9981 153.584C78.3368 153.2 77.8141 152.667 77.4301 151.984C77.0568 151.291 76.8701 150.491 76.8701 149.584C76.8701 148.677 77.0515 147.883 77.4141 147.2C77.7875 146.507 78.3048 145.973 78.9661 145.6C79.6381 145.227 80.4061 145.04 81.2701 145.04C82.1021 145.04 82.8435 145.221 83.4941 145.584C84.1448 145.947 84.6515 146.459 85.0141 147.12C85.3768 147.771 85.5581 148.523 85.5581 149.376ZM83.6541 148.8C83.6435 148.128 83.4035 147.589 82.9341 147.184C82.4648 146.779 81.8835 146.576 81.1901 146.576C80.5608 146.576 80.0221 146.779 79.5741 147.184C79.1261 147.579 78.8595 148.117 78.7741 148.8H83.6541ZM89.3014 149.552C89.3014 148.667 89.4827 147.883 89.8454 147.2C90.2187 146.517 90.72 145.989 91.3494 145.616C91.9894 145.232 92.6934 145.04 93.4614 145.04C94.1547 145.04 94.7574 145.179 95.2694 145.456C95.792 145.723 96.208 146.059 96.5174 146.464V145.184H98.3574V154H96.5174V152.688C96.208 153.104 95.7867 153.451 95.2534 153.728C94.72 154.005 94.112 154.144 93.4294 154.144C92.672 154.144 91.9787 153.952 91.3494 153.568C90.72 153.173 90.2187 152.629 89.8454 151.936C89.4827 151.232 89.3014 150.437 89.3014 149.552ZM96.5174 149.584C96.5174 148.976 96.3894 148.448 96.1334 148C95.888 147.552 95.5627 147.211 95.1574 146.976C94.752 146.741 94.3147 146.624 93.8454 146.624C93.376 146.624 92.9387 146.741 92.5334 146.976C92.128 147.2 91.7974 147.536 91.5414 147.984C91.296 148.421 91.1734 148.944 91.1734 149.552C91.1734 150.16 91.296 150.693 91.5414 151.152C91.7974 151.611 92.128 151.963 92.5334 152.208C92.9494 152.443 93.3867 152.56 93.8454 152.56C94.3147 152.56 94.752 152.443 95.1574 152.208C95.5627 151.973 95.888 151.632 96.1334 151.184C96.3894 150.725 96.5174 150.192 96.5174 149.584ZM110.625 145.04C111.318 145.04 111.937 145.184 112.481 145.472C113.036 145.76 113.468 146.187 113.777 146.752C114.097 147.317 114.257 148 114.257 148.8V154H112.449V149.072C112.449 148.283 112.252 147.68 111.857 147.264C111.462 146.837 110.924 146.624 110.241 146.624C109.558 146.624 109.014 146.837 108.609 147.264C108.214 147.68 108.017 148.283 108.017 149.072V154H106.209V149.072C106.209 148.283 106.012 147.68 105.617 147.264C105.222 146.837 104.684 146.624 104.001 146.624C103.318 146.624 102.774 146.837 102.369 147.264C101.974 147.68 101.777 148.283 101.777 149.072V154H99.9531V145.184H101.777V146.192C102.076 145.829 102.454 145.547 102.913 145.344C103.372 145.141 103.862 145.04 104.385 145.04C105.089 145.04 105.718 145.189 106.273 145.488C106.828 145.787 107.254 146.219 107.553 146.784C107.82 146.251 108.236 145.829 108.801 145.52C109.366 145.2 109.974 145.04 110.625 145.04ZM119.602 154.144C118.77 154.144 118.018 153.957 117.346 153.584C116.674 153.2 116.146 152.667 115.762 151.984C115.378 151.291 115.186 150.491 115.186 149.584C115.186 148.688 115.383 147.893 115.778 147.2C116.173 146.507 116.711 145.973 117.394 145.6C118.077 145.227 118.839 145.04 119.682 145.04C120.525 145.04 121.287 145.227 121.97 145.6C122.653 145.973 123.191 146.507 123.586 147.2C123.981 147.893 124.178 148.688 124.178 149.584C124.178 150.48 123.975 151.275 123.57 151.968C123.165 152.661 122.61 153.2 121.906 153.584C121.213 153.957 120.445 154.144 119.602 154.144ZM119.602 152.56C120.071 152.56 120.509 152.448 120.914 152.224C121.33 152 121.666 151.664 121.922 151.216C122.178 150.768 122.306 150.224 122.306 149.584C122.306 148.944 122.183 148.405 121.938 147.968C121.693 147.52 121.367 147.184 120.962 146.96C120.557 146.736 120.119 146.624 119.65 146.624C119.181 146.624 118.743 146.736 118.338 146.96C117.943 147.184 117.629 147.52 117.394 147.968C117.159 148.405 117.042 148.944 117.042 149.584C117.042 150.533 117.282 151.269 117.762 151.792C118.253 152.304 118.866 152.56 119.602 152.56ZM133.165 145.184V154H131.341V152.96C131.053 153.323 130.675 153.611 130.205 153.824C129.747 154.027 129.256 154.128 128.733 154.128C128.04 154.128 127.416 153.984 126.861 153.696C126.317 153.408 125.885 152.981 125.565 152.416C125.256 151.851 125.101 151.168 125.101 150.368V145.184H126.909V150.096C126.909 150.885 127.107 151.493 127.501 151.92C127.896 152.336 128.435 152.544 129.117 152.544C129.8 152.544 130.339 152.336 130.733 151.92C131.139 151.493 131.341 150.885 131.341 150.096V145.184H133.165ZM139.22 145.04C139.913 145.04 140.532 145.184 141.076 145.472C141.631 145.76 142.063 146.187 142.372 146.752C142.681 147.317 142.836 148 142.836 148.8V154H141.028V149.072C141.028 148.283 140.831 147.68 140.436 147.264C140.041 146.837 139.503 146.624 138.82 146.624C138.137 146.624 137.593 146.837 137.188 147.264C136.793 147.68 136.596 148.283 136.596 149.072V154H134.772V145.184H136.596V146.192C136.895 145.829 137.273 145.547 137.732 145.344C138.201 145.141 138.697 145.04 139.22 145.04ZM146.49 146.672V151.552C146.49 151.883 146.565 152.123 146.714 152.272C146.874 152.411 147.141 152.48 147.514 152.48H148.634V154H147.194C146.373 154 145.744 153.808 145.306 153.424C144.869 153.04 144.65 152.416 144.65 151.552V146.672H143.61V145.184H144.65V142.992H146.49V145.184H148.634V146.672H146.49ZM156.696 154.144C155.864 154.144 155.112 153.957 154.44 153.584C153.768 153.2 153.24 152.667 152.856 151.984C152.472 151.291 152.28 150.491 152.28 149.584C152.28 148.688 152.477 147.893 152.872 147.2C153.267 146.507 153.805 145.973 154.488 145.6C155.171 145.227 155.933 145.04 156.776 145.04C157.619 145.04 158.381 145.227 159.064 145.6C159.747 145.973 160.285 146.507 160.68 147.2C161.075 147.893 161.272 148.688 161.272 149.584C161.272 150.48 161.069 151.275 160.664 151.968C160.259 152.661 159.704 153.2 159 153.584C158.307 153.957 157.539 154.144 156.696 154.144ZM156.696 152.56C157.165 152.56 157.603 152.448 158.008 152.224C158.424 152 158.76 151.664 159.016 151.216C159.272 150.768 159.4 150.224 159.4 149.584C159.4 148.944 159.277 148.405 159.032 147.968C158.787 147.52 158.461 147.184 158.056 146.96C157.651 146.736 157.213 146.624 156.744 146.624C156.275 146.624 155.837 146.736 155.432 146.96C155.037 147.184 154.723 147.52 154.488 147.968C154.253 148.405 154.136 148.944 154.136 149.584C154.136 150.533 154.376 151.269 154.856 151.792C155.347 152.304 155.96 152.56 156.696 152.56ZM165.971 146.672H164.339V154H162.499V146.672H161.459V145.184H162.499V144.56C162.499 143.547 162.766 142.811 163.299 142.352C163.843 141.883 164.691 141.648 165.843 141.648V143.168C165.288 143.168 164.899 143.275 164.675 143.488C164.451 143.691 164.339 144.048 164.339 144.56V145.184H165.971V146.672ZM180.816 145.04C181.509 145.04 182.128 145.184 182.672 145.472C183.226 145.76 183.658 146.187 183.968 146.752C184.288 147.317 184.448 148 184.448 148.8V154H182.64V149.072C182.64 148.283 182.442 147.68 182.048 147.264C181.653 146.837 181.114 146.624 180.432 146.624C179.749 146.624 179.205 146.837 178.8 147.264C178.405 147.68 178.208 148.283 178.208 149.072V154H176.4V149.072C176.4 148.283 176.202 147.68 175.808 147.264C175.413 146.837 174.874 146.624 174.192 146.624C173.509 146.624 172.965 146.837 172.56 147.264C172.165 147.68 171.968 148.283 171.968 149.072V154H170.144V145.184H171.968V146.192C172.266 145.829 172.645 145.547 173.104 145.344C173.562 145.141 174.053 145.04 174.576 145.04C175.28 145.04 175.909 145.189 176.464 145.488C177.018 145.787 177.445 146.219 177.744 146.784C178.01 146.251 178.426 145.829 178.992 145.52C179.557 145.2 180.165 145.04 180.816 145.04ZM189.793 154.144C188.961 154.144 188.209 153.957 187.537 153.584C186.865 153.2 186.337 152.667 185.953 151.984C185.569 151.291 185.377 150.491 185.377 149.584C185.377 148.688 185.574 147.893 185.969 147.2C186.363 146.507 186.902 145.973 187.585 145.6C188.267 145.227 189.03 145.04 189.873 145.04C190.715 145.04 191.478 145.227 192.161 145.6C192.843 145.973 193.382 146.507 193.777 147.2C194.171 147.893 194.369 148.688 194.369 149.584C194.369 150.48 194.166 151.275 193.761 151.968C193.355 152.661 192.801 153.2 192.097 153.584C191.403 153.957 190.635 154.144 189.793 154.144ZM189.793 152.56C190.262 152.56 190.699 152.448 191.105 152.224C191.521 152 191.857 151.664 192.113 151.216C192.369 150.768 192.497 150.224 192.497 149.584C192.497 148.944 192.374 148.405 192.129 147.968C191.883 147.52 191.558 147.184 191.153 146.96C190.747 146.736 190.31 146.624 189.841 146.624C189.371 146.624 188.934 146.736 188.529 146.96C188.134 147.184 187.819 147.52 187.585 147.968C187.35 148.405 187.233 148.944 187.233 149.584C187.233 150.533 187.473 151.269 187.953 151.792C188.443 152.304 189.057 152.56 189.793 152.56ZM199.82 145.04C200.513 145.04 201.132 145.184 201.676 145.472C202.231 145.76 202.663 146.187 202.972 146.752C203.281 147.317 203.436 148 203.436 148.8V154H201.628V149.072C201.628 148.283 201.431 147.68 201.036 147.264C200.641 146.837 200.103 146.624 199.42 146.624C198.737 146.624 198.193 146.837 197.788 147.264C197.393 147.68 197.196 148.283 197.196 149.072V154H195.372V145.184H197.196V146.192C197.495 145.829 197.873 145.547 198.332 145.344C198.801 145.141 199.297 145.04 199.82 145.04ZM213.042 149.376C213.042 149.707 213.021 150.005 212.978 150.272H206.242C206.296 150.976 206.557 151.541 207.026 151.968C207.496 152.395 208.072 152.608 208.754 152.608C209.736 152.608 210.429 152.197 210.834 151.376H212.802C212.536 152.187 212.05 152.853 211.346 153.376C210.653 153.888 209.789 154.144 208.754 154.144C207.912 154.144 207.154 153.957 206.482 153.584C205.821 153.2 205.298 152.667 204.914 151.984C204.541 151.291 204.354 150.491 204.354 149.584C204.354 148.677 204.536 147.883 204.898 147.2C205.272 146.507 205.789 145.973 206.45 145.6C207.122 145.227 207.89 145.04 208.754 145.04C209.586 145.04 210.328 145.221 210.978 145.584C211.629 145.947 212.136 146.459 212.498 147.12C212.861 147.771 213.042 148.523 213.042 149.376ZM211.138 148.8C211.128 148.128 210.888 147.589 210.418 147.184C209.949 146.779 209.368 146.576 208.674 146.576C208.045 146.576 207.506 146.779 207.058 147.184C206.61 147.579 206.344 148.117 206.258 148.8H211.138ZM221.973 145.184L216.565 158.144H214.677L216.469 153.856L212.997 145.184H215.029L217.509 151.904L220.085 145.184H221.973ZM27.4 169.144C26.7067 169.144 26.0827 169.021 25.528 168.776C24.984 168.52 24.552 168.179 24.232 167.752C23.912 167.315 23.7413 166.829 23.72 166.296H25.608C25.64 166.669 25.816 166.984 26.136 167.24C26.4667 167.485 26.8773 167.608 27.368 167.608C27.88 167.608 28.2747 167.512 28.552 167.32C28.84 167.117 28.984 166.861 28.984 166.552C28.984 166.221 28.824 165.976 28.504 165.816C28.1947 165.656 27.6987 165.48 27.016 165.288C26.3547 165.107 25.816 164.931 25.4 164.76C24.984 164.589 24.6213 164.328 24.312 163.976C24.0133 163.624 23.864 163.16 23.864 162.584C23.864 162.115 24.0027 161.688 24.28 161.304C24.5573 160.909 24.952 160.6 25.464 160.376C25.9867 160.152 26.584 160.04 27.256 160.04C28.2587 160.04 29.064 160.296 29.672 160.808C30.2907 161.309 30.6213 161.997 30.664 162.872H28.84C28.808 162.477 28.648 162.163 28.36 161.928C28.072 161.693 27.6827 161.576 27.192 161.576C26.712 161.576 26.344 161.667 26.088 161.848C25.832 162.029 25.704 162.269 25.704 162.568C25.704 162.803 25.7893 163 25.96 163.16C26.1307 163.32 26.3387 163.448 26.584 163.544C26.8293 163.629 27.192 163.741 27.672 163.88C28.312 164.051 28.8347 164.227 29.24 164.408C29.656 164.579 30.0133 164.835 30.312 165.176C30.6107 165.517 30.7653 165.971 30.776 166.536C30.776 167.037 30.6373 167.485 30.36 167.88C30.0827 168.275 29.688 168.584 29.176 168.808C28.6747 169.032 28.0827 169.144 27.4 169.144ZM33.7709 161.48C34.0802 161.075 34.5015 160.733 35.0349 160.456C35.5682 160.179 36.1709 160.04 36.8429 160.04C37.6109 160.04 38.3095 160.232 38.9389 160.616C39.5789 160.989 40.0802 161.517 40.4429 162.2C40.8055 162.883 40.9869 163.667 40.9869 164.552C40.9869 165.437 40.8055 166.232 40.4429 166.936C40.0802 167.629 39.5789 168.173 38.9389 168.568C38.3095 168.952 37.6109 169.144 36.8429 169.144C36.1709 169.144 35.5735 169.011 35.0509 168.744C34.5282 168.467 34.1015 168.125 33.7709 167.72V173.192H31.9469V160.184H33.7709V161.48ZM39.1309 164.552C39.1309 163.944 39.0029 163.421 38.7469 162.984C38.5015 162.536 38.1709 162.2 37.7549 161.976C37.3495 161.741 36.9122 161.624 36.4429 161.624C35.9842 161.624 35.5469 161.741 35.1309 161.976C34.7255 162.211 34.3949 162.552 34.1389 163C33.8935 163.448 33.7709 163.976 33.7709 164.584C33.7709 165.192 33.8935 165.725 34.1389 166.184C34.3949 166.632 34.7255 166.973 35.1309 167.208C35.5469 167.443 35.9842 167.56 36.4429 167.56C36.9122 167.56 37.3495 167.443 37.7549 167.208C38.1709 166.963 38.5015 166.611 38.7469 166.152C39.0029 165.693 39.1309 165.16 39.1309 164.552ZM50.0706 164.376C50.0706 164.707 50.0493 165.005 50.0066 165.272H43.2706C43.324 165.976 43.5853 166.541 44.0546 166.968C44.524 167.395 45.1 167.608 45.7826 167.608C46.764 167.608 47.4573 167.197 47.8626 166.376H49.8306C49.564 167.187 49.0786 167.853 48.3746 168.376C47.6813 168.888 46.8173 169.144 45.7826 169.144C44.94 169.144 44.1826 168.957 43.5106 168.584C42.8493 168.2 42.3266 167.667 41.9426 166.984C41.5693 166.291 41.3826 165.491 41.3826 164.584C41.3826 163.677 41.564 162.883 41.9266 162.2C42.3 161.507 42.8173 160.973 43.4786 160.6C44.1506 160.227 44.9186 160.04 45.7826 160.04C46.6146 160.04 47.356 160.221 48.0066 160.584C48.6573 160.947 49.164 161.459 49.5266 162.12C49.8893 162.771 50.0706 163.523 50.0706 164.376ZM48.1666 163.8C48.156 163.128 47.916 162.589 47.4466 162.184C46.9773 161.779 46.396 161.576 45.7026 161.576C45.0733 161.576 44.5346 161.779 44.0866 162.184C43.6386 162.579 43.372 163.117 43.2866 163.8H48.1666ZM55.5136 160.04C56.207 160.04 56.8256 160.184 57.3696 160.472C57.9243 160.76 58.3563 161.187 58.6656 161.752C58.975 162.317 59.1296 163 59.1296 163.8V169H57.3216V164.072C57.3216 163.283 57.1243 162.68 56.7296 162.264C56.335 161.837 55.7963 161.624 55.1136 161.624C54.431 161.624 53.887 161.837 53.4816 162.264C53.087 162.68 52.8896 163.283 52.8896 164.072V169H51.0656V160.184H52.8896V161.192C53.1883 160.829 53.567 160.547 54.0256 160.344C54.495 160.141 54.991 160.04 55.5136 160.04ZM62.7842 161.672V166.552C62.7842 166.883 62.8589 167.123 63.0082 167.272C63.1682 167.411 63.4349 167.48 63.8082 167.48H64.9282V169H63.4882C62.6669 169 62.0376 168.808 61.6002 168.424C61.1629 168.04 60.9442 167.416 60.9442 166.552V161.672H59.9042V160.184H60.9442V157.992H62.7842V160.184H64.9282V161.672H62.7842ZM70.9896 161.48C71.299 161.075 71.7203 160.733 72.2536 160.456C72.787 160.179 73.3896 160.04 74.0616 160.04C74.8296 160.04 75.5283 160.232 76.1576 160.616C76.7976 160.989 77.299 161.517 77.6616 162.2C78.0243 162.883 78.2056 163.667 78.2056 164.552C78.2056 165.437 78.0243 166.232 77.6616 166.936C77.299 167.629 76.7976 168.173 76.1576 168.568C75.5283 168.952 74.8296 169.144 74.0616 169.144C73.3896 169.144 72.7923 169.011 72.2696 168.744C71.747 168.467 71.3203 168.125 70.9896 167.72V173.192H69.1656V160.184H70.9896V161.48ZM76.3496 164.552C76.3496 163.944 76.2216 163.421 75.9656 162.984C75.7203 162.536 75.3896 162.2 74.9736 161.976C74.5683 161.741 74.131 161.624 73.6616 161.624C73.203 161.624 72.7656 161.741 72.3496 161.976C71.9443 162.211 71.6136 162.552 71.3576 163C71.1123 163.448 70.9896 163.976 70.9896 164.584C70.9896 165.192 71.1123 165.725 71.3576 166.184C71.6136 166.632 71.9443 166.973 72.3496 167.208C72.7656 167.443 73.203 167.56 73.6616 167.56C74.131 167.56 74.5683 167.443 74.9736 167.208C75.3896 166.963 75.7203 166.611 75.9656 166.152C76.2216 165.693 76.3496 165.16 76.3496 164.552ZM87.2894 164.376C87.2894 164.707 87.268 165.005 87.2254 165.272H80.4894C80.5427 165.976 80.804 166.541 81.2734 166.968C81.7427 167.395 82.3187 167.608 83.0014 167.608C83.9827 167.608 84.676 167.197 85.0814 166.376H87.0494C86.7827 167.187 86.2974 167.853 85.5934 168.376C84.9 168.888 84.036 169.144 83.0014 169.144C82.1587 169.144 81.4014 168.957 80.7294 168.584C80.068 168.2 79.5454 167.667 79.1614 166.984C78.788 166.291 78.6014 165.491 78.6014 164.584C78.6014 163.677 78.7827 162.883 79.1454 162.2C79.5187 161.507 80.036 160.973 80.6974 160.6C81.3694 160.227 82.1374 160.04 83.0014 160.04C83.8334 160.04 84.5747 160.221 85.2254 160.584C85.876 160.947 86.3827 161.459 86.7454 162.12C87.108 162.771 87.2894 163.523 87.2894 164.376ZM85.3854 163.8C85.3747 163.128 85.1347 162.589 84.6654 162.184C84.196 161.779 83.6147 161.576 82.9214 161.576C82.292 161.576 81.7534 161.779 81.3054 162.184C80.8574 162.579 80.5907 163.117 80.5054 163.8H85.3854ZM90.1084 161.464C90.375 161.016 90.727 160.669 91.1644 160.424C91.6124 160.168 92.1404 160.04 92.7484 160.04V161.928H92.2844C91.5697 161.928 91.0257 162.109 90.6524 162.472C90.2897 162.835 90.1084 163.464 90.1084 164.36V169H88.2844V160.184H90.1084V161.464ZM99.1093 161.672V166.552C99.1093 166.883 99.1839 167.123 99.3333 167.272C99.4933 167.411 99.7599 167.48 100.133 167.48H101.253V169H99.8133C98.9919 169 98.3626 168.808 97.9253 168.424C97.4879 168.04 97.2693 167.416 97.2693 166.552V161.672H96.2293V160.184H97.2693V157.992H99.1093V160.184H101.253V161.672H99.1093ZM103.958 161.464C104.225 161.016 104.577 160.669 105.014 160.424C105.462 160.168 105.99 160.04 106.598 160.04V161.928H106.134C105.42 161.928 104.876 162.109 104.502 162.472C104.14 162.835 103.958 163.464 103.958 164.36V169H102.134V160.184H103.958V161.464ZM106.867 164.552C106.867 163.667 107.048 162.883 107.411 162.2C107.784 161.517 108.286 160.989 108.915 160.616C109.555 160.232 110.259 160.04 111.027 160.04C111.72 160.04 112.323 160.179 112.835 160.456C113.358 160.723 113.774 161.059 114.083 161.464V160.184H115.923V169H114.083V167.688C113.774 168.104 113.352 168.451 112.819 168.728C112.286 169.005 111.678 169.144 110.995 169.144C110.238 169.144 109.544 168.952 108.915 168.568C108.286 168.173 107.784 167.629 107.411 166.936C107.048 166.232 106.867 165.437 106.867 164.552ZM114.083 164.584C114.083 163.976 113.955 163.448 113.699 163C113.454 162.552 113.128 162.211 112.723 161.976C112.318 161.741 111.88 161.624 111.411 161.624C110.942 161.624 110.504 161.741 110.099 161.976C109.694 162.2 109.363 162.536 109.107 162.984C108.862 163.421 108.739 163.944 108.739 164.552C108.739 165.16 108.862 165.693 109.107 166.152C109.363 166.611 109.694 166.963 110.099 167.208C110.515 167.443 110.952 167.56 111.411 167.56C111.88 167.56 112.318 167.443 112.723 167.208C113.128 166.973 113.454 166.632 113.699 166.184C113.955 165.725 114.083 165.192 114.083 164.584ZM121.967 160.04C122.66 160.04 123.279 160.184 123.823 160.472C124.377 160.76 124.809 161.187 125.119 161.752C125.428 162.317 125.583 163 125.583 163.8V169H123.775V164.072C123.775 163.283 123.577 162.68 123.183 162.264C122.788 161.837 122.249 161.624 121.567 161.624C120.884 161.624 120.34 161.837 119.935 162.264C119.54 162.68 119.343 163.283 119.343 164.072V169H117.519V160.184H119.343V161.192C119.641 160.829 120.02 160.547 120.479 160.344C120.948 160.141 121.444 160.04 121.967 160.04ZM130.309 169.144C129.616 169.144 128.992 169.021 128.437 168.776C127.893 168.52 127.461 168.179 127.141 167.752C126.821 167.315 126.651 166.829 126.629 166.296H128.517C128.549 166.669 128.725 166.984 129.045 167.24C129.376 167.485 129.787 167.608 130.277 167.608C130.789 167.608 131.184 167.512 131.461 167.32C131.749 167.117 131.893 166.861 131.893 166.552C131.893 166.221 131.733 165.976 131.413 165.816C131.104 165.656 130.608 165.48 129.925 165.288C129.264 165.107 128.725 164.931 128.309 164.76C127.893 164.589 127.531 164.328 127.221 163.976C126.923 163.624 126.773 163.16 126.773 162.584C126.773 162.115 126.912 161.688 127.189 161.304C127.467 160.909 127.861 160.6 128.373 160.376C128.896 160.152 129.493 160.04 130.165 160.04C131.168 160.04 131.973 160.296 132.581 160.808C133.2 161.309 133.531 161.997 133.573 162.872H131.749C131.717 162.477 131.557 162.163 131.269 161.928C130.981 161.693 130.592 161.576 130.101 161.576C129.621 161.576 129.253 161.667 128.997 161.848C128.741 162.029 128.613 162.269 128.613 162.568C128.613 162.803 128.699 163 128.869 163.16C129.04 163.32 129.248 163.448 129.493 163.544C129.739 163.629 130.101 163.741 130.581 163.88C131.221 164.051 131.744 164.227 132.149 164.408C132.565 164.579 132.923 164.835 133.221 165.176C133.52 165.517 133.675 165.971 133.685 166.536C133.685 167.037 133.547 167.485 133.269 167.88C132.992 168.275 132.597 168.584 132.085 168.808C131.584 169.032 130.992 169.144 130.309 169.144ZM134.248 164.552C134.248 163.667 134.43 162.883 134.792 162.2C135.166 161.517 135.667 160.989 136.296 160.616C136.936 160.232 137.64 160.04 138.408 160.04C139.102 160.04 139.704 160.179 140.216 160.456C140.739 160.723 141.155 161.059 141.464 161.464V160.184H143.304V169H141.464V167.688C141.155 168.104 140.734 168.451 140.2 168.728C139.667 169.005 139.059 169.144 138.376 169.144C137.619 169.144 136.926 168.952 136.296 168.568C135.667 168.173 135.166 167.629 134.792 166.936C134.43 166.232 134.248 165.437 134.248 164.552ZM141.464 164.584C141.464 163.976 141.336 163.448 141.08 163C140.835 162.552 140.51 162.211 140.104 161.976C139.699 161.741 139.262 161.624 138.792 161.624C138.323 161.624 137.886 161.741 137.48 161.976C137.075 162.2 136.744 162.536 136.488 162.984C136.243 163.421 136.12 163.944 136.12 164.552C136.12 165.16 136.243 165.693 136.488 166.152C136.744 166.611 137.075 166.963 137.48 167.208C137.896 167.443 138.334 167.56 138.792 167.56C139.262 167.56 139.699 167.443 140.104 167.208C140.51 166.973 140.835 166.632 141.08 166.184C141.336 165.725 141.464 165.192 141.464 164.584ZM144.292 164.584C144.292 163.677 144.473 162.883 144.836 162.2C145.209 161.507 145.721 160.973 146.372 160.6C147.023 160.227 147.769 160.04 148.612 160.04C149.679 160.04 150.559 160.296 151.252 160.808C151.956 161.309 152.431 162.029 152.676 162.968H150.708C150.548 162.531 150.292 162.189 149.94 161.944C149.588 161.699 149.145 161.576 148.612 161.576C147.865 161.576 147.268 161.843 146.82 162.376C146.383 162.899 146.164 163.635 146.164 164.584C146.164 165.533 146.383 166.275 146.82 166.808C147.268 167.341 147.865 167.608 148.612 167.608C149.668 167.608 150.367 167.144 150.708 166.216H152.676C152.42 167.112 151.94 167.827 151.236 168.36C150.532 168.883 149.657 169.144 148.612 169.144C147.769 169.144 147.023 168.957 146.372 168.584C145.721 168.2 145.209 167.667 144.836 166.984C144.473 166.291 144.292 165.491 144.292 164.584ZM155.822 161.672V166.552C155.822 166.883 155.896 167.123 156.046 167.272C156.206 167.411 156.472 167.48 156.846 167.48H157.966V169H156.526C155.704 169 155.075 168.808 154.638 168.424C154.2 168.04 153.982 167.416 153.982 166.552V161.672H152.942V160.184H153.982V157.992H155.822V160.184H157.966V161.672H155.822ZM159.775 159.016C159.444 159.016 159.167 158.904 158.943 158.68C158.719 158.456 158.607 158.179 158.607 157.848C158.607 157.517 158.719 157.24 158.943 157.016C159.167 156.792 159.444 156.68 159.775 156.68C160.095 156.68 160.367 156.792 160.591 157.016C160.815 157.24 160.927 157.517 160.927 157.848C160.927 158.179 160.815 158.456 160.591 158.68C160.367 158.904 160.095 159.016 159.775 159.016ZM160.671 160.184V169H158.847V160.184H160.671ZM166.09 169.144C165.258 169.144 164.506 168.957 163.834 168.584C163.162 168.2 162.634 167.667 162.25 166.984C161.866 166.291 161.674 165.491 161.674 164.584C161.674 163.688 161.871 162.893 162.266 162.2C162.66 161.507 163.199 160.973 163.882 160.6C164.564 160.227 165.327 160.04 166.17 160.04C167.012 160.04 167.775 160.227 168.458 160.6C169.14 160.973 169.679 161.507 170.074 162.2C170.468 162.893 170.666 163.688 170.666 164.584C170.666 165.48 170.463 166.275 170.058 166.968C169.652 167.661 169.098 168.2 168.394 168.584C167.7 168.957 166.932 169.144 166.09 169.144ZM166.09 167.56C166.559 167.56 166.996 167.448 167.402 167.224C167.818 167 168.154 166.664 168.41 166.216C168.666 165.768 168.794 165.224 168.794 164.584C168.794 163.944 168.671 163.405 168.426 162.968C168.18 162.52 167.855 162.184 167.45 161.96C167.044 161.736 166.607 161.624 166.138 161.624C165.668 161.624 165.231 161.736 164.826 161.96C164.431 162.184 164.116 162.52 163.882 162.968C163.647 163.405 163.53 163.944 163.53 164.584C163.53 165.533 163.77 166.269 164.25 166.792C164.74 167.304 165.354 167.56 166.09 167.56ZM176.117 160.04C176.81 160.04 177.429 160.184 177.973 160.472C178.527 160.76 178.959 161.187 179.269 161.752C179.578 162.317 179.733 163 179.733 163.8V169H177.925V164.072C177.925 163.283 177.727 162.68 177.333 162.264C176.938 161.837 176.399 161.624 175.717 161.624C175.034 161.624 174.49 161.837 174.085 162.264C173.69 162.68 173.493 163.283 173.493 164.072V169H171.669V160.184H173.493V161.192C173.791 160.829 174.17 160.547 174.629 160.344C175.098 160.141 175.594 160.04 176.117 160.04Z" fill="white"/>
<g filter="url(#filter1_d_1232_846)">
<path d="M34.748 60.584C37.7107 60.584 40.028 61.1853 41.7 62.388C43.372 63.5613 44.4867 65.2187 45.044 67.36H47.728V70.176H45.44C45.4693 70.3813 45.484 70.5867 45.484 70.792C45.484 70.9973 45.484 71.188 45.484 71.364C45.484 71.6867 45.4693 72.0093 45.44 72.332C45.44 72.6547 45.4253 72.9627 45.396 73.256H47.728V76.028H44.78C44.34 77.348 43.636 78.5213 42.668 79.548C41.7293 80.5747 40.4973 81.396 38.972 82.012C37.4467 82.5987 35.5693 82.892 33.34 82.892H31.888V92H26.432V76.028H23.44V73.256H26.432V70.176H23.44V67.36H26.432V60.584H34.748ZM38.928 76.028H31.888V78.36H33.208C34.5867 78.36 35.76 78.184 36.728 77.832C37.696 77.4507 38.4293 76.8493 38.928 76.028ZM39.896 70.176H31.888V73.256H39.852C39.9107 72.992 39.94 72.728 39.94 72.464C39.94 72.1707 39.94 71.8773 39.94 71.584C39.94 71.32 39.94 71.0853 39.94 70.88C39.94 70.6453 39.9253 70.4107 39.896 70.176ZM34.528 65.116H31.888V67.36H39.148C38.7667 66.6267 38.1947 66.0693 37.432 65.688C36.6693 65.3067 35.7013 65.116 34.528 65.116ZM48.3997 68.372C48.5464 65.4387 49.573 63.18 51.4797 61.596C53.4157 59.9827 55.953 59.176 59.0917 59.176C61.233 59.176 63.0664 59.5573 64.5917 60.32C66.117 61.0533 67.261 62.0653 68.0237 63.356C68.8157 64.6173 69.2117 66.0547 69.2117 67.668C69.2117 69.516 68.7277 71.0853 67.7597 72.376C66.821 73.6373 65.6917 74.488 64.3717 74.928V75.104C66.073 75.632 67.393 76.5707 68.3317 77.92C69.2997 79.2693 69.7837 81 69.7837 83.112C69.7837 84.872 69.373 86.4413 68.5517 87.82C67.7597 89.1987 66.5717 90.284 64.9877 91.076C63.433 91.8387 61.5557 92.22 59.3557 92.22C56.041 92.22 53.3424 91.384 51.2597 89.712C49.177 88.04 48.077 85.576 47.9597 82.32H53.9437C54.0024 83.7573 54.4864 84.916 55.3957 85.796C56.3344 86.6467 57.6104 87.072 59.2237 87.072C60.7197 87.072 61.8637 86.6613 62.6557 85.84C63.477 84.9893 63.8877 83.904 63.8877 82.584C63.8877 80.824 63.3304 79.5627 62.2157 78.8C61.101 78.0373 59.3704 77.656 57.0237 77.656H55.7477V72.596H57.0237C61.189 72.596 63.2717 71.2027 63.2717 68.416C63.2717 67.1547 62.8904 66.172 62.1277 65.468C61.3944 64.764 60.3237 64.412 58.9157 64.412C57.537 64.412 56.4664 64.7933 55.7037 65.556C54.9704 66.2893 54.545 67.228 54.4277 68.372H48.3997ZM72.4515 75.544C72.4515 70.4693 73.3609 66.4947 75.1795 63.62C77.0275 60.7453 80.0782 59.308 84.3315 59.308C88.5849 59.308 91.6209 60.7453 93.4395 63.62C95.2875 66.4947 96.2115 70.4693 96.2115 75.544C96.2115 80.648 95.2875 84.652 93.4395 87.556C91.6209 90.46 88.5849 91.912 84.3315 91.912C80.0782 91.912 77.0275 90.46 75.1795 87.556C73.3609 84.652 72.4515 80.648 72.4515 75.544ZM90.1395 75.544C90.1395 73.3733 89.9929 71.5547 89.6995 70.088C89.4355 68.592 88.8782 67.3747 88.0275 66.436C87.2062 65.4973 85.9742 65.028 84.3315 65.028C82.6889 65.028 81.4422 65.4973 80.5915 66.436C79.7702 67.3747 79.2129 68.592 78.9195 70.088C78.6555 71.5547 78.5235 73.3733 78.5235 75.544C78.5235 77.7733 78.6555 79.6507 78.9195 81.176C79.1835 82.672 79.7409 83.8893 80.5915 84.828C81.4422 85.7373 82.6889 86.192 84.3315 86.192C85.9742 86.192 87.2209 85.7373 88.0715 84.828C88.9222 83.8893 89.4795 82.672 89.7435 81.176C90.0075 79.6507 90.1395 77.7733 90.1395 75.544ZM98.6968 75.544C98.6968 70.4693 99.6062 66.4947 101.425 63.62C103.273 60.7453 106.324 59.308 110.577 59.308C114.83 59.308 117.866 60.7453 119.685 63.62C121.533 66.4947 122.457 70.4693 122.457 75.544C122.457 80.648 121.533 84.652 119.685 87.556C117.866 90.46 114.83 91.912 110.577 91.912C106.324 91.912 103.273 90.46 101.425 87.556C99.6062 84.652 98.6968 80.648 98.6968 75.544ZM116.385 75.544C116.385 73.3733 116.238 71.5547 115.945 70.088C115.681 68.592 115.124 67.3747 114.273 66.436C113.452 65.4973 112.22 65.028 110.577 65.028C108.934 65.028 107.688 65.4973 106.837 66.436C106.016 67.3747 105.458 68.592 105.165 70.088C104.901 71.5547 104.769 73.3733 104.769 75.544C104.769 77.7733 104.901 79.6507 105.165 81.176C105.429 82.672 105.986 83.8893 106.837 84.828C107.688 85.7373 108.934 86.192 110.577 86.192C112.22 86.192 113.466 85.7373 114.317 84.828C115.168 83.8893 115.725 82.672 115.989 81.176C116.253 79.6507 116.385 77.7733 116.385 75.544ZM128.374 92.308C127.259 92.308 126.335 91.9707 125.602 91.296C124.898 90.592 124.546 89.7267 124.546 88.7C124.546 87.6733 124.898 86.8227 125.602 86.148C126.335 85.444 127.259 85.092 128.374 85.092C129.459 85.092 130.354 85.444 131.058 86.148C131.762 86.8227 132.114 87.6733 132.114 88.7C132.114 89.7267 131.762 90.592 131.058 91.296C130.354 91.9707 129.459 92.308 128.374 92.308ZM134.172 75.544C134.172 70.4693 135.081 66.4947 136.9 63.62C138.748 60.7453 141.799 59.308 146.052 59.308C150.305 59.308 153.341 60.7453 155.16 63.62C157.008 66.4947 157.932 70.4693 157.932 75.544C157.932 80.648 157.008 84.652 155.16 87.556C153.341 90.46 150.305 91.912 146.052 91.912C141.799 91.912 138.748 90.46 136.9 87.556C135.081 84.652 134.172 80.648 134.172 75.544ZM151.86 75.544C151.86 73.3733 151.713 71.5547 151.42 70.088C151.156 68.592 150.599 67.3747 149.748 66.436C148.927 65.4973 147.695 65.028 146.052 65.028C144.409 65.028 143.163 65.4973 142.312 66.436C141.491 67.3747 140.933 68.592 140.64 70.088C140.376 71.5547 140.244 73.3733 140.244 75.544C140.244 77.7733 140.376 79.6507 140.64 81.176C140.904 82.672 141.461 83.8893 142.312 84.828C143.163 85.7373 144.409 86.192 146.052 86.192C147.695 86.192 148.941 85.7373 149.792 84.828C150.643 83.8893 151.2 82.672 151.464 81.176C151.728 79.6507 151.86 77.7733 151.86 75.544ZM160.417 75.544C160.417 70.4693 161.326 66.4947 163.145 63.62C164.993 60.7453 168.044 59.308 172.297 59.308C176.55 59.308 179.586 60.7453 181.405 63.62C183.253 66.4947 184.177 70.4693 184.177 75.544C184.177 80.648 183.253 84.652 181.405 87.556C179.586 90.46 176.55 91.912 172.297 91.912C168.044 91.912 164.993 90.46 163.145 87.556C161.326 84.652 160.417 80.648 160.417 75.544ZM178.105 75.544C178.105 73.3733 177.958 71.5547 177.665 70.088C177.401 68.592 176.844 67.3747 175.993 66.436C175.172 65.4973 173.94 65.028 172.297 65.028C170.654 65.028 169.408 65.4973 168.557 66.436C167.736 67.3747 167.178 68.592 166.885 70.088C166.621 71.5547 166.489 73.3733 166.489 75.544C166.489 77.7733 166.621 79.6507 166.885 81.176C167.149 82.672 167.706 83.8893 168.557 84.828C169.408 85.7373 170.654 86.192 172.297 86.192C173.94 86.192 175.186 85.7373 176.037 84.828C176.888 83.8893 177.445 82.672 177.709 81.176C177.973 79.6507 178.105 77.7733 178.105 75.544Z" fill="white"/>
</g>
<path d="M33.94 130.34H28.38L27.46 133H24.52L29.54 119.02H32.8L37.82 133H34.86L33.94 130.34ZM33.18 128.1L31.16 122.26L29.14 128.1H33.18ZM43.3164 130.42L46.1164 121.92H49.0964L44.9964 133H41.5964L37.5164 121.92H40.5164L43.3164 130.42ZM59.9691 127.22C59.9691 127.62 59.9424 127.98 59.8891 128.3H51.7891C51.8557 129.1 52.1357 129.727 52.6291 130.18C53.1224 130.633 53.7291 130.86 54.4491 130.86C55.4891 130.86 56.2291 130.413 56.6691 129.52H59.6891C59.3691 130.587 58.7557 131.467 57.8491 132.16C56.9424 132.84 55.8291 133.18 54.5091 133.18C53.4424 133.18 52.4824 132.947 51.6291 132.48C50.7891 132 50.1291 131.327 49.6491 130.46C49.1824 129.593 48.9491 128.593 48.9491 127.46C48.9491 126.313 49.1824 125.307 49.6491 124.44C50.1157 123.573 50.7691 122.907 51.6091 122.44C52.4491 121.973 53.4157 121.74 54.5091 121.74C55.5624 121.74 56.5024 121.967 57.3291 122.42C58.1691 122.873 58.8157 123.52 59.2691 124.36C59.7357 125.187 59.9691 126.14 59.9691 127.22ZM57.0691 126.42C57.0557 125.7 56.7957 125.127 56.2891 124.7C55.7824 124.26 55.1624 124.04 54.4291 124.04C53.7357 124.04 53.1491 124.253 52.6691 124.68C52.2024 125.093 51.9157 125.673 51.8091 126.42H57.0691ZM63.8128 123.64C64.1728 123.053 64.6395 122.593 65.2128 122.26C65.7995 121.927 66.4661 121.76 67.2128 121.76V124.7H66.4728C65.5928 124.7 64.9261 124.907 64.4728 125.32C64.0328 125.733 63.8128 126.453 63.8128 127.48V133H61.0128V121.92H63.8128V123.64ZM67.3787 127.42C67.3787 126.3 67.5987 125.307 68.0387 124.44C68.4921 123.573 69.0988 122.907 69.8588 122.44C70.6321 121.973 71.4921 121.74 72.4388 121.74C73.2654 121.74 73.9854 121.907 74.5988 122.24C75.2254 122.573 75.7254 122.993 76.0988 123.5V121.92H78.9188V133H76.0988V131.38C75.7388 131.9 75.2388 132.333 74.5988 132.68C73.9721 133.013 73.2454 133.18 72.4188 133.18C71.4854 133.18 70.6321 132.94 69.8588 132.46C69.0988 131.98 68.4921 131.307 68.0387 130.44C67.5987 129.56 67.3787 128.553 67.3787 127.42ZM76.0988 127.46C76.0988 126.78 75.9654 126.2 75.6988 125.72C75.4321 125.227 75.0721 124.853 74.6188 124.6C74.1654 124.333 73.6788 124.2 73.1588 124.2C72.6388 124.2 72.1588 124.327 71.7188 124.58C71.2788 124.833 70.9188 125.207 70.6388 125.7C70.3721 126.18 70.2388 126.753 70.2388 127.42C70.2388 128.087 70.3721 128.673 70.6388 129.18C70.9188 129.673 71.2788 130.053 71.7188 130.32C72.1721 130.587 72.6521 130.72 73.1588 130.72C73.6788 130.72 74.1654 130.593 74.6188 130.34C75.0721 130.073 75.4321 129.7 75.6988 129.22C75.9654 128.727 76.0988 128.14 76.0988 127.46ZM84.9934 121.74C85.8201 121.74 86.5468 121.907 87.1734 122.24C87.8001 122.56 88.2934 122.98 88.6534 123.5V121.92H91.4734V133.08C91.4734 134.107 91.2668 135.02 90.8534 135.82C90.4401 136.633 89.8201 137.273 88.9934 137.74C88.1668 138.22 87.1668 138.46 85.9934 138.46C84.4201 138.46 83.1268 138.093 82.1134 137.36C81.1134 136.627 80.5468 135.627 80.4134 134.36H83.1934C83.3401 134.867 83.6534 135.267 84.1334 135.56C84.6268 135.867 85.2201 136.02 85.9134 136.02C86.7268 136.02 87.3868 135.773 87.8934 135.28C88.4001 134.8 88.6534 134.067 88.6534 133.08V131.36C88.2934 131.88 87.7934 132.313 87.1534 132.66C86.5268 133.007 85.8068 133.18 84.9934 133.18C84.0601 133.18 83.2068 132.94 82.4334 132.46C81.6601 131.98 81.0468 131.307 80.5934 130.44C80.1534 129.56 79.9334 128.553 79.9334 127.42C79.9334 126.3 80.1534 125.307 80.5934 124.44C81.0468 123.573 81.6534 122.907 82.4134 122.44C83.1868 121.973 84.0468 121.74 84.9934 121.74ZM88.6534 127.46C88.6534 126.78 88.5201 126.2 88.2534 125.72C87.9868 125.227 87.6268 124.853 87.1734 124.6C86.7201 124.333 86.2334 124.2 85.7134 124.2C85.1934 124.2 84.7134 124.327 84.2734 124.58C83.8334 124.833 83.4734 125.207 83.1934 125.7C82.9268 126.18 82.7934 126.753 82.7934 127.42C82.7934 128.087 82.9268 128.673 83.1934 129.18C83.4734 129.673 83.8334 130.053 84.2734 130.32C84.7268 130.587 85.2068 130.72 85.7134 130.72C86.2334 130.72 86.7201 130.593 87.1734 130.34C87.6268 130.073 87.9868 129.7 88.2534 129.22C88.5201 128.727 88.6534 128.14 88.6534 127.46ZM103.508 127.22C103.508 127.62 103.481 127.98 103.428 128.3H95.3281C95.3948 129.1 95.6748 129.727 96.1681 130.18C96.6615 130.633 97.2681 130.86 97.9881 130.86C99.0281 130.86 99.7681 130.413 100.208 129.52H103.228C102.908 130.587 102.295 131.467 101.388 132.16C100.481 132.84 99.3681 133.18 98.0481 133.18C96.9815 133.18 96.0215 132.947 95.1681 132.48C94.3281 132 93.6681 131.327 93.1881 130.46C92.7215 129.593 92.4881 128.593 92.4881 127.46C92.4881 126.313 92.7215 125.307 93.1881 124.44C93.6548 123.573 94.3081 122.907 95.1481 122.44C95.9881 121.973 96.9548 121.74 98.0481 121.74C99.1015 121.74 100.041 121.967 100.868 122.42C101.708 122.873 102.355 123.52 102.808 124.36C103.275 125.187 103.508 126.14 103.508 127.22ZM100.608 126.42C100.595 125.7 100.335 125.127 99.8281 124.7C99.3215 124.26 98.7015 124.04 97.9681 124.04C97.2748 124.04 96.6881 124.253 96.2081 124.68C95.7415 125.093 95.4548 125.673 95.3481 126.42H100.608ZM117.818 119.04V121.3H114.098V133H111.298V121.3H107.578V119.04H117.818ZM121.66 123.64C122.02 123.053 122.487 122.593 123.06 122.26C123.647 121.927 124.314 121.76 125.06 121.76V124.7H124.32C123.44 124.7 122.774 124.907 122.32 125.32C121.88 125.733 121.66 126.453 121.66 127.48V133H118.86V121.92H121.66V123.64ZM125.226 127.42C125.226 126.3 125.446 125.307 125.886 124.44C126.34 123.573 126.946 122.907 127.706 122.44C128.48 121.973 129.34 121.74 130.286 121.74C131.113 121.74 131.833 121.907 132.446 122.24C133.073 122.573 133.573 122.993 133.946 123.5V121.92H136.766V133H133.946V131.38C133.586 131.9 133.086 132.333 132.446 132.68C131.82 133.013 131.093 133.18 130.266 133.18C129.333 133.18 128.48 132.94 127.706 132.46C126.946 131.98 126.34 131.307 125.886 130.44C125.446 129.56 125.226 128.553 125.226 127.42ZM133.946 127.46C133.946 126.78 133.813 126.2 133.546 125.72C133.28 125.227 132.92 124.853 132.466 124.6C132.013 124.333 131.526 124.2 131.006 124.2C130.486 124.2 130.006 124.327 129.566 124.58C129.126 124.833 128.766 125.207 128.486 125.7C128.22 126.18 128.086 126.753 128.086 127.42C128.086 128.087 128.22 128.673 128.486 129.18C128.766 129.673 129.126 130.053 129.566 130.32C130.02 130.587 130.5 130.72 131.006 130.72C131.526 130.72 132.013 130.593 132.466 130.34C132.92 130.073 133.28 129.7 133.546 129.22C133.813 128.727 133.946 128.14 133.946 127.46ZM144.641 121.76C145.961 121.76 147.028 122.18 147.841 123.02C148.654 123.847 149.061 125.007 149.061 126.5V133H146.261V126.88C146.261 126 146.041 125.327 145.601 124.86C145.161 124.38 144.561 124.14 143.801 124.14C143.028 124.14 142.414 124.38 141.961 124.86C141.521 125.327 141.301 126 141.301 126.88V133H138.501V121.92H141.301V123.3C141.674 122.82 142.148 122.447 142.721 122.18C143.308 121.9 143.948 121.76 144.641 121.76ZM154.964 133.18C154.057 133.18 153.244 133.02 152.524 132.7C151.804 132.367 151.23 131.92 150.804 131.36C150.39 130.8 150.164 130.18 150.124 129.5H152.944C152.997 129.927 153.204 130.28 153.564 130.56C153.937 130.84 154.397 130.98 154.944 130.98C155.477 130.98 155.89 130.873 156.184 130.66C156.49 130.447 156.644 130.173 156.644 129.84C156.644 129.48 156.457 129.213 156.084 129.04C155.724 128.853 155.144 128.653 154.344 128.44C153.517 128.24 152.837 128.033 152.304 127.82C151.784 127.607 151.33 127.28 150.944 126.84C150.57 126.4 150.384 125.807 150.384 125.06C150.384 124.447 150.557 123.887 150.904 123.38C151.264 122.873 151.77 122.473 152.424 122.18C153.09 121.887 153.87 121.74 154.764 121.74C156.084 121.74 157.137 122.073 157.924 122.74C158.71 123.393 159.144 124.28 159.224 125.4H156.544C156.504 124.96 156.317 124.613 155.984 124.36C155.664 124.093 155.23 123.96 154.684 123.96C154.177 123.96 153.784 124.053 153.504 124.24C153.237 124.427 153.104 124.687 153.104 125.02C153.104 125.393 153.29 125.68 153.664 125.88C154.037 126.067 154.617 126.26 155.404 126.46C156.204 126.66 156.864 126.867 157.384 127.08C157.904 127.293 158.35 127.627 158.724 128.08C159.11 128.52 159.31 129.107 159.324 129.84C159.324 130.48 159.144 131.053 158.784 131.56C158.437 132.067 157.93 132.467 157.264 132.76C156.61 133.04 155.844 133.18 154.964 133.18ZM159.902 127.42C159.902 126.3 160.122 125.307 160.562 124.44C161.016 123.573 161.622 122.907 162.382 122.44C163.156 121.973 164.016 121.74 164.962 121.74C165.789 121.74 166.509 121.907 167.122 122.24C167.749 122.573 168.249 122.993 168.622 123.5V121.92H171.442V133H168.622V131.38C168.262 131.9 167.762 132.333 167.122 132.68C166.496 133.013 165.769 133.18 164.942 133.18C164.009 133.18 163.156 132.94 162.382 132.46C161.622 131.98 161.016 131.307 160.562 130.44C160.122 129.56 159.902 128.553 159.902 127.42ZM168.622 127.46C168.622 126.78 168.489 126.2 168.222 125.72C167.956 125.227 167.596 124.853 167.142 124.6C166.689 124.333 166.202 124.2 165.682 124.2C165.162 124.2 164.682 124.327 164.242 124.58C163.802 124.833 163.442 125.207 163.162 125.7C162.896 126.18 162.762 126.753 162.762 127.42C162.762 128.087 162.896 128.673 163.162 129.18C163.442 129.673 163.802 130.053 164.242 130.32C164.696 130.587 165.176 130.72 165.682 130.72C166.202 130.72 166.689 130.593 167.142 130.34C167.596 130.073 167.956 129.7 168.222 129.22C168.489 128.727 168.622 128.14 168.622 127.46ZM172.457 127.46C172.457 126.313 172.69 125.313 173.157 124.46C173.624 123.593 174.27 122.927 175.097 122.46C175.924 121.98 176.87 121.74 177.937 121.74C179.31 121.74 180.444 122.087 181.337 122.78C182.244 123.46 182.85 124.42 183.157 125.66H180.137C179.977 125.18 179.704 124.807 179.317 124.54C178.944 124.26 178.477 124.12 177.917 124.12C177.117 124.12 176.484 124.413 176.017 125C175.55 125.573 175.317 126.393 175.317 127.46C175.317 128.513 175.55 129.333 176.017 129.92C176.484 130.493 177.117 130.78 177.917 130.78C179.05 130.78 179.79 130.273 180.137 129.26H183.157C182.85 130.46 182.244 131.413 181.337 132.12C180.43 132.827 179.297 133.18 177.937 133.18C176.87 133.18 175.924 132.947 175.097 132.48C174.27 132 173.624 131.333 173.157 130.48C172.69 129.613 172.457 128.607 172.457 127.46ZM187.468 124.22V129.58C187.468 129.953 187.555 130.227 187.728 130.4C187.915 130.56 188.221 130.64 188.648 130.64H189.948V133H188.188C185.828 133 184.648 131.853 184.648 129.56V124.22H183.328V121.92H184.648V119.18H187.468V121.92H189.948V124.22H187.468ZM192.382 120.6C191.889 120.6 191.475 120.447 191.142 120.14C190.822 119.82 190.662 119.427 190.662 118.96C190.662 118.493 190.822 118.107 191.142 117.8C191.475 117.48 191.889 117.32 192.382 117.32C192.875 117.32 193.282 117.48 193.602 117.8C193.935 118.107 194.102 118.493 194.102 118.96C194.102 119.427 193.935 119.82 193.602 120.14C193.282 120.447 192.875 120.6 192.382 120.6ZM193.762 121.92V133H190.962V121.92H193.762ZM200.448 133.18C199.382 133.18 198.422 132.947 197.568 132.48C196.715 132 196.042 131.327 195.548 130.46C195.068 129.593 194.828 128.593 194.828 127.46C194.828 126.327 195.075 125.327 195.568 124.46C196.075 123.593 196.762 122.927 197.628 122.46C198.495 121.98 199.462 121.74 200.528 121.74C201.595 121.74 202.562 121.98 203.428 122.46C204.295 122.927 204.975 123.593 205.468 124.46C205.975 125.327 206.228 126.327 206.228 127.46C206.228 128.593 205.968 129.593 205.448 130.46C204.942 131.327 204.248 132 203.368 132.48C202.502 132.947 201.528 133.18 200.448 133.18ZM200.448 130.74C200.955 130.74 201.428 130.62 201.868 130.38C202.322 130.127 202.682 129.753 202.948 129.26C203.215 128.767 203.348 128.167 203.348 127.46C203.348 126.407 203.068 125.6 202.508 125.04C201.962 124.467 201.288 124.18 200.488 124.18C199.688 124.18 199.015 124.467 198.468 125.04C197.935 125.6 197.668 126.407 197.668 127.46C197.668 128.513 197.928 129.327 198.448 129.9C198.982 130.46 199.648 130.74 200.448 130.74ZM213.422 121.76C214.742 121.76 215.809 122.18 216.622 123.02C217.436 123.847 217.842 125.007 217.842 126.5V133H215.042V126.88C215.042 126 214.822 125.327 214.382 124.86C213.942 124.38 213.342 124.14 212.582 124.14C211.809 124.14 211.196 124.38 210.742 124.86C210.302 125.327 210.082 126 210.082 126.88V133H207.282V121.92H210.082V123.3C210.456 122.82 210.929 122.447 211.502 122.18C212.089 121.9 212.729 121.76 213.422 121.76ZM235.811 119.04L230.691 133H227.291L222.171 119.04H225.171L229.011 130.14L232.831 119.04H235.811ZM235.769 127.42C235.769 126.3 235.989 125.307 236.429 124.44C236.883 123.573 237.489 122.907 238.249 122.44C239.023 121.973 239.883 121.74 240.829 121.74C241.656 121.74 242.376 121.907 242.989 122.24C243.616 122.573 244.116 122.993 244.489 123.5V121.92H247.309V133H244.489V131.38C244.129 131.9 243.629 132.333 242.989 132.68C242.363 133.013 241.636 133.18 240.809 133.18C239.876 133.18 239.023 132.94 238.249 132.46C237.489 131.98 236.883 131.307 236.429 130.44C235.989 129.56 235.769 128.553 235.769 127.42ZM244.489 127.46C244.489 126.78 244.356 126.2 244.089 125.72C243.823 125.227 243.463 124.853 243.009 124.6C242.556 124.333 242.069 124.2 241.549 124.2C241.029 124.2 240.549 124.327 240.109 124.58C239.669 124.833 239.309 125.207 239.029 125.7C238.763 126.18 238.629 126.753 238.629 127.42C238.629 128.087 238.763 128.673 239.029 129.18C239.309 129.673 239.669 130.053 240.109 130.32C240.563 130.587 241.043 130.72 241.549 130.72C242.069 130.72 242.556 130.593 243.009 130.34C243.463 130.073 243.823 129.7 244.089 129.22C244.356 128.727 244.489 128.14 244.489 127.46ZM251.844 118.2V133H249.044V118.2H251.844ZM264.07 121.92V133H261.25V131.6C260.89 132.08 260.417 132.46 259.83 132.74C259.257 133.007 258.63 133.14 257.95 133.14C257.084 133.14 256.317 132.96 255.65 132.6C254.984 132.227 254.457 131.687 254.07 130.98C253.697 130.26 253.51 129.407 253.51 128.42V121.92H256.31V128.02C256.31 128.9 256.53 129.58 256.97 130.06C257.41 130.527 258.01 130.76 258.77 130.76C259.544 130.76 260.15 130.527 260.59 130.06C261.03 129.58 261.25 128.9 261.25 128.02V121.92H264.07ZM276.133 127.22C276.133 127.62 276.106 127.98 276.053 128.3H267.953C268.02 129.1 268.3 129.727 268.793 130.18C269.286 130.633 269.893 130.86 270.613 130.86C271.653 130.86 272.393 130.413 272.833 129.52H275.853C275.533 130.587 274.92 131.467 274.013 132.16C273.106 132.84 271.993 133.18 270.673 133.18C269.606 133.18 268.646 132.947 267.793 132.48C266.953 132 266.293 131.327 265.813 130.46C265.346 129.593 265.113 128.593 265.113 127.46C265.113 126.313 265.346 125.307 265.813 124.44C266.28 123.573 266.933 122.907 267.773 122.44C268.613 121.973 269.58 121.74 270.673 121.74C271.726 121.74 272.666 121.967 273.493 122.42C274.333 122.873 274.98 123.52 275.433 124.36C275.9 125.187 276.133 126.14 276.133 127.22ZM273.233 126.42C273.22 125.7 272.96 125.127 272.453 124.7C271.946 124.26 271.326 124.04 270.593 124.04C269.9 124.04 269.313 124.253 268.833 124.68C268.366 125.093 268.08 125.673 267.973 126.42H273.233Z" fill="white"/>
<ellipse cx="238.5" cy="68.5" rx="37.5" ry="36.5" fill="white" fill-opacity="0.3"/>
<defs>
<filter id="filter0_d_1232_846" x="0" y="0" width="293" height="199" filterUnits="userSpaceOnUse" color-interpolation-filters="sRGB">
<feFlood flood-opacity="0" result="BackgroundImageFix"/>
<feColorMatrix in="SourceAlpha" type="matrix" values="0 0 0 0 0 0 0 0 0 0 0 0 0 0 0 0 0 0 127 0" result="hardAlpha"/>
<feOffset dx="2" dy="2"/>
<feGaussianBlur stdDeviation="2"/>
<feComposite in2="hardAlpha" operator="out"/>
<feColorMatrix type="matrix" values="0 0 0 0 0 0 0 0 0 0 0 0 0 0 0 0 0 0 0.25 0"/>
<feBlend mode="normal" in2="BackgroundImageFix" result="effect1_dropShadow_1232_846"/>
<feBlend mode="normal" in="SourceGraphic" in2="effect1_dropShadow_1232_846" result="shape"/>
</filter>
<filter id="filter1_d_1232_846" x="19.4404" y="59.176" width="168.736" height="41.132" filterUnits="userSpaceOnUse" color-interpolation-filters="sRGB">
<feFlood flood-opacity="0" result="BackgroundImageFix"/>
<feColorMatrix in="SourceAlpha" type="matrix" values="0 0 0 0 0 0 0 0 0 0 0 0 0 0 0 0 0 0 127 0" result="hardAlpha"/>
<feOffset dy="4"/>
<feGaussianBlur stdDeviation="2"/>
<feComposite in2="hardAlpha" operator="out"/>
<feColorMatrix type="matrix" values="0 0 0 0 0 0 0 0 0 0 0 0 0 0 0 0 0 0 0.25 0"/>
<feBlend mode="normal" in2="BackgroundImageFix" result="effect1_dropShadow_1232_846"/>
<feBlend mode="normal" in="SourceGraphic" in2="effect1_dropShadow_1232_846" result="shape"/>
</filter>
<linearGradient id="paint0_linear_1232_846" x1="287" y1="-5" x2="14" y2="2" gradientUnits="userSpaceOnUse">
<stop stop-color="#60FFA1"/>
<stop offset="1" stop-color="#09A046"/>
</linearGradient>
</defs>
</svg>
