<svg width="293" height="199" viewBox="0 0 293 199" fill="none" xmlns="http://www.w3.org/2000/svg">
<g filter="url(#filter0_d_1232_828)">
<rect x="2" y="2" width="285" height="191" rx="10" fill="url(#paint0_linear_1232_828)"/>
<rect x="2.5" y="2.5" width="284" height="190" rx="9.5" stroke="#777777" stroke-opacity="0.3"/>
</g>
<circle cx="227" cy="62" r="40" fill="white" fill-opacity="0.3"/>
<path d="M31.384 142.88V144.368H28.424V154H26.6V144.368H23.624V142.88H31.384ZM36.2552 154.144C35.4233 154.144 34.6713 153.957 33.9992 153.584C33.3272 153.2 32.7992 152.667 32.4152 151.984C32.0312 151.291 31.8392 150.491 31.8392 149.584C31.8392 148.688 32.0366 147.893 32.4312 147.2C32.8259 146.507 33.3646 145.973 34.0473 145.6C34.7299 145.227 35.4926 145.04 36.3352 145.04C37.1779 145.04 37.9406 145.227 38.6233 145.6C39.3059 145.973 39.8446 146.507 40.2393 147.2C40.6339 147.893 40.8313 148.688 40.8313 149.584C40.8313 150.48 40.6286 151.275 40.2233 151.968C39.8179 152.661 39.2633 153.2 38.5593 153.584C37.8659 153.957 37.0979 154.144 36.2552 154.144ZM36.2552 152.56C36.7246 152.56 37.1619 152.448 37.5673 152.224C37.9833 152 38.3193 151.664 38.5753 151.216C38.8313 150.768 38.9592 150.224 38.9592 149.584C38.9592 148.944 38.8366 148.405 38.5912 147.968C38.3459 147.52 38.0206 147.184 37.6153 146.96C37.2099 146.736 36.7726 146.624 36.3032 146.624C35.8339 146.624 35.3966 146.736 34.9913 146.96C34.5966 147.184 34.2819 147.52 34.0473 147.968C33.8126 148.405 33.6953 148.944 33.6953 149.584C33.6953 150.533 33.9353 151.269 34.4153 151.792C34.9059 152.304 35.5192 152.56 36.2552 152.56ZM43.9624 146.672V151.552C43.9624 151.883 44.037 152.123 44.1864 152.272C44.3464 152.411 44.613 152.48 44.9864 152.48H46.1064V154H44.6664C43.845 154 43.2157 153.808 42.7784 153.424C42.341 153.04 42.1224 152.416 42.1224 151.552V146.672H41.0824V145.184H42.1224V142.992H43.9624V145.184H46.1064V146.672H43.9624ZM46.3795 149.552C46.3795 148.667 46.5608 147.883 46.9235 147.2C47.2968 146.517 47.7982 145.989 48.4275 145.616C49.0675 145.232 49.7715 145.04 50.5395 145.04C51.2328 145.04 51.8355 145.179 52.3475 145.456C52.8702 145.723 53.2862 146.059 53.5955 146.464V145.184H55.4355V154H53.5955V152.688C53.2862 153.104 52.8648 153.451 52.3315 153.728C51.7982 154.005 51.1902 154.144 50.5075 154.144C49.7502 154.144 49.0568 153.952 48.4275 153.568C47.7982 153.173 47.2968 152.629 46.9235 151.936C46.5608 151.232 46.3795 150.437 46.3795 149.552ZM53.5955 149.584C53.5955 148.976 53.4675 148.448 53.2115 148C52.9662 147.552 52.6408 147.211 52.2355 146.976C51.8302 146.741 51.3928 146.624 50.9235 146.624C50.4542 146.624 50.0168 146.741 49.6115 146.976C49.2062 147.2 48.8755 147.536 48.6195 147.984C48.3742 148.421 48.2515 148.944 48.2515 149.552C48.2515 150.16 48.3742 150.693 48.6195 151.152C48.8755 151.611 49.2062 151.963 49.6115 152.208C50.0275 152.443 50.4648 152.56 50.9235 152.56C51.3928 152.56 51.8302 152.443 52.2355 152.208C52.6408 151.973 52.9662 151.632 53.2115 151.184C53.4675 150.725 53.5955 150.192 53.5955 149.584ZM58.8552 142.16V154H57.0312V142.16H58.8552ZM65.6303 146.464C65.8969 146.016 66.2489 145.669 66.6863 145.424C67.1343 145.168 67.6623 145.04 68.2703 145.04V146.928H67.8063C67.0916 146.928 66.5476 147.109 66.1743 147.472C65.8116 147.835 65.6303 148.464 65.6303 149.36V154H63.8063V145.184H65.6303V146.464ZM77.2269 149.376C77.2269 149.707 77.2055 150.005 77.1629 150.272H70.4269C70.4802 150.976 70.7415 151.541 71.2109 151.968C71.6802 152.395 72.2562 152.608 72.9389 152.608C73.9202 152.608 74.6135 152.197 75.0189 151.376H76.9869C76.7202 152.187 76.2349 152.853 75.5309 153.376C74.8375 153.888 73.9735 154.144 72.9389 154.144C72.0962 154.144 71.3389 153.957 70.6669 153.584C70.0055 153.2 69.4829 152.667 69.0989 151.984C68.7255 151.291 68.5389 150.491 68.5389 149.584C68.5389 148.677 68.7202 147.883 69.0829 147.2C69.4562 146.507 69.9735 145.973 70.6349 145.6C71.3069 145.227 72.0749 145.04 72.9389 145.04C73.7709 145.04 74.5122 145.221 75.1629 145.584C75.8135 145.947 76.3202 146.459 76.6829 147.12C77.0455 147.771 77.2269 148.523 77.2269 149.376ZM75.3229 148.8C75.3122 148.128 75.0722 147.589 74.6029 147.184C74.1335 146.779 73.5522 146.576 72.8589 146.576C72.2295 146.576 71.6909 146.779 71.2429 147.184C70.7949 147.579 70.5282 148.117 70.4429 148.8H75.3229ZM81.6299 152.368L84.1259 145.184H86.0619L82.7019 154H80.5259L77.1819 145.184H79.1339L81.6299 152.368ZM94.7206 149.376C94.7206 149.707 94.6993 150.005 94.6566 150.272H87.9206C87.974 150.976 88.2353 151.541 88.7046 151.968C89.174 152.395 89.75 152.608 90.4326 152.608C91.414 152.608 92.1073 152.197 92.5126 151.376H94.4806C94.214 152.187 93.7286 152.853 93.0246 153.376C92.3313 153.888 91.4673 154.144 90.4326 154.144C89.59 154.144 88.8326 153.957 88.1606 153.584C87.4993 153.2 86.9766 152.667 86.5926 151.984C86.2193 151.291 86.0326 150.491 86.0326 149.584C86.0326 148.677 86.214 147.883 86.5766 147.2C86.95 146.507 87.4673 145.973 88.1286 145.6C88.8006 145.227 89.5686 145.04 90.4326 145.04C91.2646 145.04 92.006 145.221 92.6566 145.584C93.3073 145.947 93.814 146.459 94.1766 147.12C94.5393 147.771 94.7206 148.523 94.7206 149.376ZM92.8166 148.8C92.806 148.128 92.566 147.589 92.0966 147.184C91.6273 146.779 91.046 146.576 90.3526 146.576C89.7233 146.576 89.1846 146.779 88.7366 147.184C88.2886 147.579 88.022 148.117 87.9366 148.8H92.8166ZM100.164 145.04C100.857 145.04 101.476 145.184 102.02 145.472C102.574 145.76 103.006 146.187 103.316 146.752C103.625 147.317 103.78 148 103.78 148.8V154H101.972V149.072C101.972 148.283 101.774 147.68 101.38 147.264C100.985 146.837 100.446 146.624 99.7636 146.624C99.081 146.624 98.537 146.837 98.1316 147.264C97.737 147.68 97.5396 148.283 97.5396 149.072V154H95.7156V145.184H97.5396V146.192C97.8383 145.829 98.217 145.547 98.6756 145.344C99.145 145.141 99.641 145.04 100.164 145.04ZM113.29 145.184V154H111.466V152.96C111.178 153.323 110.8 153.611 110.33 153.824C109.872 154.027 109.381 154.128 108.858 154.128C108.165 154.128 107.541 153.984 106.986 153.696C106.442 153.408 106.01 152.981 105.69 152.416C105.381 151.851 105.226 151.168 105.226 150.368V145.184H107.034V150.096C107.034 150.885 107.232 151.493 107.626 151.92C108.021 152.336 108.56 152.544 109.242 152.544C109.925 152.544 110.464 152.336 110.858 151.92C111.264 151.493 111.466 150.885 111.466 150.096V145.184H113.29ZM122.977 149.376C122.977 149.707 122.956 150.005 122.913 150.272H116.177C116.23 150.976 116.492 151.541 116.961 151.968C117.43 152.395 118.006 152.608 118.689 152.608C119.67 152.608 120.364 152.197 120.769 151.376H122.737C122.47 152.187 121.985 152.853 121.281 153.376C120.588 153.888 119.724 154.144 118.689 154.144C117.846 154.144 117.089 153.957 116.417 153.584C115.756 153.2 115.233 152.667 114.849 151.984C114.476 151.291 114.289 150.491 114.289 149.584C114.289 148.677 114.47 147.883 114.833 147.2C115.206 146.507 115.724 145.973 116.385 145.6C117.057 145.227 117.825 145.04 118.689 145.04C119.521 145.04 120.262 145.221 120.913 145.584C121.564 145.947 122.07 146.459 122.433 147.12C122.796 147.771 122.977 148.523 122.977 149.376ZM121.073 148.8C121.062 148.128 120.822 147.589 120.353 147.184C119.884 146.779 119.302 146.576 118.609 146.576C117.98 146.576 117.441 146.779 116.993 147.184C116.545 147.579 116.278 148.117 116.193 148.8H121.073ZM131.024 146.672H129.392V154H127.552V146.672H126.512V145.184H127.552V144.56C127.552 143.547 127.819 142.811 128.352 142.352C128.896 141.883 129.744 141.648 130.896 141.648V143.168C130.341 143.168 129.952 143.275 129.728 143.488C129.504 143.691 129.392 144.048 129.392 144.56V145.184H131.024V146.672ZM133.665 146.464C133.931 146.016 134.283 145.669 134.721 145.424C135.169 145.168 135.697 145.04 136.305 145.04V146.928H135.841C135.126 146.928 134.582 147.109 134.209 147.472C133.846 147.835 133.665 148.464 133.665 149.36V154H131.841V145.184H133.665V146.464ZM141.005 154.144C140.173 154.144 139.421 153.957 138.749 153.584C138.077 153.2 137.549 152.667 137.165 151.984C136.781 151.291 136.589 150.491 136.589 149.584C136.589 148.688 136.787 147.893 137.181 147.2C137.576 146.507 138.115 145.973 138.797 145.6C139.48 145.227 140.243 145.04 141.085 145.04C141.928 145.04 142.691 145.227 143.373 145.6C144.056 145.973 144.595 146.507 144.989 147.2C145.384 147.893 145.581 148.688 145.581 149.584C145.581 150.48 145.379 151.275 144.973 151.968C144.568 152.661 144.013 153.2 143.309 153.584C142.616 153.957 141.848 154.144 141.005 154.144ZM141.005 152.56C141.475 152.56 141.912 152.448 142.317 152.224C142.733 152 143.069 151.664 143.325 151.216C143.581 150.768 143.709 150.224 143.709 149.584C143.709 148.944 143.587 148.405 143.341 147.968C143.096 147.52 142.771 147.184 142.365 146.96C141.96 146.736 141.523 146.624 141.053 146.624C140.584 146.624 140.147 146.736 139.741 146.96C139.347 147.184 139.032 147.52 138.797 147.968C138.563 148.405 138.445 148.944 138.445 149.584C138.445 150.533 138.685 151.269 139.165 151.792C139.656 152.304 140.269 152.56 141.005 152.56ZM157.256 145.04C157.95 145.04 158.568 145.184 159.112 145.472C159.667 145.76 160.099 146.187 160.408 146.752C160.728 147.317 160.888 148 160.888 148.8V154H159.08V149.072C159.08 148.283 158.883 147.68 158.488 147.264C158.094 146.837 157.555 146.624 156.872 146.624C156.19 146.624 155.646 146.837 155.24 147.264C154.846 147.68 154.648 148.283 154.648 149.072V154H152.84V149.072C152.84 148.283 152.643 147.68 152.248 147.264C151.854 146.837 151.315 146.624 150.632 146.624C149.95 146.624 149.406 146.837 149 147.264C148.606 147.68 148.408 148.283 148.408 149.072V154H146.584V145.184H148.408V146.192C148.707 145.829 149.086 145.547 149.544 145.344C150.003 145.141 150.494 145.04 151.016 145.04C151.72 145.04 152.35 145.189 152.904 145.488C153.459 145.787 153.886 146.219 154.184 146.784C154.451 146.251 154.867 145.829 155.432 145.52C155.998 145.2 156.606 145.04 157.256 145.04ZM165.158 149.552C165.158 148.667 165.339 147.883 165.702 147.2C166.075 146.517 166.576 145.989 167.206 145.616C167.846 145.232 168.55 145.04 169.318 145.04C170.011 145.04 170.614 145.179 171.126 145.456C171.648 145.723 172.064 146.059 172.374 146.464V145.184H174.214V154H172.374V152.688C172.064 153.104 171.643 153.451 171.11 153.728C170.576 154.005 169.968 154.144 169.286 154.144C168.528 154.144 167.835 153.952 167.206 153.568C166.576 153.173 166.075 152.629 165.702 151.936C165.339 151.232 165.158 150.437 165.158 149.552ZM172.374 149.584C172.374 148.976 172.246 148.448 171.99 148C171.744 147.552 171.419 147.211 171.014 146.976C170.608 146.741 170.171 146.624 169.702 146.624C169.232 146.624 168.795 146.741 168.39 146.976C167.984 147.2 167.654 147.536 167.398 147.984C167.152 148.421 167.03 148.944 167.03 149.552C167.03 150.16 167.152 150.693 167.398 151.152C167.654 151.611 167.984 151.963 168.39 152.208C168.806 152.443 169.243 152.56 169.702 152.56C170.171 152.56 170.608 152.443 171.014 152.208C171.419 151.973 171.744 151.632 171.99 151.184C172.246 150.725 172.374 150.192 172.374 149.584ZM177.633 142.16V154H175.809V142.16H177.633ZM181.052 142.16V154H179.228V142.16H181.052ZM188.131 146.672V151.552C188.131 151.883 188.206 152.123 188.355 152.272C188.515 152.411 188.782 152.48 189.155 152.48H190.275V154H188.835C188.014 154 187.384 153.808 186.947 153.424C186.51 153.04 186.291 152.416 186.291 151.552V146.672H185.251V145.184H186.291V142.992H188.131V145.184H190.275V146.672H188.131ZM192.98 146.464C193.247 146.016 193.599 145.669 194.036 145.424C194.484 145.168 195.012 145.04 195.62 145.04V146.928H195.156C194.442 146.928 193.898 147.109 193.524 147.472C193.162 147.835 192.98 148.464 192.98 149.36V154H191.156V145.184H192.98V146.464ZM195.889 149.552C195.889 148.667 196.07 147.883 196.433 147.2C196.806 146.517 197.308 145.989 197.937 145.616C198.577 145.232 199.281 145.04 200.049 145.04C200.742 145.04 201.345 145.179 201.857 145.456C202.38 145.723 202.796 146.059 203.105 146.464V145.184H204.945V154H203.105V152.688C202.796 153.104 202.374 153.451 201.841 153.728C201.308 154.005 200.7 154.144 200.017 154.144C199.26 154.144 198.566 153.952 197.937 153.568C197.308 153.173 196.806 152.629 196.433 151.936C196.07 151.232 195.889 150.437 195.889 149.552ZM203.105 149.584C203.105 148.976 202.977 148.448 202.721 148C202.476 147.552 202.15 147.211 201.745 146.976C201.34 146.741 200.902 146.624 200.433 146.624C199.964 146.624 199.526 146.741 199.121 146.976C198.716 147.2 198.385 147.536 198.129 147.984C197.884 148.421 197.761 148.944 197.761 149.552C197.761 150.16 197.884 150.693 198.129 151.152C198.385 151.611 198.716 151.963 199.121 152.208C199.537 152.443 199.974 152.56 200.433 152.56C200.902 152.56 201.34 152.443 201.745 152.208C202.15 151.973 202.476 151.632 202.721 151.184C202.977 150.725 203.105 150.192 203.105 149.584ZM210.989 145.04C211.682 145.04 212.301 145.184 212.845 145.472C213.399 145.76 213.831 146.187 214.141 146.752C214.45 147.317 214.605 148 214.605 148.8V154H212.797V149.072C212.797 148.283 212.599 147.68 212.205 147.264C211.81 146.837 211.271 146.624 210.589 146.624C209.906 146.624 209.362 146.837 208.957 147.264C208.562 147.68 208.365 148.283 208.365 149.072V154H206.541V145.184H208.365V146.192C208.663 145.829 209.042 145.547 209.501 145.344C209.97 145.141 210.466 145.04 210.989 145.04ZM219.331 154.144C218.638 154.144 218.014 154.021 217.459 153.776C216.915 153.52 216.483 153.179 216.163 152.752C215.843 152.315 215.673 151.829 215.651 151.296H217.539C217.571 151.669 217.747 151.984 218.067 152.24C218.398 152.485 218.809 152.608 219.299 152.608C219.811 152.608 220.206 152.512 220.483 152.32C220.771 152.117 220.915 151.861 220.915 151.552C220.915 151.221 220.755 150.976 220.435 150.816C220.126 150.656 219.63 150.48 218.947 150.288C218.286 150.107 217.747 149.931 217.331 149.76C216.915 149.589 216.553 149.328 216.243 148.976C215.945 148.624 215.795 148.16 215.795 147.584C215.795 147.115 215.934 146.688 216.211 146.304C216.489 145.909 216.883 145.6 217.395 145.376C217.918 145.152 218.515 145.04 219.187 145.04C220.19 145.04 220.995 145.296 221.603 145.808C222.222 146.309 222.553 146.997 222.595 147.872H220.771C220.739 147.477 220.579 147.163 220.291 146.928C220.003 146.693 219.614 146.576 219.123 146.576C218.643 146.576 218.275 146.667 218.019 146.848C217.763 147.029 217.635 147.269 217.635 147.568C217.635 147.803 217.721 148 217.891 148.16C218.062 148.32 218.27 148.448 218.515 148.544C218.761 148.629 219.123 148.741 219.603 148.88C220.243 149.051 220.766 149.227 221.171 149.408C221.587 149.579 221.945 149.835 222.243 150.176C222.542 150.517 222.697 150.971 222.707 151.536C222.707 152.037 222.569 152.485 222.291 152.88C222.014 153.275 221.619 153.584 221.107 153.808C220.606 154.032 220.014 154.144 219.331 154.144ZM223.27 149.552C223.27 148.667 223.451 147.883 223.814 147.2C224.187 146.517 224.689 145.989 225.318 145.616C225.958 145.232 226.662 145.04 227.43 145.04C228.123 145.04 228.726 145.179 229.238 145.456C229.761 145.723 230.177 146.059 230.486 146.464V145.184H232.326V154H230.486V152.688C230.177 153.104 229.755 153.451 229.222 153.728C228.689 154.005 228.081 154.144 227.398 154.144C226.641 154.144 225.947 153.952 225.318 153.568C224.689 153.173 224.187 152.629 223.814 151.936C223.451 151.232 223.27 150.437 223.27 149.552ZM230.486 149.584C230.486 148.976 230.358 148.448 230.102 148C229.857 147.552 229.531 147.211 229.126 146.976C228.721 146.741 228.283 146.624 227.814 146.624C227.345 146.624 226.907 146.741 226.502 146.976C226.097 147.2 225.766 147.536 225.51 147.984C225.265 148.421 225.142 148.944 225.142 149.552C225.142 150.16 225.265 150.693 225.51 151.152C225.766 151.611 226.097 151.963 226.502 152.208C226.918 152.443 227.355 152.56 227.814 152.56C228.283 152.56 228.721 152.443 229.126 152.208C229.531 151.973 229.857 151.632 230.102 151.184C230.358 150.725 230.486 150.192 230.486 149.584ZM233.314 149.584C233.314 148.677 233.495 147.883 233.858 147.2C234.231 146.507 234.743 145.973 235.394 145.6C236.045 145.227 236.791 145.04 237.634 145.04C238.701 145.04 239.581 145.296 240.274 145.808C240.978 146.309 241.453 147.029 241.698 147.968H239.73C239.57 147.531 239.314 147.189 238.962 146.944C238.61 146.699 238.167 146.576 237.634 146.576C236.887 146.576 236.29 146.843 235.842 147.376C235.405 147.899 235.186 148.635 235.186 149.584C235.186 150.533 235.405 151.275 235.842 151.808C236.29 152.341 236.887 152.608 237.634 152.608C238.69 152.608 239.389 152.144 239.73 151.216H241.698C241.442 152.112 240.962 152.827 240.258 153.36C239.554 153.883 238.679 154.144 237.634 154.144C236.791 154.144 236.045 153.957 235.394 153.584C234.743 153.2 234.231 152.667 233.858 151.984C233.495 151.291 233.314 150.491 233.314 149.584ZM244.844 146.672V151.552C244.844 151.883 244.918 152.123 245.068 152.272C245.228 152.411 245.494 152.48 245.868 152.48H246.988V154H245.548C244.726 154 244.097 153.808 243.66 153.424C243.222 153.04 243.004 152.416 243.004 151.552V146.672H241.964V145.184H243.004V142.992H244.844V145.184H246.988V146.672H244.844ZM248.797 144.016C248.466 144.016 248.189 143.904 247.965 143.68C247.741 143.456 247.629 143.179 247.629 142.848C247.629 142.517 247.741 142.24 247.965 142.016C248.189 141.792 248.466 141.68 248.797 141.68C249.117 141.68 249.389 141.792 249.613 142.016C249.837 142.24 249.949 142.517 249.949 142.848C249.949 143.179 249.837 143.456 249.613 143.68C249.389 143.904 249.117 144.016 248.797 144.016ZM249.693 145.184V154H247.869V145.184H249.693ZM255.111 154.144C254.279 154.144 253.527 153.957 252.855 153.584C252.183 153.2 251.655 152.667 251.271 151.984C250.887 151.291 250.695 150.491 250.695 149.584C250.695 148.688 250.893 147.893 251.287 147.2C251.682 146.507 252.221 145.973 252.903 145.6C253.586 145.227 254.349 145.04 255.191 145.04C256.034 145.04 256.797 145.227 257.479 145.6C258.162 145.973 258.701 146.507 259.095 147.2C259.49 147.893 259.687 148.688 259.687 149.584C259.687 150.48 259.485 151.275 259.079 151.968C258.674 152.661 258.119 153.2 257.415 153.584C256.722 153.957 255.954 154.144 255.111 154.144ZM255.111 152.56C255.581 152.56 256.018 152.448 256.423 152.224C256.839 152 257.175 151.664 257.431 151.216C257.687 150.768 257.815 150.224 257.815 149.584C257.815 148.944 257.693 148.405 257.447 147.968C257.202 147.52 256.877 147.184 256.471 146.96C256.066 146.736 255.629 146.624 255.159 146.624C254.69 146.624 254.253 146.736 253.847 146.96C253.453 147.184 253.138 147.52 252.903 147.968C252.669 148.405 252.551 148.944 252.551 149.584C252.551 150.533 252.791 151.269 253.271 151.792C253.762 152.304 254.375 152.56 255.111 152.56ZM265.139 145.04C265.832 145.04 266.451 145.184 266.995 145.472C267.549 145.76 267.981 146.187 268.291 146.752C268.6 147.317 268.755 148 268.755 148.8V154H266.947V149.072C266.947 148.283 266.749 147.68 266.355 147.264C265.96 146.837 265.421 146.624 264.739 146.624C264.056 146.624 263.512 146.837 263.107 147.264C262.712 147.68 262.515 148.283 262.515 149.072V154H260.691V145.184H262.515V146.192C262.813 145.829 263.192 145.547 263.651 145.344C264.12 145.141 264.616 145.04 265.139 145.04ZM273.481 154.144C272.788 154.144 272.164 154.021 271.609 153.776C271.065 153.52 270.633 153.179 270.313 152.752C269.993 152.315 269.823 151.829 269.801 151.296H271.689C271.721 151.669 271.897 151.984 272.217 152.24C272.548 152.485 272.959 152.608 273.449 152.608C273.961 152.608 274.356 152.512 274.633 152.32C274.921 152.117 275.065 151.861 275.065 151.552C275.065 151.221 274.905 150.976 274.585 150.816C274.276 150.656 273.78 150.48 273.097 150.288C272.436 150.107 271.897 149.931 271.481 149.76C271.065 149.589 270.703 149.328 270.393 148.976C270.095 148.624 269.945 148.16 269.945 147.584C269.945 147.115 270.084 146.688 270.361 146.304C270.639 145.909 271.033 145.6 271.545 145.376C272.068 145.152 272.665 145.04 273.337 145.04C274.34 145.04 275.145 145.296 275.753 145.808C276.372 146.309 276.703 146.997 276.745 147.872H274.921C274.889 147.477 274.729 147.163 274.441 146.928C274.153 146.693 273.764 146.576 273.273 146.576C272.793 146.576 272.425 146.667 272.169 146.848C271.913 147.029 271.785 147.269 271.785 147.568C271.785 147.803 271.871 148 272.041 148.16C272.212 148.32 272.42 148.448 272.665 148.544C272.911 148.629 273.273 148.741 273.753 148.88C274.393 149.051 274.916 149.227 275.321 149.408C275.737 149.579 276.095 149.835 276.393 150.176C276.692 150.517 276.847 150.971 276.857 151.536C276.857 152.037 276.719 152.485 276.441 152.88C276.164 153.275 275.769 153.584 275.257 153.808C274.756 154.032 274.164 154.144 273.481 154.144ZM26.328 161.672V166.552C26.328 166.883 26.4027 167.123 26.552 167.272C26.712 167.411 26.9787 167.48 27.352 167.48H28.472V169H27.032C26.2107 169 25.5813 168.808 25.144 168.424C24.7067 168.04 24.488 167.416 24.488 166.552V161.672H23.448V160.184H24.488V157.992H26.328V160.184H28.472V161.672H26.328ZM33.1771 169.144C32.3451 169.144 31.5931 168.957 30.9211 168.584C30.2491 168.2 29.7211 167.667 29.3371 166.984C28.9531 166.291 28.7611 165.491 28.7611 164.584C28.7611 163.688 28.9585 162.893 29.3531 162.2C29.7478 161.507 30.2865 160.973 30.9691 160.6C31.6518 160.227 32.4145 160.04 33.2571 160.04C34.0998 160.04 34.8625 160.227 35.5451 160.6C36.2278 160.973 36.7665 161.507 37.1611 162.2C37.5558 162.893 37.7531 163.688 37.7531 164.584C37.7531 165.48 37.5505 166.275 37.1451 166.968C36.7398 167.661 36.1851 168.2 35.4811 168.584C34.7878 168.957 34.0198 169.144 33.1771 169.144ZM33.1771 167.56C33.6465 167.56 34.0838 167.448 34.4891 167.224C34.9051 167 35.2411 166.664 35.4971 166.216C35.7531 165.768 35.8811 165.224 35.8811 164.584C35.8811 163.944 35.7585 163.405 35.5131 162.968C35.2678 162.52 34.9425 162.184 34.5371 161.96C34.1318 161.736 33.6945 161.624 33.2251 161.624C32.7558 161.624 32.3185 161.736 31.9131 161.96C31.5185 162.184 31.2038 162.52 30.9691 162.968C30.7345 163.405 30.6171 163.944 30.6171 164.584C30.6171 165.533 30.8571 166.269 31.3371 166.792C31.8278 167.304 32.4411 167.56 33.1771 167.56ZM38.1482 164.552C38.1482 163.667 38.3296 162.883 38.6922 162.2C39.0656 161.517 39.5669 160.989 40.1962 160.616C40.8362 160.232 41.5456 160.04 42.3242 160.04C42.9002 160.04 43.4656 160.168 44.0202 160.424C44.5856 160.669 45.0336 161 45.3643 161.416V157.16H47.2043V169H45.3643V167.672C45.0656 168.099 44.6496 168.451 44.1163 168.728C43.5936 169.005 42.9909 169.144 42.3082 169.144C41.5402 169.144 40.8362 168.952 40.1962 168.568C39.5669 168.173 39.0656 167.629 38.6922 166.936C38.3296 166.232 38.1482 165.437 38.1482 164.552ZM45.3643 164.584C45.3643 163.976 45.2363 163.448 44.9802 163C44.7349 162.552 44.4096 162.211 44.0043 161.976C43.5989 161.741 43.1616 161.624 42.6922 161.624C42.2229 161.624 41.7856 161.741 41.3802 161.976C40.9749 162.2 40.6442 162.536 40.3882 162.984C40.1429 163.421 40.0202 163.944 40.0202 164.552C40.0202 165.16 40.1429 165.693 40.3882 166.152C40.6442 166.611 40.9749 166.963 41.3802 167.208C41.7962 167.443 42.2336 167.56 42.6922 167.56C43.1616 167.56 43.5989 167.443 44.0043 167.208C44.4096 166.973 44.7349 166.632 44.9802 166.184C45.2363 165.725 45.3643 165.192 45.3643 164.584ZM48.192 164.552C48.192 163.667 48.3733 162.883 48.736 162.2C49.1093 161.517 49.6107 160.989 50.24 160.616C50.88 160.232 51.584 160.04 52.352 160.04C53.0453 160.04 53.648 160.179 54.16 160.456C54.6827 160.723 55.0987 161.059 55.408 161.464V160.184H57.248V169H55.408V167.688C55.0987 168.104 54.6773 168.451 54.144 168.728C53.6107 169.005 53.0027 169.144 52.32 169.144C51.5627 169.144 50.8693 168.952 50.24 168.568C49.6107 168.173 49.1093 167.629 48.736 166.936C48.3733 166.232 48.192 165.437 48.192 164.552ZM55.408 164.584C55.408 163.976 55.28 163.448 55.024 163C54.7787 162.552 54.4533 162.211 54.048 161.976C53.6427 161.741 53.2053 161.624 52.736 161.624C52.2667 161.624 51.8293 161.741 51.424 161.976C51.0187 162.2 50.688 162.536 50.432 162.984C50.1867 163.421 50.064 163.944 50.064 164.552C50.064 165.16 50.1867 165.693 50.432 166.152C50.688 166.611 51.0187 166.963 51.424 167.208C51.84 167.443 52.2773 167.56 52.736 167.56C53.2053 167.56 53.6427 167.443 54.048 167.208C54.4533 166.973 54.7787 166.632 55.024 166.184C55.28 165.725 55.408 165.192 55.408 164.584ZM66.7797 160.184L61.3717 173.144H59.4837L61.2757 168.856L57.8037 160.184H59.8357L62.3157 166.904L64.8917 160.184H66.7797Z" fill="white"/>
<g filter="url(#filter1_d_1232_828)">
<path d="M32.816 66.728C36.048 66.728 38.576 67.384 40.4 68.696C42.224 69.976 43.44 71.784 44.048 74.12H46.976V77.192H44.48C44.512 77.416 44.528 77.64 44.528 77.864C44.528 78.088 44.528 78.296 44.528 78.488C44.528 78.84 44.512 79.192 44.48 79.544C44.48 79.896 44.464 80.232 44.432 80.552H46.976V83.576H43.76C43.28 85.016 42.512 86.296 41.456 87.416C40.432 88.536 39.088 89.432 37.424 90.104C35.76 90.744 33.712 91.064 31.28 91.064H29.696V101H23.744V83.576H20.48V80.552H23.744V77.192H20.48V74.12H23.744V66.728H32.816ZM37.376 83.576H29.696V86.12H31.136C32.64 86.12 33.92 85.928 34.976 85.544C36.032 85.128 36.832 84.472 37.376 83.576ZM38.432 77.192H29.696V80.552H38.384C38.448 80.264 38.48 79.976 38.48 79.688C38.48 79.368 38.48 79.048 38.48 78.728C38.48 78.44 38.48 78.184 38.48 77.96C38.48 77.704 38.464 77.448 38.432 77.192ZM32.576 71.672H29.696V74.12H37.616C37.2 73.32 36.576 72.712 35.744 72.296C34.912 71.88 33.856 71.672 32.576 71.672ZM49.7248 93.416C52.7968 90.856 55.2448 88.728 57.0688 87.032C58.8928 85.304 60.4128 83.512 61.6288 81.656C62.8448 79.8 63.4528 77.976 63.4528 76.184C63.4528 74.552 63.0688 73.272 62.3008 72.344C61.5328 71.416 60.3488 70.952 58.7488 70.952C57.1488 70.952 55.9168 71.496 55.0528 72.584C54.1888 73.64 53.7408 75.096 53.7088 76.952H47.1808C47.3088 73.112 48.4448 70.2 50.5888 68.216C52.7648 66.232 55.5168 65.24 58.8448 65.24C62.4928 65.24 65.2928 66.216 67.2448 68.168C69.1968 70.088 70.1728 72.632 70.1728 75.8C70.1728 78.296 69.5008 80.68 68.1568 82.952C66.8128 85.224 65.2768 87.208 63.5488 88.904C61.8208 90.568 59.5648 92.584 56.7808 94.952H70.9408V100.52H47.2288V95.528L49.7248 93.416ZM96.2953 71.816H80.7433V80.024C81.4153 79.192 82.3753 78.52 83.6233 78.008C84.8713 77.464 86.1993 77.192 87.6073 77.192C90.1673 77.192 92.2633 77.752 93.8953 78.872C95.5273 79.992 96.7113 81.432 97.4473 83.192C98.1833 84.92 98.5513 86.776 98.5513 88.76C98.5513 92.44 97.4953 95.4 95.3833 97.64C93.3033 99.88 90.3273 101 86.4553 101C82.8073 101 79.8953 100.088 77.7193 98.264C75.5433 96.44 74.3113 94.056 74.0233 91.112H80.5513C80.8393 92.392 81.4793 93.416 82.4713 94.184C83.4953 94.952 84.7913 95.336 86.3593 95.336C88.2473 95.336 89.6713 94.744 90.6313 93.56C91.5913 92.376 92.0713 90.808 92.0713 88.856C92.0713 86.872 91.5753 85.368 90.5833 84.344C89.6233 83.288 88.1993 82.76 86.3113 82.76C84.9673 82.76 83.8473 83.096 82.9513 83.768C82.0553 84.44 81.4153 85.336 81.0313 86.456H74.5993V65.912H96.2953V71.816ZM109.378 93.944L103.762 107.432H99.4419L102.562 93.944H109.378ZM110.765 94.184V88.904L126.461 66.44H134.285V88.328H138.509V94.184H134.285V101H127.565V94.184H110.765ZM127.997 73.64L118.157 88.328H127.997V73.64ZM140.484 75.224C140.644 72.024 141.764 69.56 143.844 67.832C145.956 66.072 148.724 65.192 152.148 65.192C154.484 65.192 156.484 65.608 158.148 66.44C159.812 67.24 161.06 68.344 161.892 69.752C162.756 71.128 163.188 72.696 163.188 74.456C163.188 76.472 162.66 78.184 161.604 79.592C160.58 80.968 159.348 81.896 157.908 82.376V82.568C159.764 83.144 161.204 84.168 162.228 85.64C163.284 87.112 163.812 89 163.812 91.304C163.812 93.224 163.364 94.936 162.468 96.44C161.604 97.944 160.308 99.128 158.58 99.992C156.884 100.824 154.836 101.24 152.436 101.24C148.82 101.24 145.876 100.328 143.604 98.504C141.332 96.68 140.132 93.992 140.004 90.44H146.532C146.596 92.008 147.124 93.272 148.116 94.232C149.14 95.16 150.532 95.624 152.292 95.624C153.924 95.624 155.172 95.176 156.036 94.28C156.932 93.352 157.38 92.168 157.38 90.728C157.38 88.808 156.772 87.432 155.556 86.6C154.34 85.768 152.452 85.352 149.892 85.352H148.5V79.832H149.892C154.436 79.832 156.708 78.312 156.708 75.272C156.708 73.896 156.292 72.824 155.46 72.056C154.66 71.288 153.492 70.904 151.956 70.904C150.452 70.904 149.284 71.32 148.452 72.152C147.652 72.952 147.188 73.976 147.06 75.224H140.484ZM166.722 83.048C166.722 77.512 167.714 73.176 169.698 70.04C171.714 66.904 175.042 65.336 179.682 65.336C184.322 65.336 187.634 66.904 189.618 70.04C191.634 73.176 192.642 77.512 192.642 83.048C192.642 88.616 191.634 92.984 189.618 96.152C187.634 99.32 184.322 100.904 179.682 100.904C175.042 100.904 171.714 99.32 169.698 96.152C167.714 92.984 166.722 88.616 166.722 83.048ZM186.018 83.048C186.018 80.68 185.858 78.696 185.538 77.096C185.25 75.464 184.642 74.136 183.714 73.112C182.818 72.088 181.474 71.576 179.682 71.576C177.89 71.576 176.53 72.088 175.602 73.112C174.706 74.136 174.098 75.464 173.778 77.096C173.49 78.696 173.346 80.68 173.346 83.048C173.346 85.48 173.49 87.528 173.778 89.192C174.066 90.824 174.674 92.152 175.602 93.176C176.53 94.168 177.89 94.664 179.682 94.664C181.474 94.664 182.834 94.168 183.762 93.176C184.69 92.152 185.298 90.824 185.586 89.192C185.874 87.528 186.018 85.48 186.018 83.048Z" fill="white"/>
</g>
<path d="M34.88 119.04V121.3H31.16V133H28.36V121.3H24.64V119.04H34.88ZM40.843 133.18C39.7763 133.18 38.8163 132.947 37.963 132.48C37.1096 132 36.4363 131.327 35.943 130.46C35.463 129.593 35.223 128.593 35.223 127.46C35.223 126.327 35.4696 125.327 35.963 124.46C36.4696 123.593 37.1563 122.927 38.023 122.46C38.8896 121.98 39.8563 121.74 40.923 121.74C41.9896 121.74 42.9563 121.98 43.823 122.46C44.6896 122.927 45.3696 123.593 45.863 124.46C46.3696 125.327 46.623 126.327 46.623 127.46C46.623 128.593 46.363 129.593 45.843 130.46C45.3363 131.327 44.643 132 43.763 132.48C42.8963 132.947 41.923 133.18 40.843 133.18ZM40.843 130.74C41.3496 130.74 41.823 130.62 42.263 130.38C42.7163 130.127 43.0763 129.753 43.343 129.26C43.6096 128.767 43.743 128.167 43.743 127.46C43.743 126.407 43.463 125.6 42.903 125.04C42.3563 124.467 41.683 124.18 40.883 124.18C40.083 124.18 39.4096 124.467 38.863 125.04C38.3296 125.6 38.063 126.407 38.063 127.46C38.063 128.513 38.323 129.327 38.843 129.9C39.3763 130.46 40.043 130.74 40.843 130.74ZM50.9369 124.22V129.58C50.9369 129.953 51.0235 130.227 51.1969 130.4C51.3835 130.56 51.6902 130.64 52.1169 130.64H53.4169V133H51.6569C49.2969 133 48.1169 131.853 48.1169 129.56V124.22H46.7969V121.92H48.1169V119.18H50.9369V121.92H53.4169V124.22H50.9369ZM53.7108 127.42C53.7108 126.3 53.9308 125.307 54.3708 124.44C54.8241 123.573 55.4308 122.907 56.1908 122.44C56.9641 121.973 57.8241 121.74 58.7708 121.74C59.5974 121.74 60.3174 121.907 60.9308 122.24C61.5574 122.573 62.0574 122.993 62.4308 123.5V121.92H65.2508V133H62.4308V131.38C62.0708 131.9 61.5708 132.333 60.9308 132.68C60.3041 133.013 59.5774 133.18 58.7508 133.18C57.8174 133.18 56.9641 132.94 56.1908 132.46C55.4308 131.98 54.8241 131.307 54.3708 130.44C53.9308 129.56 53.7108 128.553 53.7108 127.42ZM62.4308 127.46C62.4308 126.78 62.2974 126.2 62.0308 125.72C61.7641 125.227 61.4041 124.853 60.9508 124.6C60.4974 124.333 60.0108 124.2 59.4908 124.2C58.9708 124.2 58.4908 124.327 58.0508 124.58C57.6108 124.833 57.2508 125.207 56.9708 125.7C56.7041 126.18 56.5708 126.753 56.5708 127.42C56.5708 128.087 56.7041 128.673 56.9708 129.18C57.2508 129.673 57.6108 130.053 58.0508 130.32C58.5041 130.587 58.9841 130.72 59.4908 130.72C60.0108 130.72 60.4974 130.593 60.9508 130.34C61.4041 130.073 61.7641 129.7 62.0308 129.22C62.2974 128.727 62.4308 128.14 62.4308 127.46ZM69.7855 118.2V133H66.9855V118.2H69.7855ZM80.1375 133.14C79.1642 133.14 78.2842 132.973 77.4975 132.64C76.7242 132.307 76.1108 131.827 75.6575 131.2C75.2042 130.573 74.9708 129.833 74.9575 128.98H77.9575C77.9975 129.553 78.1975 130.007 78.5575 130.34C78.9308 130.673 79.4375 130.84 80.0775 130.84C80.7308 130.84 81.2442 130.687 81.6175 130.38C81.9908 130.06 82.1775 129.647 82.1775 129.14C82.1775 128.727 82.0508 128.387 81.7975 128.12C81.5442 127.853 81.2242 127.647 80.8375 127.5C80.4642 127.34 79.9442 127.167 79.2775 126.98C78.3708 126.713 77.6308 126.453 77.0575 126.2C76.4975 125.933 76.0108 125.54 75.5975 125.02C75.1975 124.487 74.9975 123.78 74.9975 122.9C74.9975 122.073 75.2042 121.353 75.6175 120.74C76.0308 120.127 76.6108 119.66 77.3575 119.34C78.1042 119.007 78.9575 118.84 79.9175 118.84C81.3575 118.84 82.5242 119.193 83.4175 119.9C84.3242 120.593 84.8242 121.567 84.9175 122.82H81.8375C81.8108 122.34 81.6042 121.947 81.2175 121.64C80.8442 121.32 80.3442 121.16 79.7175 121.16C79.1708 121.16 78.7308 121.3 78.3975 121.58C78.0775 121.86 77.9175 122.267 77.9175 122.8C77.9175 123.173 78.0375 123.487 78.2775 123.74C78.5308 123.98 78.8375 124.18 79.1975 124.34C79.5708 124.487 80.0908 124.66 80.7575 124.86C81.6642 125.127 82.4042 125.393 82.9775 125.66C83.5508 125.927 84.0442 126.327 84.4575 126.86C84.8708 127.393 85.0775 128.093 85.0775 128.96C85.0775 129.707 84.8842 130.4 84.4975 131.04C84.1108 131.68 83.5442 132.193 82.7975 132.58C82.0508 132.953 81.1642 133.14 80.1375 133.14ZM85.785 127.42C85.785 126.3 86.005 125.307 86.445 124.44C86.8983 123.573 87.505 122.907 88.265 122.44C89.0383 121.973 89.8983 121.74 90.845 121.74C91.6717 121.74 92.3917 121.907 93.005 122.24C93.6317 122.573 94.1317 122.993 94.505 123.5V121.92H97.325V133H94.505V131.38C94.145 131.9 93.645 132.333 93.005 132.68C92.3783 133.013 91.6517 133.18 90.825 133.18C89.8917 133.18 89.0383 132.94 88.265 132.46C87.505 131.98 86.8983 131.307 86.445 130.44C86.005 129.56 85.785 128.553 85.785 127.42ZM94.505 127.46C94.505 126.78 94.3717 126.2 94.105 125.72C93.8383 125.227 93.4783 124.853 93.025 124.6C92.5717 124.333 92.085 124.2 91.565 124.2C91.045 124.2 90.565 124.327 90.125 124.58C89.685 124.833 89.325 125.207 89.045 125.7C88.7783 126.18 88.645 126.753 88.645 127.42C88.645 128.087 88.7783 128.673 89.045 129.18C89.325 129.673 89.685 130.053 90.125 130.32C90.5783 130.587 91.0583 130.72 91.565 130.72C92.085 130.72 92.5717 130.593 93.025 130.34C93.4783 130.073 93.8383 129.7 94.105 129.22C94.3717 128.727 94.505 128.14 94.505 127.46ZM101.86 118.2V133H99.0597V118.2H101.86ZM113.926 127.22C113.926 127.62 113.899 127.98 113.846 128.3H105.746C105.813 129.1 106.093 129.727 106.586 130.18C107.079 130.633 107.686 130.86 108.406 130.86C109.446 130.86 110.186 130.413 110.626 129.52H113.646C113.326 130.587 112.713 131.467 111.806 132.16C110.899 132.84 109.786 133.18 108.466 133.18C107.399 133.18 106.439 132.947 105.586 132.48C104.746 132 104.086 131.327 103.606 130.46C103.139 129.593 102.906 128.593 102.906 127.46C102.906 126.313 103.139 125.307 103.606 124.44C104.073 123.573 104.726 122.907 105.566 122.44C106.406 121.973 107.373 121.74 108.466 121.74C109.519 121.74 110.459 121.967 111.286 122.42C112.126 122.873 112.773 123.52 113.226 124.36C113.693 125.187 113.926 126.14 113.926 127.22ZM111.026 126.42C111.013 125.7 110.753 125.127 110.246 124.7C109.739 124.26 109.119 124.04 108.386 124.04C107.693 124.04 107.106 124.253 106.626 124.68C106.159 125.093 105.873 125.673 105.766 126.42H111.026ZM119.21 133.18C118.303 133.18 117.49 133.02 116.77 132.7C116.05 132.367 115.477 131.92 115.05 131.36C114.637 130.8 114.41 130.18 114.37 129.5H117.19C117.243 129.927 117.45 130.28 117.81 130.56C118.183 130.84 118.643 130.98 119.19 130.98C119.723 130.98 120.137 130.873 120.43 130.66C120.737 130.447 120.89 130.173 120.89 129.84C120.89 129.48 120.703 129.213 120.33 129.04C119.97 128.853 119.39 128.653 118.59 128.44C117.763 128.24 117.083 128.033 116.55 127.82C116.03 127.607 115.577 127.28 115.19 126.84C114.817 126.4 114.63 125.807 114.63 125.06C114.63 124.447 114.803 123.887 115.15 123.38C115.51 122.873 116.017 122.473 116.67 122.18C117.337 121.887 118.117 121.74 119.01 121.74C120.33 121.74 121.383 122.073 122.17 122.74C122.957 123.393 123.39 124.28 123.47 125.4H120.79C120.75 124.96 120.563 124.613 120.23 124.36C119.91 124.093 119.477 123.96 118.93 123.96C118.423 123.96 118.03 124.053 117.75 124.24C117.483 124.427 117.35 124.687 117.35 125.02C117.35 125.393 117.537 125.68 117.91 125.88C118.283 126.067 118.863 126.26 119.65 126.46C120.45 126.66 121.11 126.867 121.63 127.08C122.15 127.293 122.597 127.627 122.97 128.08C123.357 128.52 123.557 129.107 123.57 129.84C123.57 130.48 123.39 131.053 123.03 131.56C122.683 132.067 122.177 132.467 121.51 132.76C120.857 133.04 120.09 133.18 119.21 133.18ZM138.134 119.04V121.3H134.414V133H131.614V121.3H127.894V119.04H138.134ZM144.097 133.18C143.03 133.18 142.07 132.947 141.217 132.48C140.364 132 139.69 131.327 139.197 130.46C138.717 129.593 138.477 128.593 138.477 127.46C138.477 126.327 138.724 125.327 139.217 124.46C139.724 123.593 140.41 122.927 141.277 122.46C142.144 121.98 143.11 121.74 144.177 121.74C145.244 121.74 146.21 121.98 147.077 122.46C147.944 122.927 148.624 123.593 149.117 124.46C149.624 125.327 149.877 126.327 149.877 127.46C149.877 128.593 149.617 129.593 149.097 130.46C148.59 131.327 147.897 132 147.017 132.48C146.15 132.947 145.177 133.18 144.097 133.18ZM144.097 130.74C144.604 130.74 145.077 130.62 145.517 130.38C145.97 130.127 146.33 129.753 146.597 129.26C146.864 128.767 146.997 128.167 146.997 127.46C146.997 126.407 146.717 125.6 146.157 125.04C145.61 124.467 144.937 124.18 144.137 124.18C143.337 124.18 142.664 124.467 142.117 125.04C141.584 125.6 141.317 126.407 141.317 127.46C141.317 128.513 141.577 129.327 142.097 129.9C142.63 130.46 143.297 130.74 144.097 130.74ZM150.211 127.42C150.211 126.3 150.431 125.307 150.871 124.44C151.324 123.573 151.937 122.907 152.711 122.44C153.484 121.973 154.344 121.74 155.291 121.74C156.011 121.74 156.697 121.9 157.351 122.22C158.004 122.527 158.524 122.94 158.911 123.46V118.2H161.751V133H158.911V131.36C158.564 131.907 158.077 132.347 157.451 132.68C156.824 133.013 156.097 133.18 155.271 133.18C154.337 133.18 153.484 132.94 152.711 132.46C151.937 131.98 151.324 131.307 150.871 130.44C150.431 129.56 150.211 128.553 150.211 127.42ZM158.931 127.46C158.931 126.78 158.797 126.2 158.531 125.72C158.264 125.227 157.904 124.853 157.451 124.6C156.997 124.333 156.511 124.2 155.991 124.2C155.471 124.2 154.991 124.327 154.551 124.58C154.111 124.833 153.751 125.207 153.471 125.7C153.204 126.18 153.071 126.753 153.071 127.42C153.071 128.087 153.204 128.673 153.471 129.18C153.751 129.673 154.111 130.053 154.551 130.32C155.004 130.587 155.484 130.72 155.991 130.72C156.511 130.72 156.997 130.593 157.451 130.34C157.904 130.073 158.264 129.7 158.531 129.22C158.797 128.727 158.931 128.14 158.931 127.46ZM162.765 127.42C162.765 126.3 162.985 125.307 163.425 124.44C163.879 123.573 164.485 122.907 165.245 122.44C166.019 121.973 166.879 121.74 167.825 121.74C168.652 121.74 169.372 121.907 169.985 122.24C170.612 122.573 171.112 122.993 171.485 123.5V121.92H174.305V133H171.485V131.38C171.125 131.9 170.625 132.333 169.985 132.68C169.359 133.013 168.632 133.18 167.805 133.18C166.872 133.18 166.019 132.94 165.245 132.46C164.485 131.98 163.879 131.307 163.425 130.44C162.985 129.56 162.765 128.553 162.765 127.42ZM171.485 127.46C171.485 126.78 171.352 126.2 171.085 125.72C170.819 125.227 170.459 124.853 170.005 124.6C169.552 124.333 169.065 124.2 168.545 124.2C168.025 124.2 167.545 124.327 167.105 124.58C166.665 124.833 166.305 125.207 166.025 125.7C165.759 126.18 165.625 126.753 165.625 127.42C165.625 128.087 165.759 128.673 166.025 129.18C166.305 129.673 166.665 130.053 167.105 130.32C167.559 130.587 168.039 130.72 168.545 130.72C169.065 130.72 169.552 130.593 170.005 130.34C170.459 130.073 170.819 129.7 171.085 129.22C171.352 128.727 171.485 128.14 171.485 127.46ZM186.64 121.92L179.78 138.24H176.8L179.2 132.72L174.76 121.92H177.9L180.76 129.66L183.66 121.92H186.64Z" fill="white"/>
<path d="M219.964 54.466L220.001 45.6494C220.008 43.8956 220.73 42.2167 222.007 40.9819C223.284 39.7472 225.012 39.0577 226.811 39.0652C228.61 39.0727 230.333 39.7765 231.6 41.0219C232.867 42.2673 233.574 43.9522 233.567 45.7059L233.53 54.5225M240.332 50.1425L242.296 76.4312C242.318 76.7342 242.277 77.0384 242.173 77.3249C242.069 77.6113 241.906 77.8738 241.694 78.0958C241.481 78.3178 241.224 78.4946 240.938 78.615C240.652 78.7355 240.343 78.797 240.031 78.7957L213.261 78.6842C212.949 78.6829 212.641 78.6188 212.356 78.496C212.071 78.3732 211.815 78.1942 211.605 77.9705C211.394 77.7467 211.233 77.4829 211.132 77.1955C211.03 76.9082 210.991 76.6037 211.016 76.3009L213.199 50.0294L240.332 50.1425Z" stroke="white" stroke-width="5" stroke-linecap="round" stroke-linejoin="round"/>
<defs>
<filter id="filter0_d_1232_828" x="0" y="0" width="293" height="199" filterUnits="userSpaceOnUse" color-interpolation-filters="sRGB">
<feFlood flood-opacity="0" result="BackgroundImageFix"/>
<feColorMatrix in="SourceAlpha" type="matrix" values="0 0 0 0 0 0 0 0 0 0 0 0 0 0 0 0 0 0 127 0" result="hardAlpha"/>
<feOffset dx="2" dy="2"/>
<feGaussianBlur stdDeviation="2"/>
<feComposite in2="hardAlpha" operator="out"/>
<feColorMatrix type="matrix" values="0 0 0 0 0 0 0 0 0 0 0 0 0 0 0 0 0 0 0.25 0"/>
<feBlend mode="normal" in2="BackgroundImageFix" result="effect1_dropShadow_1232_828"/>
<feBlend mode="normal" in="SourceGraphic" in2="effect1_dropShadow_1232_828" result="shape"/>
</filter>
<filter id="filter1_d_1232_828" x="16.48" y="65.192" width="180.162" height="50.24" filterUnits="userSpaceOnUse" color-interpolation-filters="sRGB">
<feFlood flood-opacity="0" result="BackgroundImageFix"/>
<feColorMatrix in="SourceAlpha" type="matrix" values="0 0 0 0 0 0 0 0 0 0 0 0 0 0 0 0 0 0 127 0" result="hardAlpha"/>
<feOffset dy="4"/>
<feGaussianBlur stdDeviation="2"/>
<feComposite in2="hardAlpha" operator="out"/>
<feColorMatrix type="matrix" values="0 0 0 0 0 0 0 0 0 0 0 0 0 0 0 0 0 0 0.25 0"/>
<feBlend mode="normal" in2="BackgroundImageFix" result="effect1_dropShadow_1232_828"/>
<feBlend mode="normal" in="SourceGraphic" in2="effect1_dropShadow_1232_828" result="shape"/>
</filter>
<linearGradient id="paint0_linear_1232_828" x1="-44" y1="81" x2="306.5" y2="98" gradientUnits="userSpaceOnUse">
<stop stop-color="#6318C6"/>
<stop offset="1" stop-color="#CCAAFA"/>
</linearGradient>
</defs>
</svg>
