<svg width="293" height="199" viewBox="0 0 293 199" fill="none" xmlns="http://www.w3.org/2000/svg">
<g filter="url(#filter0_d_1232_840)">
<rect x="2" y="2" width="285" height="191" rx="10" fill="url(#paint0_linear_1232_840)"/>
<rect x="2.5" y="2.5" width="284" height="190" rx="9.5" stroke="#777777" stroke-opacity="0.3"/>
</g>
<path d="M33.336 154H31.512L26.024 145.696V154H24.2V142.864H26.024L31.512 151.152V142.864H33.336V154ZM42.9152 145.184V154H41.0912V152.96C40.8033 153.323 40.4246 153.611 39.9553 153.824C39.4966 154.027 39.0059 154.128 38.4833 154.128C37.7899 154.128 37.1659 153.984 36.6112 153.696C36.0672 153.408 35.6352 152.981 35.3152 152.416C35.0059 151.851 34.8512 151.168 34.8512 150.368V145.184H36.6593V150.096C36.6593 150.885 36.8566 151.493 37.2513 151.92C37.6459 152.336 38.1846 152.544 38.8672 152.544C39.5499 152.544 40.0886 152.336 40.4833 151.92C40.8886 151.493 41.0912 150.885 41.0912 150.096V145.184H42.9152ZM55.1939 145.04C55.8872 145.04 56.5059 145.184 57.0499 145.472C57.6045 145.76 58.0365 146.187 58.3459 146.752C58.6659 147.317 58.8259 148 58.8259 148.8V154H57.0179V149.072C57.0179 148.283 56.8205 147.68 56.4259 147.264C56.0312 146.837 55.4925 146.624 54.8099 146.624C54.1272 146.624 53.5832 146.837 53.1779 147.264C52.7832 147.68 52.5859 148.283 52.5859 149.072V154H50.7779V149.072C50.7779 148.283 50.5805 147.68 50.1859 147.264C49.7912 146.837 49.2525 146.624 48.5699 146.624C47.8872 146.624 47.3432 146.837 46.9379 147.264C46.5432 147.68 46.3459 148.283 46.3459 149.072V154H44.5219V145.184H46.3459V146.192C46.6445 145.829 47.0232 145.547 47.4819 145.344C47.9405 145.141 48.4312 145.04 48.9539 145.04C49.6579 145.04 50.2872 145.189 50.8419 145.488C51.3965 145.787 51.8232 146.219 52.1219 146.784C52.3885 146.251 52.8045 145.829 53.3699 145.52C53.9352 145.2 54.5432 145.04 55.1939 145.04ZM62.1709 146.496C62.4802 146.069 62.9015 145.723 63.4349 145.456C63.9789 145.179 64.5815 145.04 65.2429 145.04C66.0215 145.04 66.7255 145.227 67.3549 145.6C67.9842 145.973 68.4802 146.507 68.8429 147.2C69.2055 147.883 69.3869 148.667 69.3869 149.552C69.3869 150.437 69.2055 151.232 68.8429 151.936C68.4802 152.629 67.9789 153.173 67.3389 153.568C66.7095 153.952 66.0109 154.144 65.2429 154.144C64.5602 154.144 63.9522 154.011 63.4189 153.744C62.8962 153.477 62.4802 153.136 62.1709 152.72V154H60.3469V142.16H62.1709V146.496ZM67.5309 149.552C67.5309 148.944 67.4029 148.421 67.1469 147.984C66.9015 147.536 66.5709 147.2 66.1549 146.976C65.7495 146.741 65.3122 146.624 64.8429 146.624C64.3842 146.624 63.9469 146.741 63.5309 146.976C63.1255 147.211 62.7949 147.552 62.5389 148C62.2935 148.448 62.1709 148.976 62.1709 149.584C62.1709 150.192 62.2935 150.725 62.5389 151.184C62.7949 151.632 63.1255 151.973 63.5309 152.208C63.9469 152.443 64.3842 152.56 64.8429 152.56C65.3122 152.56 65.7495 152.443 66.1549 152.208C66.5709 151.963 66.9015 151.611 67.1469 151.152C67.4029 150.693 67.5309 150.16 67.5309 149.552ZM78.4706 149.376C78.4706 149.707 78.4493 150.005 78.4066 150.272H71.6706C71.724 150.976 71.9853 151.541 72.4546 151.968C72.924 152.395 73.5 152.608 74.1826 152.608C75.164 152.608 75.8573 152.197 76.2626 151.376H78.2306C77.964 152.187 77.4786 152.853 76.7746 153.376C76.0813 153.888 75.2173 154.144 74.1826 154.144C73.34 154.144 72.5826 153.957 71.9106 153.584C71.2493 153.2 70.7266 152.667 70.3426 151.984C69.9693 151.291 69.7826 150.491 69.7826 149.584C69.7826 148.677 69.964 147.883 70.3266 147.2C70.7 146.507 71.2173 145.973 71.8786 145.6C72.5506 145.227 73.3186 145.04 74.1826 145.04C75.0146 145.04 75.756 145.221 76.4066 145.584C77.0573 145.947 77.564 146.459 77.9266 147.12C78.2893 147.771 78.4706 148.523 78.4706 149.376ZM76.5666 148.8C76.556 148.128 76.316 147.589 75.8466 147.184C75.3773 146.779 74.796 146.576 74.1026 146.576C73.4733 146.576 72.9346 146.779 72.4866 147.184C72.0386 147.579 71.772 148.117 71.6866 148.8H76.5666ZM81.2896 146.464C81.5563 146.016 81.9083 145.669 82.3456 145.424C82.7936 145.168 83.3216 145.04 83.9296 145.04V146.928H83.4656C82.751 146.928 82.207 147.109 81.8336 147.472C81.471 147.835 81.2896 148.464 81.2896 149.36V154H79.4656V145.184H81.2896V146.464ZM91.9865 154.144C91.1545 154.144 90.4025 153.957 89.7305 153.584C89.0585 153.2 88.5305 152.667 88.1465 151.984C87.7625 151.291 87.5705 150.491 87.5705 149.584C87.5705 148.688 87.7678 147.893 88.1625 147.2C88.5572 146.507 89.0958 145.973 89.7785 145.6C90.4612 145.227 91.2238 145.04 92.0665 145.04C92.9092 145.04 93.6718 145.227 94.3545 145.6C95.0372 145.973 95.5758 146.507 95.9705 147.2C96.3652 147.893 96.5625 148.688 96.5625 149.584C96.5625 150.48 96.3598 151.275 95.9545 151.968C95.5492 152.661 94.9945 153.2 94.2905 153.584C93.5972 153.957 92.8292 154.144 91.9865 154.144ZM91.9865 152.56C92.4558 152.56 92.8932 152.448 93.2985 152.224C93.7145 152 94.0505 151.664 94.3065 151.216C94.5625 150.768 94.6905 150.224 94.6905 149.584C94.6905 148.944 94.5678 148.405 94.3225 147.968C94.0772 147.52 93.7518 147.184 93.3465 146.96C92.9412 146.736 92.5038 146.624 92.0345 146.624C91.5652 146.624 91.1278 146.736 90.7225 146.96C90.3278 147.184 90.0132 147.52 89.7785 147.968C89.5438 148.405 89.4265 148.944 89.4265 149.584C89.4265 150.533 89.6665 151.269 90.1465 151.792C90.6372 152.304 91.2505 152.56 91.9865 152.56ZM101.262 146.672H99.6296V154H97.7896V146.672H96.7496V145.184H97.7896V144.56C97.7896 143.547 98.0563 142.811 98.5896 142.352C99.1336 141.883 99.9816 141.648 101.134 141.648V143.168C100.579 143.168 100.19 143.275 99.9656 143.488C99.7416 143.691 99.6296 144.048 99.6296 144.56V145.184H101.262V146.672ZM108.634 154.144C107.941 154.144 107.317 154.021 106.762 153.776C106.218 153.52 105.786 153.179 105.466 152.752C105.146 152.315 104.976 151.829 104.954 151.296H106.842C106.874 151.669 107.05 151.984 107.37 152.24C107.701 152.485 108.112 152.608 108.602 152.608C109.114 152.608 109.509 152.512 109.786 152.32C110.074 152.117 110.218 151.861 110.218 151.552C110.218 151.221 110.058 150.976 109.738 150.816C109.429 150.656 108.933 150.48 108.25 150.288C107.589 150.107 107.05 149.931 106.634 149.76C106.218 149.589 105.856 149.328 105.546 148.976C105.248 148.624 105.098 148.16 105.098 147.584C105.098 147.115 105.237 146.688 105.514 146.304C105.792 145.909 106.186 145.6 106.698 145.376C107.221 145.152 107.818 145.04 108.49 145.04C109.493 145.04 110.298 145.296 110.906 145.808C111.525 146.309 111.856 146.997 111.898 147.872H110.074C110.042 147.477 109.882 147.163 109.594 146.928C109.306 146.693 108.917 146.576 108.426 146.576C107.946 146.576 107.578 146.667 107.322 146.848C107.066 147.029 106.938 147.269 106.938 147.568C106.938 147.803 107.024 148 107.194 148.16C107.365 148.32 107.573 148.448 107.818 148.544C108.064 148.629 108.426 148.741 108.906 148.88C109.546 149.051 110.069 149.227 110.474 149.408C110.89 149.579 111.248 149.835 111.546 150.176C111.845 150.517 112 150.971 112.01 151.536C112.01 152.037 111.872 152.485 111.594 152.88C111.317 153.275 110.922 153.584 110.41 153.808C109.909 154.032 109.317 154.144 108.634 154.144ZM112.573 149.552C112.573 148.667 112.755 147.883 113.117 147.2C113.491 146.517 113.992 145.989 114.621 145.616C115.261 145.232 115.965 145.04 116.733 145.04C117.427 145.04 118.029 145.179 118.541 145.456C119.064 145.723 119.48 146.059 119.789 146.464V145.184H121.629V154H119.789V152.688C119.48 153.104 119.059 153.451 118.525 153.728C117.992 154.005 117.384 154.144 116.701 154.144C115.944 154.144 115.251 153.952 114.621 153.568C113.992 153.173 113.491 152.629 113.117 151.936C112.755 151.232 112.573 150.437 112.573 149.552ZM119.789 149.584C119.789 148.976 119.661 148.448 119.405 148C119.16 147.552 118.835 147.211 118.429 146.976C118.024 146.741 117.587 146.624 117.117 146.624C116.648 146.624 116.211 146.741 115.805 146.976C115.4 147.2 115.069 147.536 114.813 147.984C114.568 148.421 114.445 148.944 114.445 149.552C114.445 150.16 114.568 150.693 114.813 151.152C115.069 151.611 115.4 151.963 115.805 152.208C116.221 152.443 116.659 152.56 117.117 152.56C117.587 152.56 118.024 152.443 118.429 152.208C118.835 151.973 119.16 151.632 119.405 151.184C119.661 150.725 119.789 150.192 119.789 149.584ZM125.049 142.16V154H123.225V142.16H125.049ZM134.724 149.376C134.724 149.707 134.702 150.005 134.66 150.272H127.924C127.977 150.976 128.238 151.541 128.708 151.968C129.177 152.395 129.753 152.608 130.436 152.608C131.417 152.608 132.11 152.197 132.516 151.376H134.484C134.217 152.187 133.732 152.853 133.028 153.376C132.334 153.888 131.47 154.144 130.436 154.144C129.593 154.144 128.836 153.957 128.164 153.584C127.502 153.2 126.98 152.667 126.596 151.984C126.222 151.291 126.036 150.491 126.036 149.584C126.036 148.677 126.217 147.883 126.58 147.2C126.953 146.507 127.47 145.973 128.132 145.6C128.804 145.227 129.572 145.04 130.436 145.04C131.268 145.04 132.009 145.221 132.66 145.584C133.31 145.947 133.817 146.459 134.18 147.12C134.542 147.771 134.724 148.523 134.724 149.376ZM132.82 148.8C132.809 148.128 132.569 147.589 132.1 147.184C131.63 146.779 131.049 146.576 130.356 146.576C129.726 146.576 129.188 146.779 128.74 147.184C128.292 147.579 128.025 148.117 127.94 148.8H132.82ZM138.919 154.144C138.225 154.144 137.601 154.021 137.047 153.776C136.503 153.52 136.071 153.179 135.751 152.752C135.431 152.315 135.26 151.829 135.239 151.296H137.127C137.159 151.669 137.335 151.984 137.655 152.24C137.985 152.485 138.396 152.608 138.887 152.608C139.399 152.608 139.793 152.512 140.071 152.32C140.359 152.117 140.503 151.861 140.503 151.552C140.503 151.221 140.343 150.976 140.023 150.816C139.713 150.656 139.217 150.48 138.535 150.288C137.873 150.107 137.335 149.931 136.919 149.76C136.503 149.589 136.14 149.328 135.831 148.976C135.532 148.624 135.383 148.16 135.383 147.584C135.383 147.115 135.521 146.688 135.799 146.304C136.076 145.909 136.471 145.6 136.983 145.376C137.505 145.152 138.103 145.04 138.775 145.04C139.777 145.04 140.583 145.296 141.191 145.808C141.809 146.309 142.14 146.997 142.183 147.872H140.359C140.327 147.477 140.167 147.163 139.879 146.928C139.591 146.693 139.201 146.576 138.711 146.576C138.231 146.576 137.863 146.667 137.607 146.848C137.351 147.029 137.223 147.269 137.223 147.568C137.223 147.803 137.308 148 137.479 148.16C137.649 148.32 137.857 148.448 138.103 148.544C138.348 148.629 138.711 148.741 139.191 148.88C139.831 149.051 140.353 149.227 140.759 149.408C141.175 149.579 141.532 149.835 141.831 150.176C142.129 150.517 142.284 150.971 142.295 151.536C142.295 152.037 142.156 152.485 141.879 152.88C141.601 153.275 141.207 153.584 140.695 153.808C140.193 154.032 139.601 154.144 138.919 154.144ZM157.494 145.04C158.187 145.04 158.806 145.184 159.35 145.472C159.905 145.76 160.337 146.187 160.646 146.752C160.966 147.317 161.126 148 161.126 148.8V154H159.318V149.072C159.318 148.283 159.121 147.68 158.726 147.264C158.331 146.837 157.793 146.624 157.11 146.624C156.427 146.624 155.883 146.837 155.478 147.264C155.083 147.68 154.886 148.283 154.886 149.072V154H153.078V149.072C153.078 148.283 152.881 147.68 152.486 147.264C152.091 146.837 151.553 146.624 150.87 146.624C150.187 146.624 149.643 146.837 149.238 147.264C148.843 147.68 148.646 148.283 148.646 149.072V154H146.822V145.184H148.646V146.192C148.945 145.829 149.323 145.547 149.782 145.344C150.241 145.141 150.731 145.04 151.254 145.04C151.958 145.04 152.587 145.189 153.142 145.488C153.697 145.787 154.123 146.219 154.422 146.784C154.689 146.251 155.105 145.829 155.67 145.52C156.235 145.2 156.843 145.04 157.494 145.04ZM162.039 149.552C162.039 148.667 162.22 147.883 162.583 147.2C162.956 146.517 163.458 145.989 164.087 145.616C164.727 145.232 165.431 145.04 166.199 145.04C166.892 145.04 167.495 145.179 168.007 145.456C168.53 145.723 168.946 146.059 169.255 146.464V145.184H171.095V154H169.255V152.688C168.946 153.104 168.524 153.451 167.991 153.728C167.458 154.005 166.85 154.144 166.167 154.144C165.41 154.144 164.716 153.952 164.087 153.568C163.458 153.173 162.956 152.629 162.583 151.936C162.22 151.232 162.039 150.437 162.039 149.552ZM169.255 149.584C169.255 148.976 169.127 148.448 168.871 148C168.626 147.552 168.3 147.211 167.895 146.976C167.49 146.741 167.052 146.624 166.583 146.624C166.114 146.624 165.676 146.741 165.271 146.976C164.866 147.2 164.535 147.536 164.279 147.984C164.034 148.421 163.911 148.944 163.911 149.552C163.911 150.16 164.034 150.693 164.279 151.152C164.535 151.611 164.866 151.963 165.271 152.208C165.687 152.443 166.124 152.56 166.583 152.56C167.052 152.56 167.49 152.443 167.895 152.208C168.3 151.973 168.626 151.632 168.871 151.184C169.127 150.725 169.255 150.192 169.255 149.584ZM172.083 149.552C172.083 148.667 172.264 147.883 172.627 147.2C173 146.517 173.501 145.989 174.131 145.616C174.771 145.232 175.48 145.04 176.259 145.04C176.835 145.04 177.4 145.168 177.955 145.424C178.52 145.669 178.968 146 179.299 146.416V142.16H181.139V154H179.299V152.672C179 153.099 178.584 153.451 178.051 153.728C177.528 154.005 176.925 154.144 176.243 154.144C175.475 154.144 174.771 153.952 174.131 153.568C173.501 153.173 173 152.629 172.627 151.936C172.264 151.232 172.083 150.437 172.083 149.552ZM179.299 149.584C179.299 148.976 179.171 148.448 178.915 148C178.669 147.552 178.344 147.211 177.939 146.976C177.533 146.741 177.096 146.624 176.627 146.624C176.157 146.624 175.72 146.741 175.315 146.976C174.909 147.2 174.579 147.536 174.323 147.984C174.077 148.421 173.955 148.944 173.955 149.552C173.955 150.16 174.077 150.693 174.323 151.152C174.579 151.611 174.909 151.963 175.315 152.208C175.731 152.443 176.168 152.56 176.627 152.56C177.096 152.56 177.533 152.443 177.939 152.208C178.344 151.973 178.669 151.632 178.915 151.184C179.171 150.725 179.299 150.192 179.299 149.584ZM190.814 149.376C190.814 149.707 190.793 150.005 190.75 150.272H184.014C184.068 150.976 184.329 151.541 184.798 151.968C185.268 152.395 185.844 152.608 186.526 152.608C187.508 152.608 188.201 152.197 188.606 151.376H190.574C190.308 152.187 189.822 152.853 189.118 153.376C188.425 153.888 187.561 154.144 186.526 154.144C185.684 154.144 184.926 153.957 184.254 153.584C183.593 153.2 183.07 152.667 182.686 151.984C182.313 151.291 182.126 150.491 182.126 149.584C182.126 148.677 182.308 147.883 182.67 147.2C183.044 146.507 183.561 145.973 184.222 145.6C184.894 145.227 185.662 145.04 186.526 145.04C187.358 145.04 188.1 145.221 188.75 145.584C189.401 145.947 189.908 146.459 190.27 147.12C190.633 147.771 190.814 148.523 190.814 149.376ZM188.91 148.8C188.9 148.128 188.66 147.589 188.19 147.184C187.721 146.779 187.14 146.576 186.446 146.576C185.817 146.576 185.278 146.779 184.83 147.184C184.382 147.579 184.116 148.117 184.03 148.8H188.91ZM197.294 146.672V151.552C197.294 151.883 197.368 152.123 197.518 152.272C197.678 152.411 197.944 152.48 198.318 152.48H199.438V154H197.998C197.176 154 196.547 153.808 196.11 153.424C195.672 153.04 195.454 152.416 195.454 151.552V146.672H194.414V145.184H195.454V142.992H197.294V145.184H199.438V146.672H197.294ZM204.143 154.144C203.311 154.144 202.559 153.957 201.887 153.584C201.215 153.2 200.687 152.667 200.303 151.984C199.919 151.291 199.727 150.491 199.727 149.584C199.727 148.688 199.924 147.893 200.319 147.2C200.713 146.507 201.252 145.973 201.935 145.6C202.617 145.227 203.38 145.04 204.223 145.04C205.065 145.04 205.828 145.227 206.511 145.6C207.193 145.973 207.732 146.507 208.127 147.2C208.521 147.893 208.719 148.688 208.719 149.584C208.719 150.48 208.516 151.275 208.111 151.968C207.705 152.661 207.151 153.2 206.447 153.584C205.753 153.957 204.985 154.144 204.143 154.144ZM204.143 152.56C204.612 152.56 205.049 152.448 205.455 152.224C205.871 152 206.207 151.664 206.463 151.216C206.719 150.768 206.847 150.224 206.847 149.584C206.847 148.944 206.724 148.405 206.479 147.968C206.233 147.52 205.908 147.184 205.503 146.96C205.097 146.736 204.66 146.624 204.191 146.624C203.721 146.624 203.284 146.736 202.879 146.96C202.484 147.184 202.169 147.52 201.935 147.968C201.7 148.405 201.583 148.944 201.583 149.584C201.583 150.533 201.823 151.269 202.303 151.792C202.793 152.304 203.407 152.56 204.143 152.56ZM209.114 149.552C209.114 148.667 209.295 147.883 209.658 147.2C210.031 146.517 210.533 145.989 211.162 145.616C211.802 145.232 212.511 145.04 213.29 145.04C213.866 145.04 214.431 145.168 214.986 145.424C215.551 145.669 215.999 146 216.33 146.416V142.16H218.17V154H216.33V152.672C216.031 153.099 215.615 153.451 215.082 153.728C214.559 154.005 213.957 154.144 213.274 154.144C212.506 154.144 211.802 153.952 211.162 153.568C210.533 153.173 210.031 152.629 209.658 151.936C209.295 151.232 209.114 150.437 209.114 149.552ZM216.33 149.584C216.33 148.976 216.202 148.448 215.946 148C215.701 147.552 215.375 147.211 214.97 146.976C214.565 146.741 214.127 146.624 213.658 146.624C213.189 146.624 212.751 146.741 212.346 146.976C211.941 147.2 211.61 147.536 211.354 147.984C211.109 148.421 210.986 148.944 210.986 149.552C210.986 150.16 211.109 150.693 211.354 151.152C211.61 151.611 211.941 151.963 212.346 152.208C212.762 152.443 213.199 152.56 213.658 152.56C214.127 152.56 214.565 152.443 214.97 152.208C215.375 151.973 215.701 151.632 215.946 151.184C216.202 150.725 216.33 150.192 216.33 149.584ZM219.158 149.552C219.158 148.667 219.339 147.883 219.702 147.2C220.075 146.517 220.576 145.989 221.206 145.616C221.846 145.232 222.55 145.04 223.318 145.04C224.011 145.04 224.614 145.179 225.126 145.456C225.648 145.723 226.064 146.059 226.374 146.464V145.184H228.214V154H226.374V152.688C226.064 153.104 225.643 153.451 225.11 153.728C224.576 154.005 223.968 154.144 223.286 154.144C222.528 154.144 221.835 153.952 221.206 153.568C220.576 153.173 220.075 152.629 219.702 151.936C219.339 151.232 219.158 150.437 219.158 149.552ZM226.374 149.584C226.374 148.976 226.246 148.448 225.99 148C225.744 147.552 225.419 147.211 225.014 146.976C224.608 146.741 224.171 146.624 223.702 146.624C223.232 146.624 222.795 146.741 222.39 146.976C221.984 147.2 221.654 147.536 221.398 147.984C221.152 148.421 221.03 148.944 221.03 149.552C221.03 150.16 221.152 150.693 221.398 151.152C221.654 151.611 221.984 151.963 222.39 152.208C222.806 152.443 223.243 152.56 223.702 152.56C224.171 152.56 224.608 152.443 225.014 152.208C225.419 151.973 225.744 151.632 225.99 151.184C226.246 150.725 226.374 150.192 226.374 149.584ZM237.745 145.184L232.337 158.144H230.449L232.241 153.856L228.769 145.184H230.801L233.281 151.904L235.857 145.184H237.745Z" fill="white"/>
<g filter="url(#filter1_d_1232_840)">
<path d="M25.256 85.184V79.904L40.952 57.44H48.776V79.328H53V85.184H48.776V92H42.056V85.184H25.256ZM42.488 64.64L32.648 79.328H42.488V64.64ZM56.9904 84.416C60.0624 81.856 62.5104 79.728 64.3344 78.032C66.1584 76.304 67.6784 74.512 68.8944 72.656C70.1104 70.8 70.7184 68.976 70.7184 67.184C70.7184 65.552 70.3344 64.272 69.5664 63.344C68.7984 62.416 67.6144 61.952 66.0144 61.952C64.4144 61.952 63.1824 62.496 62.3184 63.584C61.4544 64.64 61.0064 66.096 60.9744 67.952H54.4464C54.5744 64.112 55.7104 61.2 57.8544 59.216C60.0304 57.232 62.7824 56.24 66.1104 56.24C69.7584 56.24 72.5584 57.216 74.5104 59.168C76.4624 61.088 77.4384 63.632 77.4384 66.8C77.4384 69.296 76.7664 71.68 75.4224 73.952C74.0784 76.224 72.5424 78.208 70.8144 79.904C69.0864 81.568 66.8304 83.584 64.0464 85.952H78.2064V91.52H54.4944V86.528L56.9904 84.416Z" fill="white"/>
</g>
<path d="M34.88 119.04V121.3H31.16V133H28.36V121.3H24.64V119.04H34.88ZM40.843 133.18C39.7763 133.18 38.8163 132.947 37.963 132.48C37.1096 132 36.4363 131.327 35.943 130.46C35.463 129.593 35.223 128.593 35.223 127.46C35.223 126.327 35.4696 125.327 35.963 124.46C36.4696 123.593 37.1563 122.927 38.023 122.46C38.8896 121.98 39.8563 121.74 40.923 121.74C41.9896 121.74 42.9563 121.98 43.823 122.46C44.6896 122.927 45.3696 123.593 45.863 124.46C46.3696 125.327 46.623 126.327 46.623 127.46C46.623 128.593 46.363 129.593 45.843 130.46C45.3363 131.327 44.643 132 43.763 132.48C42.8963 132.947 41.923 133.18 40.843 133.18ZM40.843 130.74C41.3496 130.74 41.823 130.62 42.263 130.38C42.7163 130.127 43.0763 129.753 43.343 129.26C43.6096 128.767 43.743 128.167 43.743 127.46C43.743 126.407 43.463 125.6 42.903 125.04C42.3563 124.467 41.683 124.18 40.883 124.18C40.083 124.18 39.4096 124.467 38.863 125.04C38.3296 125.6 38.063 126.407 38.063 127.46C38.063 128.513 38.323 129.327 38.843 129.9C39.3763 130.46 40.043 130.74 40.843 130.74ZM50.9369 124.22V129.58C50.9369 129.953 51.0235 130.227 51.1969 130.4C51.3835 130.56 51.6902 130.64 52.1169 130.64H53.4169V133H51.6569C49.2969 133 48.1169 131.853 48.1169 129.56V124.22H46.7969V121.92H48.1169V119.18H50.9369V121.92H53.4169V124.22H50.9369ZM53.7108 127.42C53.7108 126.3 53.9308 125.307 54.3708 124.44C54.8241 123.573 55.4308 122.907 56.1908 122.44C56.9641 121.973 57.8241 121.74 58.7708 121.74C59.5974 121.74 60.3174 121.907 60.9308 122.24C61.5574 122.573 62.0574 122.993 62.4308 123.5V121.92H65.2508V133H62.4308V131.38C62.0708 131.9 61.5708 132.333 60.9308 132.68C60.3041 133.013 59.5774 133.18 58.7508 133.18C57.8174 133.18 56.9641 132.94 56.1908 132.46C55.4308 131.98 54.8241 131.307 54.3708 130.44C53.9308 129.56 53.7108 128.553 53.7108 127.42ZM62.4308 127.46C62.4308 126.78 62.2974 126.2 62.0308 125.72C61.7641 125.227 61.4041 124.853 60.9508 124.6C60.4974 124.333 60.0108 124.2 59.4908 124.2C58.9708 124.2 58.4908 124.327 58.0508 124.58C57.6108 124.833 57.2508 125.207 56.9708 125.7C56.7041 126.18 56.5708 126.753 56.5708 127.42C56.5708 128.087 56.7041 128.673 56.9708 129.18C57.2508 129.673 57.6108 130.053 58.0508 130.32C58.5041 130.587 58.9841 130.72 59.4908 130.72C60.0108 130.72 60.4974 130.593 60.9508 130.34C61.4041 130.073 61.7641 129.7 62.0308 129.22C62.2974 128.727 62.4308 128.14 62.4308 127.46ZM69.7855 118.2V133H66.9855V118.2H69.7855ZM84.8175 119.04V121.3H81.0975V133H78.2975V121.3H74.5775V119.04H84.8175ZM88.6605 123.64C89.0205 123.053 89.4871 122.593 90.0605 122.26C90.6471 121.927 91.3138 121.76 92.0605 121.76V124.7H91.3205C90.4405 124.7 89.7738 124.907 89.3205 125.32C88.8805 125.733 88.6605 126.453 88.6605 127.48V133H85.8605V121.92H88.6605V123.64ZM92.2264 127.42C92.2264 126.3 92.4464 125.307 92.8864 124.44C93.3397 123.573 93.9464 122.907 94.7064 122.44C95.4797 121.973 96.3397 121.74 97.2864 121.74C98.1131 121.74 98.8331 121.907 99.4464 122.24C100.073 122.573 100.573 122.993 100.946 123.5V121.92H103.766V133H100.946V131.38C100.586 131.9 100.086 132.333 99.4464 132.68C98.8197 133.013 98.0931 133.18 97.2664 133.18C96.3331 133.18 95.4797 132.94 94.7064 132.46C93.9464 131.98 93.3397 131.307 92.8864 130.44C92.4464 129.56 92.2264 128.553 92.2264 127.42ZM100.946 127.46C100.946 126.78 100.813 126.2 100.546 125.72C100.28 125.227 99.9197 124.853 99.4664 124.6C99.0131 124.333 98.5264 124.2 98.0064 124.2C97.4864 124.2 97.0064 124.327 96.5664 124.58C96.1264 124.833 95.7664 125.207 95.4864 125.7C95.2197 126.18 95.0864 126.753 95.0864 127.42C95.0864 128.087 95.2197 128.673 95.4864 129.18C95.7664 129.673 96.1264 130.053 96.5664 130.32C97.0197 130.587 97.4997 130.72 98.0064 130.72C98.5264 130.72 99.0131 130.593 99.4664 130.34C99.9197 130.073 100.28 129.7 100.546 129.22C100.813 128.727 100.946 128.14 100.946 127.46ZM111.641 121.76C112.961 121.76 114.028 122.18 114.841 123.02C115.654 123.847 116.061 125.007 116.061 126.5V133H113.261V126.88C113.261 126 113.041 125.327 112.601 124.86C112.161 124.38 111.561 124.14 110.801 124.14C110.028 124.14 109.414 124.38 108.961 124.86C108.521 125.327 108.301 126 108.301 126.88V133H105.501V121.92H108.301V123.3C108.674 122.82 109.148 122.447 109.721 122.18C110.308 121.9 110.948 121.76 111.641 121.76ZM121.964 133.18C121.057 133.18 120.244 133.02 119.524 132.7C118.804 132.367 118.23 131.92 117.804 131.36C117.39 130.8 117.164 130.18 117.124 129.5H119.944C119.997 129.927 120.204 130.28 120.564 130.56C120.937 130.84 121.397 130.98 121.944 130.98C122.477 130.98 122.89 130.873 123.184 130.66C123.49 130.447 123.644 130.173 123.644 129.84C123.644 129.48 123.457 129.213 123.084 129.04C122.724 128.853 122.144 128.653 121.344 128.44C120.517 128.24 119.837 128.033 119.304 127.82C118.784 127.607 118.33 127.28 117.944 126.84C117.57 126.4 117.384 125.807 117.384 125.06C117.384 124.447 117.557 123.887 117.904 123.38C118.264 122.873 118.77 122.473 119.424 122.18C120.09 121.887 120.87 121.74 121.764 121.74C123.084 121.74 124.137 122.073 124.924 122.74C125.71 123.393 126.144 124.28 126.224 125.4H123.544C123.504 124.96 123.317 124.613 122.984 124.36C122.664 124.093 122.23 123.96 121.684 123.96C121.177 123.96 120.784 124.053 120.504 124.24C120.237 124.427 120.104 124.687 120.104 125.02C120.104 125.393 120.29 125.68 120.664 125.88C121.037 126.067 121.617 126.26 122.404 126.46C123.204 126.66 123.864 126.867 124.384 127.08C124.904 127.293 125.35 127.627 125.724 128.08C126.11 128.52 126.31 129.107 126.324 129.84C126.324 130.48 126.144 131.053 125.784 131.56C125.437 132.067 124.93 132.467 124.264 132.76C123.61 133.04 122.844 133.18 121.964 133.18ZM126.902 127.42C126.902 126.3 127.122 125.307 127.562 124.44C128.016 123.573 128.622 122.907 129.382 122.44C130.156 121.973 131.016 121.74 131.962 121.74C132.789 121.74 133.509 121.907 134.122 122.24C134.749 122.573 135.249 122.993 135.622 123.5V121.92H138.442V133H135.622V131.38C135.262 131.9 134.762 132.333 134.122 132.68C133.496 133.013 132.769 133.18 131.942 133.18C131.009 133.18 130.156 132.94 129.382 132.46C128.622 131.98 128.016 131.307 127.562 130.44C127.122 129.56 126.902 128.553 126.902 127.42ZM135.622 127.46C135.622 126.78 135.489 126.2 135.222 125.72C134.956 125.227 134.596 124.853 134.142 124.6C133.689 124.333 133.202 124.2 132.682 124.2C132.162 124.2 131.682 124.327 131.242 124.58C130.802 124.833 130.442 125.207 130.162 125.7C129.896 126.18 129.762 126.753 129.762 127.42C129.762 128.087 129.896 128.673 130.162 129.18C130.442 129.673 130.802 130.053 131.242 130.32C131.696 130.587 132.176 130.72 132.682 130.72C133.202 130.72 133.689 130.593 134.142 130.34C134.596 130.073 134.956 129.7 135.222 129.22C135.489 128.727 135.622 128.14 135.622 127.46ZM139.457 127.46C139.457 126.313 139.69 125.313 140.157 124.46C140.624 123.593 141.27 122.927 142.097 122.46C142.924 121.98 143.87 121.74 144.937 121.74C146.31 121.74 147.444 122.087 148.337 122.78C149.244 123.46 149.85 124.42 150.157 125.66H147.137C146.977 125.18 146.704 124.807 146.317 124.54C145.944 124.26 145.477 124.12 144.917 124.12C144.117 124.12 143.484 124.413 143.017 125C142.55 125.573 142.317 126.393 142.317 127.46C142.317 128.513 142.55 129.333 143.017 129.92C143.484 130.493 144.117 130.78 144.917 130.78C146.05 130.78 146.79 130.273 147.137 129.26H150.157C149.85 130.46 149.244 131.413 148.337 132.12C147.43 132.827 146.297 133.18 144.937 133.18C143.87 133.18 142.924 132.947 142.097 132.48C141.27 132 140.624 131.333 140.157 130.48C139.69 129.613 139.457 128.607 139.457 127.46ZM154.468 124.22V129.58C154.468 129.953 154.555 130.227 154.728 130.4C154.915 130.56 155.221 130.64 155.648 130.64H156.948V133H155.188C152.828 133 151.648 131.853 151.648 129.56V124.22H150.328V121.92H151.648V119.18H154.468V121.92H156.948V124.22H154.468ZM159.382 120.6C158.889 120.6 158.475 120.447 158.142 120.14C157.822 119.82 157.662 119.427 157.662 118.96C157.662 118.493 157.822 118.107 158.142 117.8C158.475 117.48 158.889 117.32 159.382 117.32C159.875 117.32 160.282 117.48 160.602 117.8C160.935 118.107 161.102 118.493 161.102 118.96C161.102 119.427 160.935 119.82 160.602 120.14C160.282 120.447 159.875 120.6 159.382 120.6ZM160.762 121.92V133H157.962V121.92H160.762ZM167.448 133.18C166.382 133.18 165.422 132.947 164.568 132.48C163.715 132 163.042 131.327 162.548 130.46C162.068 129.593 161.828 128.593 161.828 127.46C161.828 126.327 162.075 125.327 162.568 124.46C163.075 123.593 163.762 122.927 164.628 122.46C165.495 121.98 166.462 121.74 167.528 121.74C168.595 121.74 169.562 121.98 170.428 122.46C171.295 122.927 171.975 123.593 172.468 124.46C172.975 125.327 173.228 126.327 173.228 127.46C173.228 128.593 172.968 129.593 172.448 130.46C171.942 131.327 171.248 132 170.368 132.48C169.502 132.947 168.528 133.18 167.448 133.18ZM167.448 130.74C167.955 130.74 168.428 130.62 168.868 130.38C169.322 130.127 169.682 129.753 169.948 129.26C170.215 128.767 170.348 128.167 170.348 127.46C170.348 126.407 170.068 125.6 169.508 125.04C168.962 124.467 168.288 124.18 167.488 124.18C166.688 124.18 166.015 124.467 165.468 125.04C164.935 125.6 164.668 126.407 164.668 127.46C164.668 128.513 164.928 129.327 165.448 129.9C165.982 130.46 166.648 130.74 167.448 130.74ZM180.422 121.76C181.742 121.76 182.809 122.18 183.622 123.02C184.436 123.847 184.842 125.007 184.842 126.5V133H182.042V126.88C182.042 126 181.822 125.327 181.382 124.86C180.942 124.38 180.342 124.14 179.582 124.14C178.809 124.14 178.196 124.38 177.742 124.86C177.302 125.327 177.082 126 177.082 126.88V133H174.282V121.92H177.082V123.3C177.456 122.82 177.929 122.447 178.502 122.18C179.089 121.9 179.729 121.76 180.422 121.76ZM190.745 133.18C189.838 133.18 189.025 133.02 188.305 132.7C187.585 132.367 187.012 131.92 186.585 131.36C186.172 130.8 185.945 130.18 185.905 129.5H188.725C188.778 129.927 188.985 130.28 189.345 130.56C189.718 130.84 190.178 130.98 190.725 130.98C191.258 130.98 191.672 130.873 191.965 130.66C192.272 130.447 192.425 130.173 192.425 129.84C192.425 129.48 192.238 129.213 191.865 129.04C191.505 128.853 190.925 128.653 190.125 128.44C189.298 128.24 188.618 128.033 188.085 127.82C187.565 127.607 187.112 127.28 186.725 126.84C186.352 126.4 186.165 125.807 186.165 125.06C186.165 124.447 186.338 123.887 186.685 123.38C187.045 122.873 187.552 122.473 188.205 122.18C188.872 121.887 189.652 121.74 190.545 121.74C191.865 121.74 192.918 122.073 193.705 122.74C194.492 123.393 194.925 124.28 195.005 125.4H192.325C192.285 124.96 192.098 124.613 191.765 124.36C191.445 124.093 191.012 123.96 190.465 123.96C189.958 123.96 189.565 124.053 189.285 124.24C189.018 124.427 188.885 124.687 188.885 125.02C188.885 125.393 189.072 125.68 189.445 125.88C189.818 126.067 190.398 126.26 191.185 126.46C191.985 126.66 192.645 126.867 193.165 127.08C193.685 127.293 194.132 127.627 194.505 128.08C194.892 128.52 195.092 129.107 195.105 129.84C195.105 130.48 194.925 131.053 194.565 131.56C194.218 132.067 193.712 132.467 193.045 132.76C192.392 133.04 191.625 133.18 190.745 133.18Z" fill="white"/>
<circle cx="226" cy="65" r="40" fill="white" fill-opacity="0.3"/>
<g clip-path="url(#clip0_1232_840)">
<path d="M221.794 51.8883C221.794 50.3723 222.18 48.8812 222.917 47.5562C223.654 46.2313 224.717 45.1165 226.006 44.3172C227.294 43.5179 228.765 43.0607 230.279 42.9889C231.794 42.9171 233.301 43.233 234.659 43.9067C236.017 43.2336 237.525 42.9181 239.039 42.9902C240.552 43.0622 242.023 43.5193 243.311 44.3183C244.599 45.1173 245.662 46.2317 246.398 47.5561C247.135 48.8805 247.522 50.371 247.522 51.8866C247.522 53.4022 247.136 54.8928 246.399 56.2173C245.662 57.5418 244.6 58.6563 243.312 59.4555C242.024 60.2546 240.554 60.712 239.04 60.7842C237.526 60.8564 236.019 60.5412 234.661 59.8683C233.302 60.5422 231.795 60.8583 230.28 60.7866C228.766 60.715 227.295 60.258 226.007 59.4589C224.718 58.6598 223.655 57.5451 222.918 56.2203C222.181 54.8955 221.794 53.4044 221.794 51.8883ZM238.124 56.8119C238.287 56.8277 238.451 56.8356 238.619 56.8356C239.289 56.8341 239.951 56.6967 240.566 56.4316C241.182 56.1665 241.736 55.7793 242.198 55.2935C242.659 54.8076 243.016 54.2332 243.249 53.6051C243.481 52.9769 243.584 52.3081 243.55 51.6392C243.517 50.9702 243.348 50.3151 243.053 49.7134C242.759 49.1117 242.346 48.576 241.838 48.1387C241.331 47.7015 240.74 47.3718 240.102 47.1696C239.463 46.9675 238.79 46.897 238.124 46.9626C239.092 48.4224 239.609 50.1353 239.608 51.8872C239.609 53.639 239.092 55.352 238.124 56.8119ZM218.698 67.2286C218.373 67.2278 218.051 67.291 217.75 67.4146C217.449 67.5383 217.176 67.7199 216.946 67.9492L212.888 72.0072L212.889 79.6L224.027 79.5992L235.513 76.7284L242.504 73.743C242.742 73.6143 242.924 73.4022 243.015 73.1475C243.107 72.8927 243.101 72.6131 242.999 72.3624C242.897 72.1117 242.706 71.9075 242.462 71.789C242.219 71.6705 241.94 71.646 241.68 71.7202L241.641 71.7301L228.949 74.6505L221.796 74.651L221.795 70.6923L227.981 70.6919C228.44 70.6918 228.881 70.5093 229.206 70.1845C229.53 69.8597 229.713 69.4191 229.713 68.9598C229.713 68.5005 229.53 68.0599 229.205 67.7352C228.881 67.4104 228.44 67.2279 227.981 67.228L218.698 67.2286ZM233.646 69.5078L240.676 67.8902C241.425 67.6933 242.209 67.6705 242.968 67.8238C243.727 67.977 244.441 68.3021 245.055 68.7741C245.668 69.2462 246.166 69.8526 246.509 70.5468C246.851 71.241 247.031 72.0045 247.032 72.7788C247.032 73.7187 246.77 74.6398 246.275 75.4393C245.781 76.2387 245.074 76.885 244.234 77.3058L244.18 77.3335L236.778 80.4911L224.514 83.5579L202.003 83.5594L202.002 69.2091L210.089 69.2085L214.151 65.1466C214.749 64.5502 215.459 64.0774 216.24 63.7554C217.021 63.4334 217.858 63.2684 218.703 63.2699L227.98 63.2693C228.774 63.2691 229.559 63.4349 230.285 63.7561C231.01 64.0773 231.661 64.5467 232.194 65.1342C232.728 65.7217 233.133 66.4143 233.383 67.1675C233.633 67.9207 233.722 68.7179 233.646 69.5078ZM208.93 73.1673L205.961 73.1675L205.961 79.6004L208.93 79.6002L208.93 73.1673Z" fill="white"/>
</g>
<defs>
<filter id="filter0_d_1232_840" x="0" y="0" width="293" height="199" filterUnits="userSpaceOnUse" color-interpolation-filters="sRGB">
<feFlood flood-opacity="0" result="BackgroundImageFix"/>
<feColorMatrix in="SourceAlpha" type="matrix" values="0 0 0 0 0 0 0 0 0 0 0 0 0 0 0 0 0 0 127 0" result="hardAlpha"/>
<feOffset dx="2" dy="2"/>
<feGaussianBlur stdDeviation="2"/>
<feComposite in2="hardAlpha" operator="out"/>
<feColorMatrix type="matrix" values="0 0 0 0 0 0 0 0 0 0 0 0 0 0 0 0 0 0 0.25 0"/>
<feBlend mode="normal" in2="BackgroundImageFix" result="effect1_dropShadow_1232_840"/>
<feBlend mode="normal" in="SourceGraphic" in2="effect1_dropShadow_1232_840" result="shape"/>
</filter>
<filter id="filter1_d_1232_840" x="21.2559" y="56.24" width="60.9507" height="43.76" filterUnits="userSpaceOnUse" color-interpolation-filters="sRGB">
<feFlood flood-opacity="0" result="BackgroundImageFix"/>
<feColorMatrix in="SourceAlpha" type="matrix" values="0 0 0 0 0 0 0 0 0 0 0 0 0 0 0 0 0 0 127 0" result="hardAlpha"/>
<feOffset dy="4"/>
<feGaussianBlur stdDeviation="2"/>
<feComposite in2="hardAlpha" operator="out"/>
<feColorMatrix type="matrix" values="0 0 0 0 0 0 0 0 0 0 0 0 0 0 0 0 0 0 0.25 0"/>
<feBlend mode="normal" in2="BackgroundImageFix" result="effect1_dropShadow_1232_840"/>
<feBlend mode="normal" in="SourceGraphic" in2="effect1_dropShadow_1232_840" result="shape"/>
</filter>
<linearGradient id="paint0_linear_1232_840" x1="-122.5" y1="178" x2="290.5" y2="209.5" gradientUnits="userSpaceOnUse">
<stop stop-color="#091FA0"/>
<stop offset="1" stop-color="#7F92FF"/>
</linearGradient>
<clipPath id="clip0_1232_840">
<rect x="202" y="41.0032" width="47.5046" height="47.5046" rx="10" fill="white"/>
</clipPath>
</defs>
</svg>
