<svg width="70" height="70" viewBox="0 0 70 70" fill="none" xmlns="http://www.w3.org/2000/svg">
<circle cx="35" cy="35" r="35" fill="#FFA341" fill-opacity="0.51"/>
<path d="M41.1643 20.7167L44.545 22.4915C48.1809 24.3999 49.9997 25.3533 51.0105 27.0689C52.0196 28.7829 52.0196 30.9178 52.0196 35.1859V35.3837C52.0196 39.6501 52.0196 41.785 51.0105 43.499C49.9997 45.2147 48.1809 46.1697 44.545 48.0781L41.1643 49.8513C38.196 51.4081 36.7119 52.1873 35.1163 52.1873C33.5206 52.1873 32.0365 51.4098 29.0682 49.8513L25.6876 48.0764C22.0516 46.1681 20.2328 45.2147 19.222 43.499C18.2129 41.785 18.2129 39.6501 18.2129 35.3854V35.1876C18.2129 30.9195 18.2129 28.7846 19.222 27.0706C20.2328 25.3549 22.0516 24.3999 25.6876 22.4932L29.0682 20.7184C32.0365 19.1599 33.5206 18.3806 35.1163 18.3806C36.7119 18.3806 38.196 19.1582 41.1643 20.7167Z" stroke="#FF8558" stroke-width="2" stroke-linecap="round"/>
<path opacity="0.5" d="M50.3284 27.6775L43.5671 31.0581M43.5671 31.0581L42.7219 31.4807L35.1154 35.284M43.5671 31.0581V36.9743M43.5671 31.0581L27.5089 22.6064M35.1154 35.284L19.9023 27.6775M35.1154 35.284V51.3422" stroke="#FF8558" stroke-width="2" stroke-linecap="round"/>
<g clip-path="url(#clip0_2734_4815)">
<path d="M28.2297 52.4721C34.7974 52.4721 40.1215 47.148 40.1215 40.5803C40.1215 34.0126 34.7974 28.6885 28.2297 28.6885C21.662 28.6885 16.3379 34.0126 16.3379 40.5803C16.3379 47.148 21.662 52.4721 28.2297 52.4721Z" fill="#FFB86C"/>
<path d="M22.9453 40.5803H33.5158" stroke="#FF8558" stroke-width="1.2"/>
</g>
<defs>
<clipPath id="clip0_2734_4815">
<rect x="13" y="28.6885" width="31.7115" height="31.7115" rx="5" fill="white"/>
</clipPath>
</defs>
</svg>
