<svg width="70" height="70" viewBox="0 0 70 70" fill="none" xmlns="http://www.w3.org/2000/svg">
<circle cx="35" cy="35" r="35" fill="#09A046" fill-opacity="0.28"/>
<g clip-path="url(#clip0_2734_4766)">
<path d="M40.2615 18.9185L43.7615 20.756C47.5257 22.7318 49.4087 23.7187 50.4552 25.495C51.5 27.2695 51.5 29.4798 51.5 33.8985V34.1033C51.5 38.5202 51.5 40.7305 50.4552 42.505C49.4087 44.2813 47.5257 45.27 43.7615 47.2458L40.2615 49.0815C37.1885 50.6933 35.652 51.5 34 51.5C32.348 51.5 30.8115 50.695 27.7385 49.0815L24.2385 47.244C20.4742 45.2683 18.5912 44.2813 17.5447 42.505C16.5 40.7305 16.5 38.5203 16.5 34.105V33.9002C16.5 29.4815 16.5 27.2712 17.5447 25.4967C18.5912 23.7205 20.4742 22.7318 24.2385 20.7578L27.7385 18.9202C30.8115 17.3067 32.348 16.5 34 16.5C35.652 16.5 37.1885 17.305 40.2615 18.9185Z" stroke="#09A046" stroke-width="2" stroke-linecap="round"/>
<path opacity="0.5" d="M49.75 26.125L42.75 29.625M42.75 29.625L41.875 30.0625L34 34M42.75 29.625V35.75M42.75 29.625L26.125 20.875M34 34L18.25 26.125M34 34V50.625" stroke="#09A046" stroke-width="2" stroke-linecap="round"/>
<path d="M25.7494 46.9685C32.439 46.9685 37.862 41.5455 37.862 34.8558C37.862 28.1662 32.439 22.7432 25.7494 22.7432C19.0597 22.7432 13.6367 28.1662 13.6367 34.8558C13.6367 41.5455 19.0597 46.9685 25.7494 46.9685Z" fill="#95D6AF"/>
<path d="M25.7486 29.4724V40.2392M31.132 34.8558H20.3652" stroke="#09A046" stroke-width="2" stroke-linecap="square" stroke-linejoin="round"/>
</g>
<defs>
<clipPath id="clip0_2734_4766">
<rect x="13" y="13" width="42" height="42" rx="5" fill="white"/>
</clipPath>
</defs>
</svg>
