<svg width="70" height="70" viewBox="0 0 70 70" fill="none" xmlns="http://www.w3.org/2000/svg">
<circle cx="35" cy="35" r="35" fill="#CD0000" fill-opacity="0.18"/>
<path d="M34.457 53.5834C33.0596 53.5834 31.7237 53.0197 29.0536 51.8956C22.4064 49.0956 19.082 47.6965 19.082 45.3407V28.8843M34.457 53.5834C35.8544 53.5834 37.1904 53.0197 39.8605 51.8956C46.5076 49.0956 49.832 47.6965 49.832 45.3407V28.8843M34.457 53.5834V36.5513M19.082 28.8843C19.082 29.9315 20.4521 30.5927 23.1906 31.9132L28.1789 34.322C31.2607 35.8082 32.7999 36.5513 34.457 36.5513M19.082 28.8843C19.082 27.8388 20.4521 27.1777 23.1906 25.8572L25.9154 24.5417M49.832 28.8843C49.832 29.9315 48.4619 30.5927 45.7235 31.9132L40.7352 34.322C37.6533 35.8082 36.1141 36.5513 34.457 36.5513M49.832 28.8843C49.832 27.8388 48.4619 27.1777 45.7235 25.8572L42.9987 24.5417M24.207 38.2528L27.6237 39.956" stroke="#CD0000" stroke-width="3.0625" stroke-linecap="round" stroke-linejoin="round"/>
<path d="M31.041 19.4167L34.4577 22.8334M34.4577 22.8334L37.8743 26.2501M34.4577 22.8334L31.041 26.2501M34.4577 22.8334L37.8743 19.4167" stroke="#CD0000" stroke-width="3.0625" stroke-linecap="round"/>
</svg>
