<svg width="29" height="29" viewBox="0 0 29 29" fill="none" xmlns="http://www.w3.org/2000/svg">
<path d="M11.1431 11.1436H8.79709C6.04528 11.1436 4.67055 11.1436 3.72278 11.8708C3.4787 12.0581 3.26022 12.2765 3.07295 12.5206C2.3457 13.4684 2.3457 14.8431 2.3457 17.5949C2.3457 20.3468 2.3457 21.7215 3.07295 22.6693C3.26022 22.9133 3.4787 23.1318 3.72278 23.3191C4.67055 24.0463 6.04528 24.0463 8.79709 24.0463H11.1431C13.8949 24.0463 15.2696 24.0463 16.2174 23.3191C16.4615 23.1318 16.6799 22.9133 16.8672 22.6693C17.5944 21.7215 17.5944 20.3468 17.5944 17.5949C17.5944 14.8431 17.5944 13.4684 16.8672 12.5206C16.6799 12.2765 16.4615 12.0581 16.2174 11.8708C15.2696 11.1436 13.8949 11.1436 11.1431 11.1436Z" stroke="#76462B" stroke-width="2"/>
<path d="M13.7826 11.1433V7.91765C13.7826 6.9066 13.3809 5.93696 12.666 5.22203C11.9511 4.50711 10.9814 4.10547 9.97039 4.10547C8.95933 4.10547 7.98969 4.50711 7.27477 5.22203C6.55984 5.93696 6.1582 6.9066 6.1582 7.91765V11.1433" stroke="#76462B" stroke-width="2" stroke-linecap="round"/>
<path d="M21.1138 11.1434C21.1138 11.3767 21.2064 11.6005 21.3714 11.7655C21.5364 11.9304 21.7602 12.0231 21.9935 12.0231C22.2268 12.0231 22.4506 11.9304 22.6156 11.7655C22.7805 11.6005 22.8732 11.3767 22.8732 11.1434H21.1138ZM19.9419 10.2637C19.8264 10.2635 19.712 10.2861 19.6052 10.3302C19.4984 10.3742 19.4013 10.4389 19.3195 10.5205C19.2377 10.6021 19.1728 10.699 19.1285 10.8057C19.0841 10.9123 19.0612 11.0267 19.061 11.1422C19.0609 11.2578 19.0835 11.3722 19.1276 11.479C19.1716 11.5858 19.2363 11.6828 19.3179 11.7646C19.3995 11.8464 19.4964 11.9114 19.603 11.9557C19.7097 12.0001 19.8241 12.023 19.9396 12.0231L19.9419 10.2637ZM19.9396 23.1664C19.7063 23.1668 19.4826 23.2597 19.3179 23.4249C19.1531 23.5901 19.0607 23.814 19.061 24.0474C19.0613 24.2807 19.1543 24.5043 19.3195 24.6691C19.4847 24.8338 19.7086 24.9262 19.9419 24.9259L19.9396 23.1664ZM16.0148 3.75362C15.9124 3.80707 15.8215 3.88018 15.7473 3.96876C15.6731 4.05734 15.6171 4.15967 15.5825 4.2699C15.5478 4.38013 15.5352 4.4961 15.5454 4.61119C15.5556 4.72628 15.5883 4.83824 15.6418 4.94068C15.6953 5.04311 15.7684 5.13402 15.8569 5.2082C15.9455 5.28238 16.0478 5.33839 16.1581 5.37303C16.2683 5.40767 16.3843 5.42025 16.4994 5.41007C16.6145 5.39989 16.7264 5.36714 16.8289 5.31369L16.0148 3.75362ZM24.9259 17.5948C24.9259 18.9906 24.9248 19.9642 24.8403 20.7102C24.7582 21.4375 24.6069 21.8386 24.3805 22.1342L25.7763 23.2052C26.2772 22.553 26.4895 21.7917 26.5892 20.9061C26.6866 20.0405 26.6854 18.9496 26.6854 17.5948H24.9259ZM24.3805 22.1342C24.2397 22.3166 24.0761 22.4802 23.8937 22.621L24.9646 24.0169C25.2712 23.7815 25.5418 23.5109 25.7763 23.2052L24.3805 22.1342ZM26.6854 17.5948C26.6854 16.24 26.6866 15.1491 26.5892 14.2823C26.4895 13.3979 26.2772 12.6366 25.7763 11.9844L24.3805 13.0554C24.6069 13.3509 24.7582 13.7521 24.8403 14.4794C24.9248 15.2254 24.9259 16.1989 24.9259 17.5948H26.6854ZM23.8937 12.5686C24.0775 12.7101 24.2397 12.8724 24.3805 13.0554L25.7763 11.9844C25.541 11.6779 25.2704 11.4073 24.9646 11.1727L23.8937 12.5686ZM22.8732 11.1434V7.9177H21.1138V11.1434H22.8732ZM22.8732 7.9177C22.8732 6.67333 22.3789 5.47992 21.499 4.60001C20.6191 3.72011 19.4257 3.22578 18.1813 3.22578V4.98525C18.959 4.98525 19.7049 5.29421 20.2549 5.84415C20.8048 6.39409 21.1138 7.13997 21.1138 7.9177H22.8732ZM19.9396 12.0231C21.1337 12.0255 21.9759 12.0396 22.6246 12.1287C23.2556 12.2132 23.6192 12.3586 23.8937 12.5686L24.9646 11.1727C24.3606 10.7094 23.6626 10.4924 22.8603 10.3845C22.0756 10.2789 21.1126 10.266 19.9419 10.2637L19.9396 12.0231ZM19.9419 24.9259C21.1138 24.9236 22.0768 24.9118 22.8603 24.8051C23.6638 24.6972 24.3606 24.4802 24.9646 24.0169L23.8937 22.621C23.6192 22.831 23.2556 22.9764 22.6246 23.062C21.9759 23.15 21.1337 23.1641 19.9384 23.1664L19.9419 24.9259ZM16.8289 5.31369C17.2324 5.10255 17.6922 4.98525 18.1813 4.98525V3.22578C17.4013 3.22578 16.6646 3.41581 16.0148 3.75362L16.8289 5.31369Z" fill="#76462B"/>
<path d="M7.03809 17.595C7.03809 17.595 8.21107 18.1815 8.79756 19.9409C8.79756 19.9409 10.557 16.422 12.903 15.249" stroke="#76462B" stroke-width="2" stroke-linecap="round" stroke-linejoin="round"/>
</svg>
