<svg width="74" height="66" viewBox="0 0 74 66" fill="none" xmlns="http://www.w3.org/2000/svg">
<path fill-rule="evenodd" clip-rule="evenodd" d="M28.5193 66.0002H44.814C56.2577 66.0002 61.9813 66.0002 66.0917 63.3052C67.8657 62.1434 69.3933 60.6432 70.587 58.8905C73.3333 54.8572 73.3333 49.2362 73.3333 38.0015C73.3333 26.7668 73.3333 21.1458 70.587 17.1125C69.3933 15.3598 67.8657 13.8597 66.0917 12.6978C63.4517 10.9635 60.1443 10.3438 55.0807 10.1238C52.6643 10.1238 50.5853 8.32717 50.1123 5.99884C49.7509 4.29336 48.8117 2.76497 47.4534 1.67199C46.0952 0.579011 44.4013 -0.011531 42.658 0.000170613H30.6753C27.0527 0.000170613 23.9323 2.51184 23.221 5.99884C22.748 8.32717 20.669 10.1238 18.2527 10.1238C13.1927 10.3438 9.88533 10.9672 7.24167 12.6978C5.46897 13.86 3.94267 15.3602 2.75 17.1125C0 21.1458 0 26.7632 0 38.0015C0 49.2398 2.1855e-07 54.8535 2.74633 58.8905C3.93433 60.6358 5.45967 62.1355 7.24167 63.3052C11.352 66.0002 17.0757 66.0002 28.5193 66.0002ZM36.6667 23.0012C28.2297 23.0012 21.3877 29.7148 21.3877 37.9978C21.3877 46.2808 28.2333 53.0055 36.6667 53.0055C45.1 53.0055 51.9457 46.2882 51.9457 38.0052C51.9457 29.7222 45.1 23.0012 36.6667 23.0012ZM36.6667 28.9998C31.6067 28.9998 27.5 33.0295 27.5 38.0015C27.5 42.9698 31.6067 46.9995 36.6667 46.9995C41.7267 46.9995 45.8333 42.9698 45.8333 38.0015C45.8333 33.0332 41.7267 28.9998 36.6667 28.9998ZM53.9807 26.0005C53.9807 24.3432 55.3483 23.0012 57.0387 23.0012H61.1087C62.7953 23.0012 64.1667 24.3432 64.1667 26.0005C64.1589 26.8031 63.8329 27.5699 63.2602 28.1322C62.6875 28.6946 61.915 29.0067 61.1123 28.9998H57.0387C56.6409 29.0037 56.2463 28.9292 55.8774 28.7806C55.5085 28.6319 55.1724 28.4121 54.8884 28.1335C54.6045 27.855 54.3782 27.5233 54.2224 27.1573C54.0666 26.7913 53.9845 26.3982 53.9807 26.0005Z" fill="#262626"/>
</svg>
