<svg width="27" height="27" viewBox="0 0 27 27" fill="none" xmlns="http://www.w3.org/2000/svg">
<path d="M16.0417 8.75C15.6285 8.75 15.2824 8.61 15.0033 8.33C14.7243 8.05 14.5843 7.70389 14.5833 7.29167V1.45833C14.5833 1.04514 14.7233 0.699028 15.0033 0.42C15.2833 0.140972 15.6294 0.000972222 16.0417 0H24.7917C25.2049 0 25.5515 0.14 25.8315 0.42C26.1115 0.7 26.251 1.04611 26.25 1.45833V7.29167C26.25 7.70486 26.11 8.05146 25.83 8.33146C25.55 8.61146 25.2039 8.75097 24.7917 8.75H16.0417ZM1.45833 14.5833C1.04514 14.5833 0.699028 14.4433 0.42 14.1633C0.140972 13.8833 0.000972222 13.5372 0 13.125V1.45833C0 1.04514 0.14 0.699028 0.42 0.42C0.7 0.140972 1.04611 0.000972222 1.45833 0H10.2083C10.6215 0 10.9681 0.14 11.2481 0.42C11.5281 0.7 11.6676 1.04611 11.6667 1.45833V13.125C11.6667 13.5382 11.5267 13.8848 11.2467 14.1648C10.9667 14.4448 10.6206 14.5843 10.2083 14.5833H1.45833ZM16.0417 26.25C15.6285 26.25 15.2824 26.11 15.0033 25.83C14.7243 25.55 14.5843 25.2039 14.5833 24.7917V13.125C14.5833 12.7118 14.7233 12.3657 15.0033 12.0867C15.2833 11.8076 15.6294 11.6676 16.0417 11.6667H24.7917C25.2049 11.6667 25.5515 11.8067 25.8315 12.0867C26.1115 12.3667 26.251 12.7128 26.25 13.125V24.7917C26.25 25.2049 26.11 25.5515 25.83 25.8315C25.55 26.1115 25.2039 26.251 24.7917 26.25H16.0417ZM1.45833 26.25C1.04514 26.25 0.699028 26.11 0.42 25.83C0.140972 25.55 0.000972222 25.2039 0 24.7917V18.9583C0 18.5451 0.14 18.199 0.42 17.92C0.7 17.641 1.04611 17.501 1.45833 17.5H10.2083C10.6215 17.5 10.9681 17.64 11.2481 17.92C11.5281 18.2 11.6676 18.5461 11.6667 18.9583V24.7917C11.6667 25.2049 11.5267 25.5515 11.2467 25.8315C10.9667 26.1115 10.6206 26.251 10.2083 26.25H1.45833Z" fill="#262626"/>
</svg>
