<svg width="35" height="33" viewBox="0 0 35 33" fill="none" xmlns="http://www.w3.org/2000/svg">
<path d="M17.4167 14.25C20.3822 14.25 23.0692 15.2317 25.0404 16.6044C26.9135 17.9107 28.5 19.8518 28.5 21.9403C28.5 23.0866 28.0107 24.0366 27.2397 24.7428C26.5145 25.4093 25.5677 25.8416 24.5923 26.1361C22.6432 26.7267 20.0767 26.9167 17.4167 26.9167C14.7567 26.9167 12.1901 26.7267 10.241 26.1361C9.26567 25.8416 8.31883 25.4093 7.59208 24.7428C6.82417 24.0382 6.33333 23.0882 6.33333 21.9418C6.33333 19.8534 7.91983 17.9122 9.79292 16.606C11.7642 15.2317 14.4511 14.25 17.4167 14.25ZM28.5 15.8333C30.153 15.8333 31.654 16.3796 32.7639 17.1523C33.7772 17.86 34.8333 19.0364 34.8333 20.4709C34.8333 21.2895 34.4771 21.9687 33.9467 22.4548C33.4622 22.8997 32.8637 23.161 32.3174 23.3257C31.5732 23.5505 30.6945 23.6661 29.7825 23.7167C29.9757 23.1705 30.0833 22.5767 30.0833 21.9403C30.0833 19.5098 28.5649 17.4452 26.866 16.0122C27.4026 15.8937 27.9505 15.8337 28.5 15.8333ZM6.33333 15.8333C6.90017 15.8354 7.44483 15.8951 7.96733 16.0122C6.27 17.4452 4.75 19.5098 4.75 21.9403C4.75 22.5767 4.85767 23.1705 5.05083 23.7167C4.13883 23.6661 3.26167 23.5505 2.51592 23.3257C1.96967 23.161 1.37117 22.8997 0.885083 22.4548C0.606459 22.2052 0.383616 21.8997 0.231105 21.5581C0.0785939 21.2165 -0.000154959 20.8466 2.28922e-07 20.4725C2.28922e-07 19.0396 1.0545 17.8616 2.06942 17.1538C3.32478 16.2932 4.8113 15.8329 6.33333 15.8333ZM27.7083 6.33333C28.7581 6.33333 29.765 6.75037 30.5073 7.4927C31.2496 8.23503 31.6667 9.24185 31.6667 10.2917C31.6667 11.3415 31.2496 12.3483 30.5073 13.0906C29.765 13.833 28.7581 14.25 27.7083 14.25C26.6585 14.25 25.6517 13.833 24.9094 13.0906C24.167 12.3483 23.75 11.3415 23.75 10.2917C23.75 9.24185 24.167 8.23503 24.9094 7.4927C25.6517 6.75037 26.6585 6.33333 27.7083 6.33333ZM7.125 6.33333C8.17482 6.33333 9.18163 6.75037 9.92396 7.4927C10.6663 8.23503 11.0833 9.24185 11.0833 10.2917C11.0833 11.3415 10.6663 12.3483 9.92396 13.0906C9.18163 13.833 8.17482 14.25 7.125 14.25C6.07518 14.25 5.06837 13.833 4.32604 13.0906C3.5837 12.3483 3.16667 11.3415 3.16667 10.2917C3.16667 9.24185 3.5837 8.23503 4.32604 7.4927C5.06837 6.75037 6.07518 6.33333 7.125 6.33333ZM17.4167 0C19.0964 0 20.7073 0.66726 21.895 1.85499C23.0827 3.04272 23.75 4.65363 23.75 6.33333C23.75 8.01304 23.0827 9.62395 21.895 10.8117C20.7073 11.9994 19.0964 12.6667 17.4167 12.6667C15.737 12.6667 14.1261 11.9994 12.9383 10.8117C11.7506 9.62395 11.0833 8.01304 11.0833 6.33333C11.0833 4.65363 11.7506 3.04272 12.9383 1.85499C14.1261 0.66726 15.737 0 17.4167 0Z" fill="#262626"/>
</svg>
