<svg width="40" height="23" viewBox="0 0 40 23" fill="none" xmlns="http://www.w3.org/2000/svg">
<path d="M37.4428 0.000957038C37.0295 -0.00932667 36.6182 0.0633551 36.2334 0.214707C35.5669 0.467832 35.0494 0.850332 34.5628 1.33689L27.4387 8.45533C26.8856 9.00846 26.4112 9.60846 26.0156 10.2553L24.9187 12.0638C24.6754 12.4672 24.574 12.9404 24.6309 13.4081C24.6878 13.8758 24.8996 14.311 25.2326 14.6443C25.5655 14.9776 26.0005 15.1899 26.4682 15.2472C26.9358 15.3045 27.4092 15.2036 27.8128 14.9606L29.6184 13.861C30.2672 13.4653 30.8672 12.991 31.4184 12.4378L38.5397 5.31377C39.0262 4.82721 39.4088 4.30971 39.6619 3.64314C39.7856 3.31127 39.8897 2.93439 39.8756 2.43377C39.8531 1.79458 39.5946 1.18641 39.15 0.726582C38.6902 0.282026 38.082 0.023526 37.4428 0.000957038ZM6.27187 3.31408C2.85188 3.31408 0 6.09564 0 9.51564V16.8C0 20.2172 2.85188 23.0016 6.27187 23.0016H33.1031C36.5231 23.0016 39.375 20.22 39.375 16.8V10.4438L34.4025 15.4163C33.6347 16.1841 32.7712 16.8788 31.8122 17.4638L30.0206 18.5578C27.4612 20.1216 24.0694 19.4635 22.2412 17.6353C20.4131 15.8072 19.755 12.4153 21.3188 9.85596L22.4128 8.06439C22.9978 7.10533 23.6925 6.24189 24.4603 5.47408L26.6203 3.31408H6.27187ZM7.03125 9.64221C7.96365 9.64221 8.85786 10.0126 9.51717 10.6719C10.1765 11.3312 10.5469 12.2254 10.5469 13.1578C10.5469 14.0902 10.1765 14.9844 9.51717 15.6438C8.85786 16.3031 7.96365 16.6735 7.03125 16.6735C6.09885 16.6735 5.20464 16.3031 4.54533 15.6438C3.88602 14.9844 3.51562 14.0902 3.51562 13.1578C3.51562 12.2254 3.88602 11.3312 4.54533 10.6719C5.20464 10.0126 6.09885 9.64221 7.03125 9.64221ZM15.4688 9.64221C16.4012 9.64221 17.2954 10.0126 17.9547 10.6719C18.614 11.3312 18.9844 12.2254 18.9844 13.1578C18.9844 14.0902 18.614 14.9844 17.9547 15.6438C17.2954 16.3031 16.4012 16.6735 15.4688 16.6735C14.5363 16.6735 13.6421 16.3031 12.9828 15.6438C12.3235 14.9844 11.9531 14.0902 11.9531 13.1578C11.9531 12.2254 12.3235 11.3312 12.9828 10.6719C13.6421 10.0126 14.5363 9.64221 15.4688 9.64221Z" fill="#76462B"/>
</svg>
