<svg width="25" height="31" viewBox="0 0 25 31" fill="none" xmlns="http://www.w3.org/2000/svg">
<path d="M24.6667 9.25L15.4167 0H3.08333C2.26558 0 1.48132 0.32485 0.903087 0.903087C0.32485 1.48132 0 2.26558 0 3.08333V27.75C0 28.5678 0.32485 29.352 0.903087 29.9302C1.48132 30.5085 2.26558 30.8333 3.08333 30.8333H21.5833C22.4011 30.8333 23.1853 30.5085 23.7636 29.9302C24.3418 29.352 24.6667 28.5678 24.6667 27.75V9.25ZM7.70833 26.2083H4.625V12.3333H7.70833V26.2083ZM13.875 26.2083H10.7917V16.9583H13.875V26.2083ZM20.0417 26.2083H16.9583V21.5833H20.0417V26.2083ZM15.4167 10.7917H13.875V3.08333L21.5833 10.7917H15.4167Z" fill="#262626"/>
</svg>
